<?xml version="1.0" encoding="utf-8"?>
<!-- Generator: Adobe Illustrator 25.2.1, SVG Export Plug-In . SVG Version: 6.00 Build 0)  -->
<svg version="1.1" id="Layer_1" xmlns="http://www.w3.org/2000/svg" xmlns:xlink="http://www.w3.org/1999/xlink" x="0px" y="0px"
	 viewBox="0 0 600 600" style="enable-background:new 0 0 600 600;" xml:space="preserve">
<style type="text/css">
	.st0{fill:#FFFFFF;}
	.st1{fill:#7F7F7F;}
	.st2{fill:#999999;}
	.st3{fill:#DBD9D9;}
	.st4{fill:#F5C244;}
	.st5{fill:#8E8E8E;}
	.st6{fill:#1C1C1C;}
	.st7{fill:#6D6B6B;}
	.st8{fill:#E8E8E8;stroke:#2D2D2D;stroke-miterlimit:10;}
</style>
<rect x="93.9" y="85.5" class="st0" width="400" height="400"/>
<g>
	<g>
		<g>
			<path class="st1" d="M137.2,364.7c0,0-9.5-8.5-15.1,3.8c-4.7,15.1,18.9,18.9,18.9,18.9c71.9,28.4,72.8-70,72.8-70
				s12.9-56.9-10.7-56.9c-48,28-7.2,113.6-50.8,108.9C152.3,369.4,145.7,355.9,137.2,364.7z"/>
		</g>
		<g>
			<path class="st2" d="M137.2,364.7c-0.9,2.8,5.7,7.6,3.8,7.6c-1.9,0-2.8,0.9-2.8,0.9L137.2,364.7z"/>
		</g>
	</g>
	<g>
		<g>
			<path class="st1" d="M450.6,364.7c0,0,9.5-8.5,15.1,3.8c4.7,15.1-18.9,18.9-18.9,18.9c-71.9,28.4-72.8-70-72.8-70
				s-12.9-56.9,10.7-56.9c48,28,7.2,113.6,50.8,108.9C435.5,369.4,442.1,355.9,450.6,364.7z"/>
		</g>
		<g>
			<path class="st2" d="M450.6,364.7c3.9,2.8-2.7,7.6-0.8,7.6c1.9,0-0.2,0.9-0.2,0.9L450.6,364.7z"/>
		</g>
	</g>
	<g>
		<path class="st2" d="M400,306.5c0,80.2-55.7,154-105.9,154s-104-62.8-104-143s53.8-106,104-106S400,226.4,400,306.5z"/>
	</g>
	<ellipse class="st3" cx="298.1" cy="288.5" rx="69.5" ry="112"/>
	<path class="st4" d="M231.5,223.5l-4.7,8.1c0,0,22.1,17.4,72.2,15.2s70.5-15.2,70.5-15.2l-8.1-8.1H231.5z"/>
	<g>
		<path class="st2" d="M378.5,168.2c3.8,30-2.8,50.9-18.4,59.3c-8,4.3-18.5,3.2-29.6,1.1c-10.8-2.1-22.1,2.9-32.4,2.9
			c-9,0-18.7-5.5-28.2-3.3c-13.1,3.1-25.6,5.7-34.8,0.3c-14.8-8.6-20-31.2-16.4-60.3c6.3-50.6,45.5-59.1,79.9-59.1
			S372.2,117.6,378.5,168.2z"/>
	</g>
	<g>
		<g>
			<path class="st5" d="M295.7,451.8c6.2-5.8,9.3-17.4,10.6-24.2c0.7-3.5,3.9-5.9,7.5-5.5c4.3,0.5,9.3,1.3,10,0.4
				c16.8-19.6,46.4-33.8,59.7-39.5c5-2.1,10.7-2.1,15.6,0.2c10.6,5,24.9,17.4,6.1,45.6c-19.6,29.4-59.6,27.6-80.7,24.3l-11.3,16.3
				c-2.1,3.1-6.4,3.9-9.5,1.7c-6.8-1.3-5.4-3.2-7.1-4.9C291.8,463,291.3,455.9,295.7,451.8z"/>
		</g>
		<path class="st3" d="M305.6,472.2c7.6-5.2,6.1-11.6,6.1-11.6s-3.8,8.4-7.6,10.7"/>
		<path class="st3" d="M296.8,466.7c8-4.6,6.9-11.2,6.9-11.2s-3.6,8.1-7.6,10.1"/>
	</g>
	<g>
		<g>
			<path class="st5" d="M291.9,451.8c-6.2-5.8-9.3-17.4-10.6-24.2c-0.7-3.5-3.9-5.9-7.5-5.5c-4.3,0.5-9.3,1.3-10,0.4
				c-16.8-19.6-46.4-33.8-59.7-39.5c-5-2.1-10.7-2.1-15.6,0.2c-10.6,5-24.9,17.4-6.1,45.6c19.6,29.4,59.6,27.6,80.7,24.3l11.3,16.3
				c2.1,3.1,6.4,3.9,9.5,1.7c6.8-1.3,5.4-3.2,7.1-4.9C295.7,463,296.2,455.9,291.9,451.8z"/>
		</g>
		<path class="st3" d="M281.9,472.2c-7.6-5.2-6.1-11.6-6.1-11.6s3.8,8.4,7.6,10.7"/>
		<path class="st3" d="M290.7,466.7c-8-4.6-6.9-11.2-6.9-11.2s3.6,8.1,7.6,10.1"/>
	</g>
	<g>
		<path class="st6" d="M234.1,138.5c0,0,16-18,34-18c0,0-17.6-18.1-22.8-18.1C240.1,102.5,230.1,127.5,234.1,138.5z"/>
		<path class="st7" d="M268.1,120.5c0,0-13-21-24-22s-14,15-20,18s7,16,4,32s16.4-26.5,17.2-43.8
			C245.3,104.7,252.1,104.5,268.1,120.5z"/>
	</g>
	<path class="st7" d="M337.1,194.5c0,14.6-15.9,29-38,29s-41-14.4-41-29s17.9-32,40-32S337.1,179.9,337.1,194.5z"/>
	<g>
		<path class="st6" d="M361.5,138.5c0,0-16-18-34-18c0,0,17.6-18.1,22.8-18.1C355.5,102.5,365.5,127.5,361.5,138.5z"/>
		<path class="st7" d="M327.5,120.5c0,0,13-21,24-22s14,15,20,18s-7,16-4,32s-16.4-26.5-17.2-43.8
			C350.3,104.7,343.5,104.5,327.5,120.5z"/>
	</g>
	<path class="st6" d="M299,186.3c-8.9-2.8-11.9-9.8-11.9-9.8s11.7-8,23.9,0C311,176.5,307.1,182.5,299,186.3z"/>
	<g>
		<path class="st6" d="M263.2,201.4c2.8,1.9,5.7,3.5,8.7,4.8c1.5,0.6,3,1.2,4.5,1.6c1.5,0.4,3.1,0.7,4.6,0.8c1.5,0.1,3.1,0.1,4.5,0
			c1.5-0.2,3-0.5,4.4-1c2.9-0.9,5.5-2.5,7.9-4.4l1.7-1.3l1.6,1.3c0.5,0.4,1.1,0.8,1.7,1.2c0.6,0.4,1.3,0.8,1.9,1.1
			c1.3,0.7,2.7,1.3,4,1.8c2.7,1,5.6,1.6,8.5,1.6c1.4,0,2.9-0.2,4.3-0.5c1.4-0.3,2.8-0.9,4.2-1.5c2.7-1.3,5.2-3.3,7.6-5.5l0,0
			c0.1-0.1,0.2-0.1,0.2,0c0.1,0.1,0.1,0.1,0,0.2c-1.9,2.6-4.3,4.9-7,6.6c-1.4,0.8-2.9,1.6-4.4,2.1c-1.5,0.5-3.1,0.8-4.8,0.9
			c-3.2,0.3-6.5-0.3-9.6-1.3c-3.1-1-6-2.5-8.6-4.4l0.4,0c-2.7,2.1-5.7,3.8-8.9,4.8c-3.3,1-6.7,1.2-10.1,0.7
			c-3.4-0.5-6.6-1.7-9.6-3.3c-3-1.6-5.7-3.6-8.2-6c-0.1-0.1-0.1-0.2,0-0.2C263,201.4,263.1,201.3,263.2,201.4L263.2,201.4z"/>
	</g>
	<path class="st7" d="M284.1,161c0,10.8-8.6,15.5-21,15.5c-12.4,0-21-1.2-21-12c0-10.8,7.6-18,20-18
		C274.5,146.5,284.1,150.2,284.1,161z"/>
	<path class="st7" d="M311.1,160c0,10.8,8.6,15.5,21,15.5c12.4,0,21-1.2,21-12c0-10.8-7.6-18-20-18
		C320.7,145.5,311.1,149.2,311.1,160z"/>
	<g>
		<path class="st6" d="M299,186.3c0.5,1.6,0.7,3.1,0.9,4.7c0.2,1.6,0.3,3.2,0.4,4.7c0,1.6,0,3.2-0.1,4.8c-0.1,1.6-0.3,3.2-0.6,4.8
			c-0.5-1.6-0.7-3.1-0.9-4.7c-0.2-1.6-0.3-3.2-0.4-4.7c0-1.6,0-3.2,0.1-4.8C298.5,189.5,298.7,187.9,299,186.3z"/>
	</g>
	<path class="st6" d="M276.1,154.5c-13,11-26,6-26,6s4,8,15,5S276.1,154.5,276.1,154.5z"/>
	<path class="st6" d="M321.1,155.5c13,11,26,6,26,6s-4,8-15,5S321.1,155.5,321.1,155.5z"/>
	<g>
		<path class="st6" d="M286.8,166.7c0.9-0.5,1.8-1,2.8-1.3c1-0.3,2-0.6,3-0.7c1-0.1,2-0.1,3.1-0.2c1-0.1,2-0.2,3-0.3
			c2-0.2,4.1,0.1,6.1,0.6c2,0.6,3.8,1.8,5.2,3.3l-0.1,0.1c-1.8-1-3.6-1.8-5.5-2.3c-1.9-0.5-3.8-0.9-5.8-1.1c-1-0.1-2-0.1-3,0.1
			c-0.5,0.1-1,0.2-1.5,0.3c-0.5,0.1-1,0.2-1.5,0.4C290.8,165.9,288.8,166.4,286.8,166.7L286.8,166.7z"/>
	</g>
	<path class="st4" d="M445.1,237.5"/>
	<path class="st8" d="M230.5,232.5l-16.5-1.1l16.8-4.9C230.8,226.5,236.7,231.3,230.5,232.5z"/>
	<path class="st8" d="M363.8,232.5l16.5-1.1l-16.8-4.9C363.5,226.5,357.6,231.3,363.8,232.5z"/>
	<path class="st8" d="M282.4,236.3c0,0,6.5-2.3,8,1.2c1.5,3.5-13,14.6-13,14.6L282.4,236.3z"/>
	<path class="st8" d="M257,233.2c0,0,6.9,0.2,7,4c0.2,3.8-17.3,9-17.3,9L257,233.2z"/>
	<path class="st8" d="M312,236.3c0,0-6.5-2.3-8,1.2c-1.5,3.5,13,14.6,13,14.6L312,236.3z"/>
	<path class="st8" d="M337.4,234.2c0,0-6.9,0.2-7,4c-0.2,3.8,17.3,9,17.3,9L337.4,234.2z"/>
</g>
</svg>
