<?xml version="1.0" encoding="utf-8"?>
<!-- Generator: Adobe Illustrator 25.2.1, SVG Export Plug-In . SVG Version: 6.00 Build 0)  -->
<svg version="1.1" id="Layer_1" xmlns="http://www.w3.org/2000/svg" xmlns:xlink="http://www.w3.org/1999/xlink" x="0px" y="0px"
	 viewBox="0 0 600 423" style="enable-background:new 0 0 600 423;" xml:space="preserve">
<style type="text/css">
	.st0{fill:#030302;}
	.st1{fill:#B3B3B3;}
	.st2{fill:#B2B2B2;}
	.st3{fill:#F5C244;}
	.st4{fill:#B1B1B1;}
	.st5{fill:#FAFAFA;}
	.st6{fill:#9B9B9B;}
	.st7{fill:#B0B0B0;}
	.st8{fill:#F8F8F8;}
	.st9{fill:#F1BF43;}
	.st10{fill:#040404;}
</style>
<g id="Group_153" transform="translate(-98.854 -273.276)">
	<path id="Path_259" class="st0" d="M190,423.2c2.2-2.9,4.3-5.9,7.3-7.8c3.1-1.8,5.5-4.5,7-7.7c1.5-3.3,4.8-4.8,8-6.1
		c1-0.4,2-0.7,3-1c0-0.9-0.7-1.1-1.2-1.5c-3.5-3.1-5.4-6.7-4.7-11.6c0.9-6.9,4-12.1,10.9-14.2c4.9-1.6,8.5-4.6,11.5-8.7
		c0.8-1,1.5-2.1,2.2-3.3c2.5-5,6.4-9.2,11.1-12.2c0.8-0.5,1.5-1.2,2.5-2c-2.4-0.8-4.8-1-6.9-2c-3.5-1.6-4.6-3.4-4.3-7.3
		c0.2-3.2,2.5-5.9,5.6-6.6c8.2-1.8,15.9-4.6,22.7-9.9c2.7-2.1,5.9-3.6,9.3-4.2c4.4-0.8,8.7,0.3,12.8,1.5c9.1,2.5,17.2,7,23.5,14.2
		c0.5,0.6,1.3,1,2.1,1c3.3,0,6.5,0,9.8,0c0.9,0.1,1.8-0.2,2.4-0.8c2.3-2.6,5-4.9,7.1-7.8c5.6-7.7,13.2-11.2,22.7-10
		c1.9,0.2,3.9,0,5.7-0.7c14.9-4.9,30.1-8,45.9-7.7c15,0.3,29.6,3.2,42.9,10.4c6.8,3.7,12.7,8.6,18.3,13.9
		c10.3,9.7,18.5,21.1,25.8,33.1c3.3,5.5,6.9,10.9,9.8,16.7c4,7.9,9.8,13.9,16.6,19.3c11.2,8.8,22.2,17.6,34.8,24.4
		c5.4,2.9,10.3,3.3,15.8,0.9c5.9-2.6,11.6-5.4,16.7-9.5c6.5-5.3,10-6.1,18.7-1.2c0.3,0.1,0.6,0.3,0.8,0.5c5.1,4.1,11.3,6.7,17.8,7.3
		c3.2,0.3,5.4,2.2,7.3,4.5c3.3,4,4.3,11.5,2.1,15.5c-2.7,4.9-8.6,7.7-14.9,6.8c-4.3-0.6-8.7-1.5-13-2.4c-0.8-0.2-1.6-0.2-2.4-0.1
		c-1.5,0.2-3.4,0.5-4.1,1.9c-0.6,1.3,1,2.4,1.9,3.4c7.2,7.8,11.1,17.3,14.4,27.2c1.1,3.2,2.4,6.3,3.3,9.4c2.4,8,7.7,14.8,14.8,19.1
		c6,3.8,12.2,7.3,18.1,11.3c6.4,4.4,11.5,9.9,12.6,18.1c0.3,2.1,0.3,4.2,0.1,6.4c-2.1,13.9,1.7,26.5,7.8,38.7
		c1.4,2.7,2.4,5.5,2.9,8.5c0.6,3.5,0,7.1-1.6,10.2c-0.6,1.4-1.2,2.9-1.6,4.3c-0.7,1.9-0.5,4.1,0.5,5.9c3.3,6.7,3.9,13.6,0.7,20.5
		c-2.2,4.8-5.9,7.4-11.4,7.3c-4-0.1-8-0.1-12-0.1c-4.8-0.1-9.6,1.3-13.7,4c-2.4,1.6-5,3.1-7.4,4.7c-5.9,3.7-12,2.7-18.1,0.6
		c-1.1-0.5-2.1-1.3-2.9-2.2c-1.2-1.3-2.5-1.4-3.9-0.6c-0.4,0.2-0.7,0.4-1.1,0.6c-3.1,2.6-7.3,3.6-11.2,2.8
		c-3.9-0.6-7.6-2.1-10.7-4.5c-1.7-1.3-3.4-2.8-4.3-4.7c-1.8-4-5.3-5.7-8.8-7.6c-5-2.8-8.7-6.8-10.3-12.4c-1.9-6.4,2.4-15.4,8.7-18.3
		c1.8-0.8,3.6-1.6,5.5-2.1c4-1.1,7.7-3,11-5.5c3.7-2.7,8.4-3.3,13-3.7c4.2-0.5,8.5-0.3,12.7,0.5c1.6,0.3,2.1-0.2,2.6-1.6
		c1.9-5.4,0.8-10.7-1.2-15.8c-2.4-6.4-2.4-6.2-9.2-5.9c-7.8,0.4-15.2-1.6-22.6-3.5c-9.5-2.5-18.2-7.6-24.9-14.8
		c-0.3-0.3-0.6-0.6-0.9-0.8c-1-1-1.6-1.3-2.2,0.6c-4.4,15.4-10.2,30.4-16.1,45.3c-4.7,11.8-11.7,22-21.8,29.9
		c-0.8,0.7-1.5,1.5-2.1,2.4c-9,11.2-19.7,19.7-34.1,22.7c-8.4,1.7-16.7,1.7-24.7-1.9c-1.9-0.9-3.5-0.4-5.3,0.5
		c-9.6,4.6-19.5,5.8-29.6,1.6c-6.4-2.6-13.8-11.1-12.9-20.5c0.1-1.1,0.1-2.3,0.2-3.4c0.1-2.3-1.6-4.2-3.8-3.9
		c-7.2,1.1-12.8-2-17.8-6.7c-0.6-0.7-1.5-0.9-2.4-0.6c-8,2.6-14.7,0.1-19.2-7.3c-0.8-1.6-2.3-2.8-4-3.3c-1.2-0.4-2.3-0.8-3.4-1.4
		c-8.8-4.2-11.4-12.3-6.6-21.4c-4.6-1.1-9.4-1.3-13.7-3.1c-5.5-2.3-11.1-2.4-16.9-1.5c-13.2,2.1-26.4,1-39.5-0.9
		c-13.4-1.9-26.4-6.4-38.2-13.1c-6-3.4-11.1-8.1-16.3-12.6c-1.2-1.3-3-1.8-4.8-1.5c-4,0.7-8.1,0.9-12.1,1.7
		c-6.8,1.2-11.4,5.2-13.9,11.7c-0.6,1.5-0.5,2.4,1.2,2.9c1.7,0.6,3.3,1.4,4.9,2.3c5.1,2.5,8.7,7.2,9.9,12.7c0.2,1.2,0.9,2.2,2,2.9
		c12.2,7.6,11.9,24.5,1.5,33.1c-0.4,0.5-1,0.8-1.6,1c-3.3,0.4-4.7,2.8-6.2,5.4c-3.5,6.3-9.4,8.7-16.3,9.3
		c-11.7,1.1-18.7-5.6-24.2-14.7c-2.2-3.7-6.2-4-8.4-0.4c-0.8,1.4-2,2.6-3.4,3.4c-10.6,6.3-18.7,7.1-28.5-2.4
		c-4.7-4.6-6.6-10.7-8.4-16.9c-0.7-2.5-0.7-5-0.1-7.5c0.3-1.8,1.1-3.4,2.3-4.8c3.1-3.1,3.6-7.4,5.5-11c0.5-0.9,0.2-1.9,0.2-2.9
		c-0.7-13.6,0.8-27.1,4.3-40.3c2.9-10.5,8.6-19.5,14.7-28.3c4.6-6.8,10.2-13,16.5-18.3c0.6-0.3,0.9-1.1,0.5-1.8c0,0,0,0,0-0.1
		c-2.1-5.5-2.3-11.5-0.6-17.1c1.9-6.4,6.4-11,12.4-13.7c1.9-0.9,2.5-1.9,2.7-4c0.8-7.3,1.8-14.6,4.7-21.4c0.9-2.5,2.3-4.9,4.1-6.9
		c1.5-1.6,3.5-2.7,5.7-3.1C187.7,418.9,187.7,418.9,190,423.2z M518.4,412.4c0.5,3.3,1,5.9,1.3,8.6c0.6,4.9,1.3,9.9,0,14.8
		c-0.3,1.1-0.4,2.3-2.1,2.2c-1.5-0.1-1.8-1.1-2.1-2.3c-0.4-2.2-0.7-4.3-1.3-6.5c-6.2-24.3-17.2-47.2-32.2-67.3
		c-8.7-11.6-17.7-22.9-29.7-31.3c-10.5-7.3-21.7-12.1-34.6-13.1c-6-0.4-12.1-0.4-18.1,0.1c-10,0.8-20,2.4-29.7,4.9
		c-2,0.5-1.7,1.3-0.7,2.4c1.9,2.2,4.1,4.2,6.4,6c3.8,3,7.8,3.7,12.1,1.5c3.5-1.9,9.4,0.6,11.8,4.1c2.9,4,2.9,7.8-0.1,11.7
		c-3,4-7.3,5.9-11.9,7.3c-3.4,1-6.8,1.7-10.3,2.1c-1.6,0.2-1.9,0.8-0.7,1.9c1.4,1.4,2.7,2.8,4.2,4.1c1,1.1,2.7,1.3,4,0.6
		c3-1.5,6.4-2,9.8-1.4c2.5,0.4,3.1,1.7,2.8,3.9c-0.5,3.1-1.6,6-3.2,8.7c-0.8,1.5-0.6,2.4,0.4,3.7c7.5,9.5,13.9,19.8,17.7,31.4
		c0.4,1.1,1.2,1.9,2.3,2.3c2.5,1.1,5,2,7.2,3.6c2,1.5,2.2,3.3,0.7,5.3c-1.9,2.5-3.8,4.9-5.9,7.2c-1.1,1.1-1.6,2.6-1.5,4.2
		c0.8,17-1.4,34-6.4,50.2c-0.5,1.1-0.1,2.4,0.9,3.1c2.2,1.7,4,3.8,5.4,6.3c1.7,3.5,0.7,5.9-3,7c-2.9,0.9-5.8,0.7-8.8,0.6
		c-1.2-0.2-2.4,0.5-2.8,1.7c-7,13.9-18,25.4-31.5,33.1c-1.8,1-2.2,2.1-1.9,4c0.7,3.6,1.1,7.3-0.1,10.9c-0.6,1.9-1.7,2.7-3.8,2.5
		c-5.1-0.5-9.3-3-13.4-5.7c-0.9-0.7-2.1-0.9-3.1-0.5c-14.7,4.9-29.7,7.5-45.3,6.5c-0.9-0.1-2.1-0.2-2.5,0.6
		c-0.5,1.1,0.9,1.4,1.6,1.8c9.8,6.6,21,9.9,32.3,13.2c12.6,3.6,25.6,4,38.6,3.8c13-0.2,25.5-2.6,37.2-8.2c4.8-2.3,9.6-4.4,14.4-6.6
		c11.3-5.3,22.6-10.7,34.7-13.8c5.4-1.4,5.4-1.4,3.8-6.8c-1.1-3.7-2.8-6.1-7.3-6.5c-4.9-0.4-10-0.1-14.7-2.1c-1-0.4-1.6,0.4-2.4,0.9
		c-2.6,1.6-4.9,3.7-8.2,4.1c-12.2,1.4-20.3-4.7-26.9-14c-0.7-0.9-1-2.1-0.8-3.3c0.2-1.3,0.8-1.7,2-1c1.2,0.9,2.3,1.9,3.2,3.1
		c4.9,5.8,14.2,8.2,21.2,5.5c4.2-1.6,4.2-1.6,3.8-6.1c-0.1-1.5-0.2-3.1-0.1-4.6c0.1-1,0.3-1.9,0.7-2.8c0.2-0.7,0.8-1.3,1.6-1.4
		c1.1-0.1,1.1,0.8,1.4,1.4c0.9,1.7,1.6,3.4,2.6,5c2,3,4.9,4.5,8.7,5.9c-0.8-1.7-1.3-2.8-1.7-3.9c-1.1-3.1-2.4-6.1-2.1-9.5
		c0.1-0.6,0.1-1.4,0.8-1.6c0.7-0.1,0.8,0.7,1.1,1.1c5.4,8.3,13.1,14,21.6,18.8c2.8,1.6,5.8,3,8.2,5.4c2.9,2.9,3.9,6.6,3.7,10.5
		c-0.1,1.3-0.6,2.9-1.8,3.3c-1.4,0.4-1.7-1.4-2.3-2.4c-0.8-1.3-1.3-3-3.3-3.4c-0.8,4.4-0.6,8.7-0.6,13c0,8,1.5,16,0.9,24
		c-0.5,7.1,0,14.2,1.5,21.2c0.5,2.2,0.8,4.5,1.1,6.8c0.2,2-0.7,2.7-2.6,2c-1.1-0.4-2.1-1.2-3.3-1.6c-3.4-1.2-4-0.7-3.5,2.9
		c0.2,1,0.6,2,0.8,3.1c0.5,1.9,1.7,4.5-0.2,5.4c-2.1,0.9-3.7-1.5-4.8-3.4c-2.1-3.7-3.2-7.9-3.4-12.1c0-1.1-0.6-2-1.6-2.4
		c-5.2-2.6-10.8-4.2-16.6-4.5c-1.2-0.2-2.5,0-3.6,0.6c0.6,0.6,1,1,1.4,1.6c0.5,0.6,0.8,1.2,1.2,1.8c0.6,1.1,0.6,2.4,0,3.5
		c-0.8,1.1-1.9,0-2.8-0.2c-9.6-2.7-18.6-1.1-26.9,4.4c-3.1,2.1-4.1,7.1-2.3,10.4c0.9,1.6,1.6,2.1,3.3,0.7c5.2-4.4,11.6-7.2,18.3-8.2
		c4.7-0.7,10.1,1.9,12.2,5.7c0.7,1.3,0.3,2-0.9,2.4c-0.6,0.1-1.3,0.2-1.9,0.2c-5.6,0.5-11.2,1-16.4,3.4c-4.7,2.2-8.2,7-7.9,11.1
		c0.4,6.5,2.8,9.9,9.1,11.8c8.3,2.6,16.4,2.5,24.1-2.1c1.3-0.8,2.9-1,4.4-0.6c10.9,2.1,21.8,2.2,32.4-1.3c5.7-1.7,10.8-5.1,14.7-9.6
		c-7.3-1.7-13.9-5.5-19-10.9c-1.4-1.4-2.4-3.1-2.8-5.1c-0.2-0.9-0.3-1.9,0.6-2.4c0.9-0.5,1.5,0.3,2.1,0.8c3.6,2.9,7.3,5.5,11.8,6.8
		c4.8,1.3,9.7,3,14.8,0.6c3.4-1.7,6.4-3.9,9-6.7c8.2-8.4,11.9-19.3,16.4-29.7c2.3-5.2,3.7-10.8,5.6-16.1c3.7-10.7,6.7-21.5,6.3-32.9
		c-0.4-9.2-1-18.4-3-27.5c-1.4-6.1-2.6-12.3-6.6-17.5c-10.1-13.1-20-26.2-31.5-38.1c-2.3-2.3-4.9-4.2-6.8-7c-1.1-1.6-1-2.7,0.8-3.5
		c1.1-0.5,2.3-0.9,3.4-1.3c3.3-1.1,3.4-1.1,2.2-4.4c-2.2-5.8-4.9-11.4-8.1-16.7c-1.3-2.2-2.3-4.5-2.9-7c-0.2-0.7-0.7-1.7,0.2-2.2
		c0.8-0.4,1.6,0.1,2.2,0.6c1.4,1.1,2.7,2.4,3.8,3.8c7.7,9,12.3,19.5,15.6,30.8c0.5,2.2,1.7,4.2,3.3,5.8c6.7,6.4,12.3,13.7,17.8,21.1
		c7.6,10.3,13.6,21.4,16.4,34.1c2.2,9.7,4.2,19.5,3.3,29.5c-0.1,0.9,0.2,1.8,0.9,2.5c5,5.8,11.1,10.7,17.9,14.3
		c11.4,6.2,23.8,7.1,36.4,6.2c5.1-0.4,10.1,0.1,15,1.4c2.8,0.8,5.1,2.3,5.7,5.5c0.5,2.7-0.4,3.9-3.2,3.8c-2-0.2-3.9-0.5-5.8-1
		c-1.6-0.4-2-0.1-1.5,1.6c2.3,7.2,2,15-0.6,22.1c-0.8,2.1-0.8,3.6,1,5.1c1.2,1.1,3.2,2.7,2.3,4.1c-0.9,1.4-3.2,0.3-4.8-0.1
		c-7.8-1.9-15.7-2.3-23.5-0.4c-6.8,1.7-13,5.3-19.5,7.9c-3.4,1.3-5.1,4.4-5.6,8.1c-0.6,4.5,1.9,9.8,5.6,11.3
		c0.2-1.2,0.4-2.4,0.6-3.6c1.5-9.5,8-16,17.6-17.5c1.1-0.2,2.5-0.6,3.1,0.7c0.6,1.3-1,1.7-1.8,2.1c-3.7,2-6.6,5.2-8.1,9.2
		c-3.5,8.5-1,15.1,7.3,18.7c2.8,1.2,5.7,1.1,8.7,0.9c1.9-0.1,2.6-0.7,2.3-2.7c-0.9-6.4,0.6-12.3,3.5-17.9c1.1-2.1,2.8-3.9,5-4.9
		c7.6-3.6,15.5-3.6,23.4-1.5c2,0.5,3.7,1.9,4.6,3.8c0.5,1.1,0.2,1.5-0.9,1.5c-2.6,0-5.2,0.2-7.8,0.1c-3.7,0-7.3,0.8-10.6,2.5
		c-6,2.7-8.6,9.8-5.9,15.9c0.2,0.5,0.5,0.9,0.7,1.4c1.1,2,3.2,3.4,5.5,3.6c3,0.4,6,0.2,8.7-1.5c1.9-1.2,4-2.3,5.9-3.4
		c4.9-2.7,10-4.5,15.7-3.5c1.9,0.2,3.8,0.2,5.6-0.2c5.6-0.8,8.9-4.7,8.9-10.4c0-6.3-3-11.1-7.6-15c-1-0.9-1.5-1.8-0.9-3.2
		c0.6-1.3,1.7-1.5,2.8-1.4c1.9,0,3.7,0.6,5.2,1.8c1.3,1.1,1.9,0.7,2.2-0.9c0.5-2.2,0.7-4.5,0.7-6.8c-0.1-4.9-1.5-9.5-3.3-14
		c-1.2-3.1-2.8-6.1-3.7-9.3c-2.1-7.5-3.4-15.1-3.2-22.9c0.3-9.9-4.3-16.8-12.3-21.8c-1.6-1-3.2-1.9-4.8-3
		c-5.1-3.3-9.9-6.9-14.4-10.9c-6.7-6.3-10.7-14.2-13.8-22.8c-2.8-8-5.7-16-10.3-23.2c-2.5-4.1-5.5-7.9-8.9-11.3
		c-3.7-3.7-8.3-5.9-12.9-8.2c-15.9-8.1-31.8-16.3-47.2-25.5C527.2,418.2,523.1,415.4,518.4,412.4L518.4,412.4z M377.4,467.3
		c4.8-6.1,6.7-14,5-21.6c-0.5-2.1-0.7-4.2-0.7-6.3c0.1-4.9,2.3-9.1,4-13.5c3.4-8.8,3.8-18,0.6-26.6c-4.4-11.8-11.3-22.2-20.1-31.4
		c-0.1-0.1-0.4-0.1-0.6-0.1c0.2,2.8,0.5,5.6,0.5,8.4c0,0.7,0.3,2-0.8,2.3c-1,0.2-1.6-0.6-2.2-1.3c-2.3-2.8-4-6-5-9.5
		c-1.7-5.4-3.8-10.6-6.4-15.6c-1-1.8-2.3-2.1-3.8-0.7c-0.7,0.6-1.3,1.3-2,1.8c-0.4,0.4-1.1,0.6-1.6,0.3c-0.8-0.4-0.1-1,0-1.5
		c0.4-1.7,0.9-3.5,1.3-5.2c0.9-3.3,1.4-6.5-0.5-9.7c-0.3-0.6-0.5-1.2-0.6-1.9c-0.1-0.5-0.2-1.1,0.2-1.4c0.6-0.4,1.1,0.2,1.4,0.6
		c1.1,1.1,2,2.4,2.6,3.8c1.2,3.3,3.4,6.2,6.2,8.3c6.7,5.1,14.5,6.2,22.5,5.8c5.7-0.3,10.5-3,14.2-7.3c1.6-1.6,1.6-4.1,0.2-5.8
		c-1.4-1.5-2.8-0.1-4.2,0.1c-0.2,0.1-0.5,0.2-0.7,0.3c-5,3.1-9.7,1.7-14.2-1c-3.7-2.2-5.9-5.9-8.5-9c-1.9-2.3-4.3-4.1-6.9-5.3
		c-2.7-1.2-5.6-1.4-8.1,0.6c-7.3,5.5-14.4,11.3-21.1,17.5c-3.2,3.2-7.2,5.5-11.5,6.7c-5.6,1.4-7.9,0.2-10-5.2
		c-0.6-1.6-0.1-2.2,1.3-2.7c1.8-0.7,3.9-0.2,6.2-1.4c-1.8-0.6-3.7-0.9-5.6-1c-8.3,0-16.7,0.6-24.9,2c-11.2,2-22.1,5.2-32.1,10.8
		c-4.2,2.2-7.8,5.5-10.2,9.6c-1.5,2.6-3,5-4.5,7.6c-2.6,4.5-5.8,8.3-11.1,9.7c-2,0.7-3.9,1.6-5.7,2.8c-2.4,1.4-3.7,3.4-3.5,6.2
		c0.1,2.8,1.8,5.2,4.4,6.2c2.6,1.1,5.4,1.3,8.2,0.7c6.2-1.3,10.7-4.6,13-10.9c2.3-6.5,5.2-12.9,7.8-19.3c0.4-1.2,1.1-2.2,2-3
		c1.1-0.8,2.5-1.7,3.5-1.1c1,0.7,0.3,2.2-0.1,3.4c-0.7,2-1.8,3.8-2,6c1.2,0,1.9-0.7,2.7-1.2c5.6-3.3,11.5-5.9,17.6-7.9
		c2.9-1,5.9-1.5,8.9-1.6c1.2,0,2.5,0.3,2.7,1.6c0.2,1.3-1,1.7-2,2.1c-2.6,0.9-5.3,1.8-7.9,2.7c-8.5,2.9-16.5,6.7-23.5,12.5
		c-2.6,2.1-5,4.5-6.3,7.7c-1.3,3.3-0.3,6.1,2.5,8.1c2.1,1.5,4.3,1.4,6.6,0.9c7.8-1.9,14.2-6.6,20.8-10.7c5.4-3.3,10.8-6.5,17.1-7.7
		c4.2-0.9,8.5-0.8,12.6,0.4c3.4,1.1,6.1,3.8,7.1,7.2c1.3,4.6,4,8.7,7.8,11.8c11.8,9.9,22.5,20.9,32.1,32.9
		c5.8,7.1,11.2,14.5,16.2,22.2c1-1.3,1.6-2.8,1.8-4.4c0.8-4.2,2-8.2,3.6-12.2c0.2-0.4,0.2-1.1,0.9-1c0.6,0.1,0.6,0.7,0.7,1.1
		c0.3,3.1,1,6.1,1.2,9.2C376.6,451.3,376.4,459.3,377.4,467.3z M193.2,445c3.3-1,4.2-1.9,5.1-4.9c0.3-0.8,0.5-1.7,0.7-2.6
		c0.3-1.9,1.1-1.7,2.5-0.9c4.2,2.7,5.3,2.4,7.8-1.9c0.8-1.5,1.7-1.9,2.6-0.2c1.7,3.2,5.1,5.1,8.7,5.1c4.6,0.2,9.2,0.1,11.7-5
		c0.7-1.3,1.6-2.5,2.6-3.6c2.3-2.8,4.7-5.4,7.9-7.3c2.3-1.4,3.4-0.9,4.1,1.7c0.4,1.6,0.6,3.2,0.7,4.8c0.1,0.9,0.3,1.3,1.4,1.1
		c5.5-1.1,10.9-2.4,15.5-6.1c5.7-4.6,11.1-9.7,17.2-13.8c5.1-3.4,10.8-4.2,16.6-3.6c5.6,0.7,10.2,5.3,11.3,10.7
		c1.7,8.6,2.3,17.4,1.8,26.1c-0.5,9.5-1.4,19-4.6,28.2c-2.3,6.5-4.1,13.1-5.6,19.8c-1.1,4.3-1.5,8.7-1.3,13.1
		c0.7,9.1,4.3,13.8,13.2,15.3c11.2,2,22.3,1.3,33-2.9c4.4-1.7,8.2-4.5,11.1-8.2c4.4-5.6,7.9-11.9,10.3-18.6c1.1-2.6,1.7-5.5,1.9-8.3
		c0.2-9.3-2.2-18.4-7-26.4c-5.2-8.8-12.4-16.2-18.4-24.5c-5.8-8-13-14.9-19.3-22.5c-4.9-5.9-10.6-11.1-16-16.6
		c-1.4-1.4-2.2-1.1-2.6,0.9c-0.5,2.1,0.6,3.8,1.8,5.4c4.8,6.4,10.4,12,15.9,17.6c4.6,4.7,9.1,9.6,12.8,15.1
		c3.8,5.6,6.6,11.6,7.2,18.5c0.1,0.7,0.5,1.6-0.3,1.9c-0.8,0.2-1.7,0-2.2-0.7c-1.4-1.4-2.6-2.9-3.5-4.7c-3.1-5.8-6.8-11.2-10.9-16.2
		c-0.9-1.1-1.7-2.6-3.6-2.8c0.3,4,0.3,7.9,0,11.9c-0.3,4.9-1.1,9.7-2.3,14.5c-0.2,0.9-0.6,1.8-1.6,2c-1,0.3-1.4-0.7-1.8-1.4
		c-0.8-1.5-1.3-3.2-1.7-4.8c-2-7.4-1.9-15.1-2.5-22.6c-0.5-9.1-4.3-17.8-10.5-24.5c-2.1-2.2-4.6-4.3-8.3-3.8
		c-5.9,0.8-11.4,2.9-16.9,5c-7,2.7-13.4,1.1-18.4-4.5c-0.6-0.8-1.6-1.1-2.5-0.8c-5.5,1.6-10.7,1.2-15.1-2.9c-0.6-0.5-1.2-0.9-2-0.3
		c-3.5,2.7-7.5,4.7-11.7,5.9c0.5,0.2,1,0.3,1.6,0.4c3.8,0.2,7.3,0.9,9.9,4c0.4,0.3,0.8,0.5,1.3,0.6c9.7,1.6,19.4,3.9,29.4,1.8
		c0.5-0.1,1.2-0.5,1.5,0.3c0.3,0.7-0.3,1-0.7,1.4c-2.9,2.9-6.6,4.1-10.5,4.9c-1.2,0.2-2.4,0.1-3.5-0.5c-6.9-3.1-13.8-5.2-21.4-1.6
		c-3.3,1.6-7.1,0.9-10.7,1c-3,0.1-4.8,1.6-6.3,3.9c-2,3.2-2.1,6.8-2.7,10.3c-0.2,0.9,0.3,2.4-1.2,2.6c-1.4,0.2-2.2-0.7-2.9-1.8
		c-1.7-3-3.1-6.1-4.3-9.3c-0.8-2-1.8-2.4-3.7-1.4c-5.3,2.7-8.9,7-12.6,11.5c-0.3,0.4-0.4,0.9-0.3,1.4
		C191.8,435.8,192.5,440.4,193.2,445z M179.6,497.3c0,3.3-0.3,6.3,0.1,9.4c0.9,8,6.6,11.9,13,15c10.3,5,21.3,4.3,32.2,2.8
		c4.4-0.6,4.3-0.8,1.6-4.4c-2.9-3.8-5.8-7.7-7.4-12.3c-0.4-1.3-0.9-2.7,0.6-3.7c1.7-1.1,2.4,0.5,3.1,1.4c2.4,3,5.2,5.7,7.8,8.5
		c4.6,4.8,10,8,16.7,8.9c3.4,0.5,6.7,1.2,10.2,1.6c11.1,1.5,22.4,0.7,33.3-2.2c1.3-0.4,1.8-0.7,1.3-2.1c-1.9-5.3-2.1-10.9-2.4-16.4
		c-0.3-5,0.6-9.9,1.5-14.8c0.3-1.5-0.2-1.7-1.4-1.5c-0.5,0.1-1,0-1.5,0.1c-6.7,1.5-12.5-0.8-17.5-5c-4.9-4.1-9.6-8.6-14.4-12.9
		c-1.7-1.5-3.3-3.2-5.4-4.1c-19.7-8.6-38.8-6.9-57.3,3.6c-5.5,3.1-10.6,6.8-16.3,9.5c-1.5,0.7-3.1,1-4.7,1c-0.8,0-1.9,0.2-2.1-0.8
		c-0.3-0.9,0.8-1.1,1.4-1.4c4.7-2.3,8-6.1,11-10.2c2.3-3.2,2.1-4-1.4-5.7c-0.5-0.2-1.1-0.4-1.6-0.6c-5.2-1.3-9.5,0.4-13.4,3.9
		c-6,5.3-6.2,15.4-0.1,20.6c4.6,3.9,10,5,15.8,4.4c6.2-0.6,11.8-3.2,17.3-6c6.6-3.5,13.7-5.9,21.1-6.9c12.9-1.6,25.4-0.6,37.6,4.2
		c1.5,0.4,2.8,1.3,3.8,2.5c0.5,0.7,1.1,1.6,0.8,2.5c-0.4,1.1-1.6,0.7-2.4,0.7c-3.8-0.2-7.4-1.3-11.1-2c-3.1-0.6-6.3-1.1-9.5-0.3
		c-1.8,0.4-2.4,1.4-1.5,3.1c0.6,1,1.4,2.1,0.5,3.1c-0.9,1.2-2.2,0.6-3.4,0.4c-8.5-1.6-16.9-3.7-25.7-3.1c-2.9,0.1-5.7,0.6-8.4,1.5
		c-1.6,0.6-2.7,1.4-2.1,3.4c0.5,1.5,0.6,3,1.1,4.5c2,6.3,5.5,12.1,10.2,16.8c1,1,2.3,2.3,1.4,3.8c-0.9,1.5-2.6,0.9-4,0.5
		c-2.3-0.8-4.5-1.9-6.5-3.4c-5.4-3.9-10.4-8.2-15-12.9C184.3,500,182.1,498.4,179.6,497.3z M205.3,607.1c0.8-0.2,1.4-0.8,1.8-1.5
		c5.2-7.2,0.5-17.2-6.4-19.3c-1.3-0.3-2.6-1-3.7-1.8c-1.4-1.1-2.3-2.7-0.9-4.2c2-2,1.1-3.8,0-5.6c-1.7-2.9-4.7-4.9-8.1-5.4
		c-3.6-0.7-7.3-0.7-11-0.1c-1.7,0.3-3.3,0.1-4.5-1.1c-2.5-2.7-5.9-3.5-9.2-4.1c-12.1-2.4-22.1,1.8-30.7,10.2
		c-1.5,1.5-2.6,3.4-2.9,5.5c-0.3,1.5,0,2.8,1.6,3.7c1.9,1,2.8,2.9,3.4,4.9c0.6,2-0.1,2.9-2.2,3c-1.7,0-3.4,0.2-5.1,0.6
		c-2.7,0.6-4.6,3.1-4.6,5.9c-0.1,6.8,3.1,11.8,9.1,14.7c2.7,1.3,5.6,2.5,8.7,1.3c6-2.3,8.7-7.6,7.5-14.4c-0.2-1.2-0.6-2.5,0.6-3.4
		c1.3-0.9,2.6-0.5,3.9,0.2c1.9,1.2,3.4,3.2,4,5.4c0.3,1,0.7,1.7,2,1.8c1.2,0.1,1.5-0.7,1.9-1.5c0.6-1.6,1.7-3,3.1-4
		c1.1-0.8,2.6-0.8,3.7-0.1c1.2,0.7,0.7,1.9,0.5,2.9c-0.4,1.7-0.7,3.4-0.7,5.1c0,7.5,6.6,15.5,14.2,15.2c5-0.2,9.3-1.4,11.7-6
		c2.5-4.5,2.4-9.9-0.2-14.3c-1.4-2.6-3.2-5.1-6-6.7c-1.4-0.6-2.1-2.3-1.5-3.7c0,0,0,0,0,0c0.6-1.5,1.9-2,3.6-1.9
		c2.5,0.2,4.8,1,6.8,2.5c2.4,1.8,4,4.3,5.6,6.8C203.3,600.5,204.6,603.7,205.3,607.1z M211.2,539.3c-0.9-1.2-1.8-2.5-2.5-3.9
		c-1.5-3.4-4-4.3-7.6-4.1c-7.3,0.3-14.6-1.4-20.9-5c-4-2.3-7.4-5.2-8.4-10c-1.2-5.2-1.3-10.6-0.2-15.8c0.6-2.4,0.4-4.4-2.8-4.8
		c-1.2-0.3-2.3-0.8-3.3-1.5c-4.8-2.5-5.2-2.4-9,1.6c-0.8,0.8-1.5,1.7-2.2,2.6c-14.3,17.9-21.3,38.5-22.3,61.3c0,0.9-0.5,2,0.2,2.5
		c0.8,0.5,1.6-0.5,2.3-1c8.7-5.2,19-7.1,29-5.1c3.5,0.6,7.3,2,8.7,6c0.6,1.7,1.5,1.9,3.1,1.6c2.5-0.5,5.4,0,7.4-1.3
		c2.1-1.3,2.4-4.5,3.6-6.8c3.7-7.2,8.4-13.3,16.8-15.2C205.6,540.1,208.3,539.8,211.2,539.3L211.2,539.3z M391.3,433.4
		c-2.4,4.3-2.3,8.7-1.2,13.2c0.7,2.8,1,5.6,1,8.5c-0.4,7.8-3.1,15.3-7.9,21.5c-3.7,5-6.9,10.1-8.3,16.3c-1.1,4.9-2.8,9.6-5.1,14
		c-3.2,5.9-6,12-10.8,16.8c-1.3,1.3-1.2,2.2,0.7,2.8c1.5,0.5,2.9,1.2,4.2,2c0.7,0.5,1.7,0.5,2.5,0c11.6-6.9,19.9-16.8,26.7-28.1
		c0.7-1.2,0.4-1.7-1-1.9c-2.1-0.4-4.1-1.2-5.9-2.2c-2.1-1-3.3-3.3-3-5.6c0.5-5.9,4.8-10.4,9.4-12.1c1.9-0.8,4.1-0.6,5.9,0.4
		c3.3,1.7,3.6,1.6,4.9-1.8c5.2-13,6.3-26.6,5.7-40.4c-0.1-1.1-0.3-1.5-1.4-1c-1.4,0.7-2.9,1.2-4.3,1.8c-3.3,1.5-7.2,0.7-9.6-2
		C392.9,434.9,392.4,433.9,391.3,433.4z M433.1,583.3c-2.6-3.1-9.1-7.6-13.5-9.3c-3.7-1.5-7.3-1.9-11.2-0.4c-3.9,1.6-8,2.8-12.2,3.6
		c-12.6,2.4-25.4,3.6-38.2,3.8c-1.5-0.1-2.9,0.6-3.7,1.8c-0.9,1.2-1.6,2.5-2.2,3.8c-1.7,4.2-0.2,7.8,3.9,9.7c1,0.5,1.6,0.6,2.1-0.6
		c2.7-6.6,8.2-9.6,14.7-11.4c0.8-0.3,1.7,0,2.2,0.6c0.6,0.7,0.5,1.8-0.1,2.5c-0.6,0.7-1.3,1.2-2,1.7c-2,1.3-3.7,3-5.1,4.9
		c-2.6,4.1-1.4,9.5,2.7,12.1c0.4,0.2,0.8,0.5,1.2,0.6c1.4,0.6,2.9,0.6,4.3,0.1c0.9-0.5,0-1.9-0.1-2.9c-0.6-8.6,3.7-19.1,15.6-19.4
		c3.1-0.1,6.2-0.2,9.2,0.9c0.8,0.3,1.7,0.6,1.7,1.8c0.1,1-0.6,1.9-1.6,2.2c-0.6,0.2-1.2,0.4-1.9,0.5c-2.3,0.5-4.7,0.5-6.9,1.4
		c-4.6,2-7.4,6.1-6.8,10.3c0.8,5.6,5.1,10.2,9.9,10.8c1.3,0.1,2,0.1,1.9-1.5c-0.4-4.4,1.7-7.9,4.8-10.8c4-3.7,8.9-5.3,14-6.8
		c1.8-0.4,3.5-1.4,4.7-2.8c1.5-1.9,3.6-3.4,5.9-4.2C428.5,585.5,430.7,584.4,433.1,583.3z M309.7,570c-0.4-0.2-0.8-0.5-1.2-0.7
		c-5.6-3.1-11.5-5.4-17-8.7c-1.6-1-3.1-0.6-4.7,0.1c-2.2,1-4.4,2.1-6.7,3c-4.9,2-7.9-0.4-7.4-5.6c0.2-2.2,0.4-4.4,0.8-6.6
		c0.3-1.8-0.3-2.6-1.9-3.3c-6.7-2.9-13.7-5.5-19.2-10.6c-2.3-2.1-5.1-3.6-8.1-4.4c-2.6-0.7-5.1-1.9-7.3-3.4c-0.6-0.5-1.3-0.7-2-0.7
		c-6.2,0.6-12.5,1.2-19.3,1.9c9.8,13.5,21.8,24,36.8,30.6C270.9,569.6,290,571.8,309.7,570z M299.7,449.5c0-0.9,0-1.8,0-2.7
		c0-0.8,0.2-1.7-0.9-2c-0.9-0.2-1.9-0.5-2.8,0.3c-0.4,0.4-0.8,0.8-1.1,1.3c-1.2,2.1-3.2,3.5-5,4.9c-2,1.6-4.1,1.4-6.3-0.2
		c-2.4-1.9-4.5-4.1-6.3-6.5c-0.8-1-1.4-1.1-2.4-0.3c-2.1,1.6-4.3,3.3-6.5,4.8c-5.1,3.4-6.7,2.9-11.1-1.5c-0.5-0.5-1-1.1-1.4-1.7
		c-1.1-1.5-2.2-3-3.1-4.7c-0.9-1.5-2-0.6-3-0.5c-1.2,0.1-0.6,1.1-0.6,1.7c0.1,3,1.3,5.9,1.7,8.9c0.4,3.4,2.4,5,5.3,6.1
		c1.9,0.7,3.7,1.6,4.3-1.5c0.1-0.9,0.9-1.5,1.8-1.4c0.8,0.1,1,0.9,1.1,1.5c0.4,4.3,3.5,6,7,7.6c1.7,0.9,3.7,0.8,5.2-0.2
		c2.4-1.3,3.9-3.5,5.7-5.3c1.2-1.1,1.9-1.2,2.7,0.4c1,2.1,2.3,4,3.9,5.6c2.5,2.6,5.7,2.4,8-0.5C299.1,459.5,299.6,454.5,299.7,449.5
		z M274.3,428c-4.8,0.1-8.2,0.3-12.1,3.3c-4.9,3.8-5.5,5.3-3.1,11.2c1.5,3.6,4.2,4.7,7,2c3.6-3.5,9.6-4.8,10.5-10.9
		c0-0.1,0.2-0.3,0.3-0.4c0.9-1.4,1.6-1,2.2,0.2c0.8,1.5,1.1,3.3,0.6,5c-0.8,3.5,1.2,5.4,3.5,7.1c3.1,2.3,6.1,1.6,8-1.8
		c0.3-0.7,0.6-1.3,0.8-2c0.6-1.7,1-3.4,1.3-5.2c0.1-1.3,1.1-2.3,2.3-2.6c1.4-0.3,1.7,1,2.3,1.8c0.5,0.9,1,1.9,1.3,2.9
		c0.4,0.9,0.8,2,1.9,1.9c0.8-0.1,1-1.2,1.1-2c1.1-5.9,0-11-7.9-9c-0.8,0.2-1.6,0.4-2.4,0.5c-0.8,0.1-1.6,0.4-2.4-0.1
		c-3.5-2.5-7.4-2.8-11.5-1.8C277,428.2,275.6,428.3,274.3,428L274.3,428z M575.3,434.2c0.5,1.2,1.4,1.2,2.1,1.6
		c2.9,1.5,5.8,2.9,8.7,4.5c1.7,0.9,3.2,2.7,4.8,2.7c2,0.1,2.5-2.6,4-3.9c3-2.7,6.2-4.5,10.4-3c2.4,0.9,4.8,1.6,7.2,2.4
		c3.5,1.1,7,1.7,10.4-0.4c2.2-1.4,2.6-2.6,1.6-5.1c-1.5-3.6-4.5-4.4-7.9-3.9c-6.6,0.8-12.1-0.6-16.2-6.3c-1.6-2.1-3.4-2.1-5.8-0.5
		c-2,1.4-3.8,3.1-5.3,5c-2.6,3.1-6,4.7-9.8,5.7C578.1,433.3,576.7,433.7,575.3,434.2L575.3,434.2z M342.3,533
		c-1.5,0.3-2.8,0.6-4.1,0.8c-9.9,1.6-19.8,3.5-29.4-0.6c-4.4-1.9-8.3-2-12.4,0.4c-0.1,0.1-0.3,0.1-0.5,0.2c-1.6,0.4-1.7,1.1-0.4,2
		c3,2,5.1,5.2,5.9,8.7c0.1,0.8,0.8,1.4,1.6,1.4c0,0,0,0,0.1,0c11.7,0.3,23.3-0.5,34.6-4.1c4.2-1.3,4.2-1.3,4.4-5.7
		C342.2,535,342.3,534.1,342.3,533z M297.1,333.2c-1.7-1.1-2.7-1.8-3.9-2.5c-5.7-3.2-11.5-6-18.5-5.4c-4.3,0.4-8.5,1.9-12,4.3
		c-4.6,3.1-8.9,6.7-14.3,8.3c-1.4,0.4-1.1,1.2-0.5,2c0.6,0.9,1.6,1.5,2.7,1.6c3.4,0.3,6.8,0.8,10.1-0.8c2.6-1.2,5.2-2.3,8-3
		C277.7,335.2,287,334,297.1,333.2z M455.6,555.4c-10.8,2.8-20.4,6.9-29.9,11.4c-1.2,0.6-1,1.1,0,1.6c6.4,3.3,12,8,16.3,13.8
		c0.8,1.1,1.6,1,2.2-0.2c0.9-1.6,1.7-3.1,2.6-4.7C450.3,570.2,453.3,562.9,455.6,555.4z M278,398.6c0.6,0.1,1.2,0,1.7-0.4
		c4.6-2.4,9.5-4.2,14.6-5.5c5.3-1.5,5.6-1.9,5.8-7.4c0-0.1,0-0.2,0-0.2c0.3-1.4-0.3-1.7-1.7-1.7c-6.1,0-11.6,2.3-17.1,4.5
		c-4.1,1.6-4,1.7-3.3,6C278.1,395.4,278.1,397,278,398.6z M398.4,410c1.5-0.1,3-0.2,4.5-0.2c2.1,0.1,2.5-0.4,1.7-2.4
		c-3.3-8.2-7.6-15.9-12.8-23c-0.5-0.6-0.7-1.7-1.7-1.5c-0.9,0.2-1.3,1.1-1.7,1.9c-0.4,0.9-0.2,2,0.5,2.7c4.5,6.3,7.3,13.7,8.1,21.5
		C396.9,409.9,397.1,410.4,398.4,410L398.4,410z M187,452.6c-0.8-6.4-1.3-12.8-3.8-18.9c-0.2-0.5,0-1.5-1-1.5
		c-0.8,0-0.8,0.9-1.1,1.5c-2.2,4.7-3.3,9.8-3.3,14.9c0,3.8,0,3.7,3.9,4.4c1.1,0.2,2.2,0.5,3.3,0.9
		C186.5,454.5,187.3,454.4,187,452.6L187,452.6z M461.3,563.6c-2.4,7-5.7,13.6-9,20.2c-0.3,0.7-0.4,1.3,0.5,1.6
		c3,1.2,5.9,2.7,8.5,4.6c1.1,0.8,1.6,0.3,1.4-1c-0.3-2.4-0.4-4.9-0.6-7.3C461.5,575.7,461.6,569.7,461.3,563.6L461.3,563.6z
		 M241.7,432.3c-3.5,4-7,11.7-8.2,17.7c2.8,0.2,5.4,1.2,8.1,1.8c1.9,0.4,2.7-0.2,2.7-2.2c-0.1-4.4-0.5-8.8-1.2-13.2
		C243,435,242.5,433.6,241.7,432.3z M415.3,420.5c-4.4-1.8-9.1-2.8-13.8-3.2c-0.9-0.1-1.8-0.3-2.2,1c-1.1,3.5-1.2,6.9,1.3,9.9
		c0.5,0.6,0.9,1.2,1.8,0.9C407.2,427.1,411.8,424.9,415.3,420.5z M361,542.6c-0.1-3-0.8-6-2-8.7c-0.2-0.7-0.7-1.3-1.4-1.6
		c-2.5-1.1-6.7-0.1-8.3,2c-0.8,1.2-1.8,2.8-0.7,4c2.6,2.9,5.5,5.5,9.5,6.5C361.1,545.5,361.1,545.5,361,542.6z M280.9,553.3
		c0.5,0.8-0.7,2.7,1.3,2.6c3.1-0.2,9.7-6.2,10.5-9.2c0.5-1.8-0.8-4.3-2.7-5.2c-1.7-0.8-5.2-0.1-6,1.5
		C282.4,546.2,281.4,549.7,280.9,553.3z M403.6,495.1c0.7-0.1,1.5-0.2,2.3-0.3c0.6-0.1,1.4,0.3,1.7-0.5c0.2-0.6-0.5-1-0.8-1.4
		c-2.6-3.1-5.8-5.5-9.5-7.1c-2.3-1.1-5.1-0.1-6.2,2.2c-0.2,0.3-0.3,0.7-0.3,1c-0.4,1.8,0,3.3,2,4.1
		C396.2,494.3,399.9,494.9,403.6,495.1L403.6,495.1z M390.7,368.2c-4.2,0.4-7.9,1.5-11.1,3.9c-0.7,0.5-1.3,0.9-0.6,1.9
		c1.1,1.9,2.4,3.7,4,5.2c0.9,0.7,1.6,0.8,2.4-0.2C388,375.8,389.8,372.1,390.7,368.2z M214.8,448.5c0.6-2.1-0.4-2.9-2.8-2.4
		c-1.6,0.3-3.2,0.5-4.8,0.8c-0.5,0.1-1.1,0.1-1.1,1c-0.2,2.3,1.8,5.5,3.7,5.6C213.2,453.8,214.8,452.4,214.8,448.5z M203.5,452.5
		c-0.1-3.4-0.6-4.8-1.8-4.4c-2.1,0.8-5.5-0.4-5.9,2.6c-0.4,3.2,2.5,6.2,5,6.2C202.6,456.8,203.5,455.2,203.5,452.5L203.5,452.5z
		 M264.5,537.3c2.3,2.6,4.9,3.3,7.4,4.3c4.3,1.7,4.3,1.7,5.9-2.7c0-0.1-0.1-0.3-0.1-0.5C273.5,538.1,269.3,537.7,264.5,537.3
		L264.5,537.3z M222.4,450.6c1.5,0,3-0.6,2.7-2.9c-0.2-1.3-0.1-3.5-2.3-3.2c-1.6,0.2-4-0.4-4.4,1.8
		C217.9,448.8,219.8,450.6,222.4,450.6z M369.3,360.7c-1.1-0.1-1.1,0.6-0.5,1.5c1.5,2.5,3.5,4.5,5.5,6.6c0.8,0.9,1.6,0,2.3-0.5
		c1-0.7,0.2-1.2-0.3-1.7c-1.6-1.6-3.2-3.2-4.9-4.8C370.9,361.2,370.4,360.6,369.3,360.7z M267.1,394.9c-3.9,1.4-3.9,1.4-1,4.1
		C266.8,397.7,267.1,396.3,267.1,394.9z M275.6,392.6c0.1-0.9-0.3-1.2-0.9-1.2c-1.2,0-1.5,0.7-1.5,1.7c0,0.7,0.2,1.1,0.9,1.1
		C275.3,394.2,275.4,393.2,275.6,392.6L275.6,392.6z"/>
	<path id="Path_260" class="st1" d="M518.4,412.4c4.7,3,8.8,5.8,13.1,8.4c15.3,9.2,31.2,17.4,47.2,25.5c4.6,2.3,9.3,4.6,12.9,8.2
		c3.4,3.4,6.3,7.2,8.9,11.3c4.6,7.2,7.4,15.2,10.3,23.2c3.1,8.6,7.1,16.5,13.8,22.8c4.5,4,9.3,7.7,14.4,10.9c1.6,1,3.2,2,4.8,3
		c8,5.1,12.7,12,12.3,21.8c-0.3,7.8,1.1,15.4,3.2,22.9c0.9,3.2,2.5,6.2,3.7,9.3c1.7,4.5,3.1,9.1,3.3,14c0,2.3-0.2,4.6-0.7,6.8
		c-0.3,1.6-0.9,2-2.2,0.9c-1.5-1.2-3.3-1.8-5.2-1.8c-1.2-0.1-2.3,0.1-2.8,1.4c-0.6,1.4-0.1,2.3,0.9,3.2c4.6,4,7.6,8.7,7.6,15
		c0,5.7-3.3,9.5-8.9,10.4c-1.8,0.4-3.7,0.5-5.6,0.2c-5.7-1-10.8,0.8-15.7,3.5c-2,1.1-4,2.2-5.9,3.4c-2.7,1.7-5.7,1.9-8.7,1.5
		c-2.3-0.2-4.4-1.6-5.5-3.6c-3.5-5.6-1.8-13,3.8-16.5c0.4-0.3,0.9-0.5,1.4-0.7c3.3-1.7,6.9-2.5,10.6-2.5c2.6,0.1,5.2,0,7.8-0.1
		c1.1,0,1.4-0.4,0.9-1.5c-0.9-1.9-2.6-3.3-4.6-3.8c-7.9-2.1-15.8-2.1-23.4,1.5c-2.2,1-3.9,2.7-5,4.9c-2.9,5.7-4.5,11.6-3.5,17.9
		c0.3,2-0.4,2.6-2.3,2.7c-3,0.1-5.9,0.3-8.7-0.9c-8.3-3.6-10.7-10.2-7.3-18.7c1.5-3.9,4.4-7.2,8.1-9.2c0.8-0.4,2.4-0.8,1.8-2.1
		c-0.5-1.2-1.9-0.9-3.1-0.7c-9.5,1.5-16.1,8-17.6,17.5c-0.2,1.2-0.4,2.4-0.6,3.6c-3.6-1.6-6.2-6.8-5.6-11.3c0.5-3.7,2.2-6.8,5.6-8.1
		c6.5-2.6,12.7-6.2,19.5-7.9c7.8-1.9,15.7-1.5,23.5,0.4c1.6,0.4,3.9,1.5,4.8,0.1c0.9-1.5-1.1-3-2.3-4.1c-1.8-1.6-1.8-3-1-5.1
		c2.6-7.1,2.8-14.9,0.6-22.1c-0.5-1.7-0.1-2,1.5-1.6c1.9,0.5,3.8,0.8,5.8,1c2.7,0.2,3.7-1.1,3.2-3.8c-0.6-3.1-2.9-4.7-5.7-5.5
		c-4.9-1.3-10-1.8-15-1.4c-12.6,0.8-25.1,0-36.4-6.2c-6.8-3.6-12.9-8.4-17.9-14.3c-0.6-0.7-0.9-1.6-0.9-2.5
		c0.9-10.1-1.2-19.8-3.3-29.5c-2.8-12.7-8.8-23.8-16.4-34.1c-5.5-7.4-11.1-14.7-17.8-21.1c-1.6-1.6-2.7-3.6-3.3-5.8
		c-3.3-11.2-7.9-21.8-15.6-30.8c-1.1-1.4-2.4-2.7-3.8-3.8c-0.7-0.5-1.4-1.1-2.2-0.6c-0.9,0.5-0.4,1.5-0.2,2.2c0.6,2.5,1.6,4.8,2.9,7
		c3.2,5.3,5.9,10.9,8.1,16.7c1.2,3.3,1.1,3.3-2.2,4.4c-1.2,0.4-2.3,0.8-3.4,1.3c-1.8,0.8-1.9,1.9-0.8,3.5c1.9,2.7,4.6,4.6,6.8,7
		c11.5,11.9,21.4,25.1,31.5,38.1c4,5.1,5.2,11.4,6.6,17.5c2,9,2.7,18.2,3,27.5c0.5,11.4-2.6,22.3-6.3,32.9
		c-1.9,5.4-3.4,10.9-5.6,16.1c-4.5,10.4-8.3,21.3-16.4,29.7c-2.6,2.7-5.6,5-9,6.7c-5.1,2.5-9.9,0.8-14.8-0.6
		c-4.5-1.2-8.2-3.9-11.8-6.8c-0.6-0.5-1.2-1.3-2.1-0.8c-0.9,0.5-0.8,1.5-0.6,2.4c0.4,1.9,1.4,3.7,2.8,5.1c5.1,5.4,11.7,9.2,19,10.9
		c-3.9,4.6-9,7.9-14.7,9.6c-10.7,3.5-21.5,3.3-32.4,1.3c-1.5-0.4-3.1-0.2-4.4,0.6c-7.7,4.6-15.8,4.6-24.1,2.1
		c-6.3-2-8.7-5.3-9.1-11.8c-0.2-4.1,3.2-8.9,7.9-11.1c5.2-2.4,10.8-2.9,16.4-3.4c0.7,0,1.3-0.1,1.9-0.2c1.2-0.4,1.6-1.1,0.9-2.4
		c-2.1-3.8-7.5-6.4-12.2-5.7c-6.8,0.9-13.1,3.7-18.3,8.2c-1.7,1.4-2.4,0.9-3.3-0.7c-1.7-3.3-0.8-8.3,2.3-10.4
		c8.3-5.5,17.2-7.1,26.9-4.4c0.9,0.3,2,1.4,2.8,0.2c0.6-1.1,0.6-2.4,0-3.5c-0.3-0.6-0.7-1.3-1.2-1.8c-0.4-0.5-0.9-1-1.4-1.6
		c1.1-0.6,2.3-0.8,3.6-0.6c5.8,0.3,11.5,1.9,16.6,4.5c1,0.4,1.6,1.3,1.6,2.4c0.2,4.3,1.4,8.4,3.4,12.1c1.1,1.8,2.7,4.3,4.8,3.4
		c1.9-0.9,0.7-3.5,0.2-5.4c-0.3-1-0.7-2-0.8-3.1c-0.5-3.5,0.2-4.1,3.5-2.9c1.1,0.4,2.1,1.2,3.3,1.6c1.9,0.7,2.8-0.1,2.6-2
		c-0.2-2.3-0.6-4.5-1.1-6.8c-1.5-6.9-2-14.1-1.5-21.2c0.6-8-0.9-16-0.9-24c0-4.3-0.2-8.6,0.6-13c2,0.4,2.4,2.1,3.3,3.4
		c0.6,1,0.8,2.8,2.3,2.4c1.2-0.3,1.7-1.9,1.8-3.3c0.2-4-0.8-7.6-3.7-10.5c-2.3-2.4-5.3-3.7-8.2-5.4c-8.4-4.8-16.1-10.5-21.6-18.8
		c-0.3-0.4-0.4-1.2-1.1-1.1c-0.8,0.1-0.8,1-0.8,1.6c-0.4,3.4,1,6.4,2.1,9.5c0.4,1.1,1,2.2,1.7,3.9c-3.8-1.3-6.7-2.9-8.7-5.9
		c-1-1.6-1.7-3.3-2.6-5c-0.3-0.6-0.4-1.5-1.4-1.4c-0.8,0.1-1.4,0.6-1.6,1.4c-0.4,0.9-0.6,1.9-0.7,2.8c-0.1,1.6,0,3.1,0.1,4.6
		c0.4,4.5,0.5,4.5-3.8,6.1c-7,2.7-16.3,0.3-21.2-5.5c-0.9-1.2-2-2.2-3.2-3.1c-1.2-0.8-1.8-0.3-2,1c-0.2,1.1,0.1,2.3,0.8,3.3
		c6.6,9.2,14.8,15.4,26.9,14c3.3-0.4,5.6-2.5,8.2-4.1c0.8-0.5,1.4-1.3,2.4-0.9c4.7,2,9.8,1.7,14.7,2.1c4.4,0.4,6.2,2.8,7.3,6.5
		c1.6,5.4,1.6,5.4-3.8,6.8c-12.2,3.1-23.5,8.4-34.7,13.8c-4.8,2.3-9.7,4.4-14.4,6.6c-11.8,5.6-24.3,8-37.2,8.2
		c-13,0.2-26-0.2-38.6-3.8c-11.2-3.2-22.4-6.5-32.3-13.2c-0.7-0.4-2.1-0.7-1.6-1.8c0.3-0.8,1.6-0.7,2.5-0.6
		c15.5,0.9,30.6-1.6,45.3-6.5c1.1-0.4,2.3-0.2,3.1,0.5c4.1,2.7,8.3,5.2,13.4,5.7c2.1,0.2,3.2-0.6,3.8-2.5c1.2-3.6,0.8-7.3,0.1-10.9
		c-0.4-2,0.1-3,1.9-4c13.5-7.7,24.4-19.2,31.5-33.1c0.4-1.1,1.6-1.9,2.8-1.7c2.9,0.1,5.9,0.4,8.8-0.6c3.6-1.2,4.7-3.6,3-7
		c-1.3-2.4-3.2-4.6-5.4-6.3c-1-0.7-1.4-2-0.9-3.1c5.1-16.2,7.3-33.2,6.4-50.2c-0.1-1.5,0.4-3.1,1.5-4.2c2.1-2.3,4-4.8,5.9-7.2
		c1.5-2,1.2-3.8-0.7-5.3c-2.2-1.6-4.7-2.5-7.2-3.6c-1.1-0.4-1.9-1.2-2.3-2.3c-3.8-11.6-10.1-21.9-17.7-31.4c-1-1.2-1.3-2.2-0.4-3.7
		c1.6-2.7,2.6-5.6,3.2-8.7c0.3-2.2-0.3-3.5-2.8-3.9c-3.3-0.6-6.7-0.1-9.8,1.4c-1.3,0.8-3,0.5-4-0.6c-1.4-1.3-2.8-2.7-4.2-4.1
		c-1.2-1.2-0.9-1.7,0.7-1.9c3.5-0.4,6.9-1.1,10.3-2.1c4.6-1.4,8.9-3.3,11.9-7.3c3-3.9,3-7.7,0.1-11.7c-2.5-3.4-8.3-5.9-11.8-4.1
		c-4.3,2.3-8.3,1.5-12.1-1.5c-2.3-1.8-4.5-3.8-6.4-6c-1-1.2-1.3-1.9,0.7-2.4c9.7-2.5,19.7-4.1,29.7-4.9c6-0.5,12.1-0.5,18.1-0.1
		c12.8,1,24.1,5.8,34.6,13.1c12.1,8.4,21.1,19.7,29.7,31.3c15,20.1,26,43,32.2,67.3c0.6,2.1,0.8,4.3,1.3,6.5
		c0.2,1.2,0.5,2.2,2.1,2.3c1.7,0.1,1.8-1.1,2.1-2.2c1.3-4.9,0.6-9.9,0-14.8C519.4,418.3,518.9,415.6,518.4,412.4z"/>
	<path id="Path_261" class="st2" d="M377.4,467.3c-1-8-0.8-16-1.1-24c-0.1-3.1-0.8-6.1-1.2-9.2c0-0.4,0-1.1-0.7-1.1
		c-0.7-0.1-0.7,0.6-0.9,1c-1.6,3.9-2.8,8-3.6,12.2c-0.2,1.6-0.8,3.1-1.8,4.4c-5-7.7-10.4-15.1-16.2-22.2c-9.6-12-20.4-23-32.1-32.9
		c-3.7-3-6.4-7.1-7.8-11.8c-1-3.5-3.7-6.2-7.1-7.2c-4.1-1.2-8.4-1.4-12.6-0.4c-6.3,1.2-11.7,4.4-17.1,7.7c-6.6,4.1-13,8.8-20.8,10.7
		c-2.3,0.6-4.5,0.6-6.6-0.9c-2.8-2-3.8-4.9-2.5-8.1c1.3-3.2,3.6-5.6,6.3-7.7c7-5.7,15-9.5,23.5-12.5c2.6-0.9,5.3-1.8,7.9-2.7
		c1-0.4,2.2-0.8,2-2.1c-0.2-1.3-1.5-1.6-2.7-1.6c-3,0.1-6,0.7-8.9,1.6c-6.1,2-12,4.7-17.6,7.9c-0.8,0.5-1.5,1.2-2.7,1.2
		c0.2-2.2,1.3-4,2-6c0.4-1.2,1.1-2.8,0.1-3.4c-1-0.7-2.5,0.3-3.5,1.1c-0.9,0.8-1.6,1.8-2,3c-2.6,6.4-5.5,12.8-7.8,19.3
		c-2.3,6.3-6.8,9.5-13,10.9c-2.7,0.7-5.6,0.4-8.2-0.7c-2.6-1-4.3-3.5-4.4-6.2c-0.2-2.8,1.1-4.8,3.5-6.2c1.8-1.2,3.7-2.1,5.7-2.8
		c5.3-1.4,8.5-5.2,11.1-9.7c1.5-2.5,3.1-5,4.5-7.6c2.4-4.1,6-7.4,10.2-9.6c10-5.6,20.9-8.8,32.1-10.8c8.2-1.3,16.5-2,24.9-2
		c1.9,0.1,3.8,0.4,5.6,1c-2.3,1.1-4.4,0.7-6.2,1.4c-1.4,0.5-1.9,1.1-1.3,2.7c2.2,5.4,4.4,6.6,10,5.2c4.3-1.2,8.3-3.5,11.5-6.7
		c6.7-6.2,13.8-12.1,21.1-17.5c2.6-1.9,5.4-1.8,8.1-0.6c2.7,1.2,5.1,3.1,6.9,5.3c2.7,3.2,4.9,6.8,8.5,9c4.5,2.7,9.3,4.1,14.2,1
		c0.2-0.1,0.4-0.3,0.7-0.3c1.4-0.2,2.9-1.6,4.2-0.1c1.5,1.7,1.4,4.2-0.2,5.8c-3.7,4.3-8.5,7-14.2,7.3c-8,0.4-15.8-0.6-22.5-5.8
		c-2.9-2.1-5-5-6.2-8.3c-0.6-1.4-1.5-2.7-2.6-3.8c-0.4-0.4-0.8-1-1.4-0.6c-0.4,0.3-0.3,0.9-0.2,1.4c0.1,0.6,0.3,1.3,0.6,1.9
		c1.9,3.2,1.3,6.4,0.5,9.7c-0.4,1.7-0.9,3.5-1.3,5.2c-0.1,0.5-0.9,1,0,1.5c0.5,0.2,1.2,0.1,1.6-0.3c0.7-0.6,1.3-1.3,2-1.8
		c1.6-1.3,2.9-1.1,3.8,0.7c2.6,5,4.7,10.3,6.4,15.6c1,3.5,2.7,6.7,5,9.5c0.6,0.7,1.2,1.5,2.2,1.3c1.1-0.3,0.8-1.5,0.8-2.3
		c0-2.8-0.3-5.5-0.5-8.4c0.2,0,0.5,0,0.6,0.1c8.7,9.2,15.7,19.6,20.1,31.4c3.2,8.6,2.8,17.8-0.6,26.6c-1.7,4.4-3.9,8.6-4,13.5
		c0,2.1,0.2,4.2,0.7,6.3C384,453.3,382.2,461.2,377.4,467.3z M307.4,369c2.3,0.1,5.6,0,8.2,2.7c2.6,2.7,1.5,5.6,1,8.5
		c-0.3,1.5-0.3,3.4,1.2,4.2c1.4,0.8,3-0.1,4.3-1.1c0.5-0.3,0.9-0.7,1.2-1.2c4.6-7.4,3.3-17.7-7-20.3c-6.4-1.6-12.7-0.7-18.8,1.2
		c-10.5,3.2-18.9,9.8-26.6,17.4c-0.7,0.7-1.7,1.6-1,2.5c0.7,1,1.9,0.3,2.8-0.3c3.1-1.8,6.1-3.8,9.2-5.6
		C289.4,372.7,297.3,369.2,307.4,369z M336.1,377.2c0.3-1.6-0.7-3.6-1.5-5.7c-0.7-2-1.8-3.9-3.1-5.5c-0.6-0.7-1.4-1.4-2.3-1
		s-0.8,1.6-0.5,2.5c0.4,1.1,1,2.2,1.5,3.3c1.6,3.5,1.9,6.9-0.9,10c-1,1.1-1.8,2.3-0.7,3.7c1,1.3,2.5,1,3.8,0.5
		C335.7,383.7,335.9,380.8,336.1,377.2L336.1,377.2z"/>
	<path id="Path_262" class="st2" d="M193.2,445c-0.7-4.6-1.4-9.2-2.1-13.8c-0.1-0.5,0-1,0.3-1.4c3.6-4.4,7.3-8.8,12.6-11.5
		c1.9-0.9,2.8-0.6,3.7,1.4c1.2,3.2,2.6,6.3,4.3,9.3c0.7,1.1,1.5,2.1,2.9,1.8c1.5-0.2,1.1-1.7,1.2-2.6c0.7-3.5,0.7-7.2,2.7-10.3
		c1.5-2.3,3.3-3.9,6.3-3.9c3.6-0.1,7.4,0.6,10.7-1c7.5-3.6,14.5-1.4,21.4,1.6c1.1,0.5,2.3,0.7,3.5,0.5c3.9-0.8,7.6-2,10.5-4.9
		c0.4-0.4,1-0.8,0.7-1.4c-0.3-0.7-1-0.4-1.5-0.3c-10,2.2-19.7-0.2-29.4-1.8c-0.5,0-0.9-0.2-1.3-0.6c-2.6-3.1-6.1-3.8-9.9-4
		c-0.5-0.1-1-0.2-1.6-0.4c4.2-1.2,8.2-3.2,11.7-5.9c0.7-0.6,1.4-0.2,2,0.3c4.4,4.1,9.6,4.5,15.1,2.9c0.9-0.3,2,0,2.5,0.8
		c4.9,5.6,11.3,7.2,18.4,4.5c5.5-2.1,11-4.2,16.9-5c3.7-0.5,6.2,1.6,8.3,3.8c6.3,6.7,10,15.3,10.5,24.5c0.6,7.6,0.4,15.2,2.5,22.6
		c0.4,1.7,0.9,3.3,1.7,4.8c0.4,0.7,0.7,1.6,1.8,1.4c0.9-0.3,1.3-1.1,1.6-2c1.2-4.7,2-9.6,2.3-14.5c0.3-4,0.3-7.9,0-11.9
		c1.9,0.2,2.6,1.7,3.6,2.8c4.2,5,7.8,10.5,10.9,16.2c0.9,1.7,2.1,3.3,3.5,4.7c0.5,0.6,1.4,0.9,2.2,0.7c0.8-0.3,0.4-1.3,0.3-1.9
		c-0.5-6.9-3.4-12.9-7.2-18.5c-3.7-5.5-8.2-10.4-12.8-15.1c-5.5-5.7-11.2-11.3-15.9-17.6c-1.2-1.6-2.2-3.3-1.8-5.4
		c0.4-1.9,1.2-2.3,2.6-0.9c5.4,5.5,11.1,10.7,16,16.6c6.3,7.6,13.5,14.5,19.3,22.5c5.9,8.3,13.1,15.7,18.4,24.5
		c4.7,8,7.1,17.1,7,26.4c-0.2,2.9-0.8,5.7-1.9,8.3c-2.5,6.7-5.9,12.9-10.3,18.6c-2.9,3.7-6.7,6.6-11.1,8.2
		c-10.7,4.2-21.8,4.8-33,2.9c-8.9-1.6-12.5-6.2-13.2-15.3c-0.2-4.4,0.2-8.8,1.3-13.1c1.5-6.7,3.4-13.3,5.6-19.8
		c3.2-9.2,4-18.6,4.6-28.2c0.5-8.7,0-17.5-1.8-26.1c-1.1-5.4-5.7-10-11.3-10.7c-5.9-0.7-11.5,0.2-16.6,3.6
		c-6.1,4.1-11.5,9.2-17.2,13.8c-4.6,3.7-10,5-15.5,6.1c-1,0.2-1.3-0.2-1.4-1.1c-0.1-1.6-0.4-3.2-0.7-4.8c-0.6-2.6-1.7-3-4.1-1.7
		c-3.1,1.9-5.6,4.5-7.9,7.3c-1,1.1-1.9,2.3-2.6,3.6c-2.5,5.1-7,5.2-11.7,5c-3.6,0-6.9-1.9-8.7-5.1c-0.9-1.7-1.8-1.2-2.6,0.2
		c-2.5,4.3-3.5,4.6-7.8,1.9c-1.4-0.9-2.2-1-2.5,0.9c-0.2,0.9-0.4,1.7-0.7,2.6C197.4,443.1,196.5,444,193.2,445z M203,428.8
		c0-1.5-1.2-2.7-2.7-2.6c0,0-0.1,0-0.1,0c-2,0.1-2.7,1.6-2.7,3.4c0,1.6,0.5,2.9,2.4,2.9C201.8,432.6,203.1,431.2,203,428.8z
		 M223.5,429.8c0.2,1.7,1.1,2.7,2.6,2.6c1.5,0.1,2.8-1.1,2.9-2.7c0-0.1,0-0.2,0-0.3c0-1.6-1.2-2.5-2.8-2.4
		C224.5,427.1,223.6,428.1,223.5,429.8L223.5,429.8z M249.7,419.2c1.6-0.2,2.4-1,2.3-2.6c-0.1-1.6-0.8-2.8-2.5-2.8
		c-1.5,0-3,0.8-2.9,2.7C246.9,418.3,248.1,419.2,249.7,419.2L249.7,419.2z M236.5,421.9c1.5,0,2.5-0.8,2.5-2.3
		c0.2-1.1-0.6-2.1-1.7-2.3c-0.2,0-0.3,0-0.5,0c-1.6,0-2.7,0.8-2.8,2.4C234.1,421.1,235.2,421.8,236.5,421.9L236.5,421.9z
		 M223.1,420.7c0,1.6,0.6,2.6,2.1,2.6c1.6,0,2.3-1.1,2.4-2.6c0-1.2-0.9-2.3-2.2-2.3c-0.1,0-0.1,0-0.2,0
		C223.6,418.3,223.2,419.5,223.1,420.7L223.1,420.7z M254.7,425.3c0-1.3-0.5-2.2-1.9-2.3c-1.5-0.1-2.2,0.8-2.4,2.2
		c-0.3,1.1,0.4,2.2,1.5,2.4c0.2,0,0.3,0.1,0.5,0.1C253.9,427.8,254.5,426.7,254.7,425.3L254.7,425.3z M264.4,419
		c-0.1-1.5-1.2-1.9-2.3-1.9c-1.3-0.1-2,0.8-2.2,2.1c-0.1,1.4,0.9,1.8,2,1.9c1.2,0.2,2.3-0.7,2.5-1.9
		C264.4,419.1,264.4,419.1,264.4,419L264.4,419z"/>
	<path id="Path_263" class="st2" d="M179.6,497.3c2.5,1.1,4.7,2.7,6.6,4.7c4.6,4.7,9.7,9.1,15,12.9c2,1.5,4.1,2.6,6.5,3.4
		c1.4,0.4,3.1,1,4-0.5c0.9-1.5-0.4-2.7-1.4-3.8c-4.6-4.8-8.1-10.5-10.2-16.8c-0.5-1.5-0.6-3-1.1-4.5c-0.6-2,0.5-2.8,2.1-3.4
		c2.7-0.9,5.5-1.4,8.4-1.5c8.8-0.6,17.2,1.5,25.7,3.1c1.2,0.2,2.5,0.8,3.4-0.4c0.8-1.1,0-2.1-0.5-3.1c-1-1.7-0.3-2.7,1.5-3.1
		c3.2-0.7,6.3-0.3,9.5,0.3c3.7,0.7,7.3,1.8,11.1,2c0.8,0,2,0.4,2.4-0.7c0.4-0.9-0.3-1.7-0.8-2.5c-1-1.2-2.3-2.1-3.8-2.5
		c-12.1-4.8-24.7-5.8-37.6-4.2c-7.4,1-14.5,3.3-21.1,6.9c-5.4,2.8-11,5.4-17.3,6c-5.8,0.6-11.2-0.5-15.8-4.4
		c-6.1-5.1-5.9-15.3,0.1-20.6c3.9-3.4,8.2-5.2,13.4-3.9c0.6,0.1,1.1,0.3,1.6,0.6c3.5,1.7,3.7,2.5,1.4,5.7c-2.9,4.2-6.3,7.9-11,10.2
		c-0.6,0.3-1.7,0.5-1.4,1.4c0.3,0.9,1.3,0.8,2.1,0.8c1.6,0,3.3-0.4,4.7-1c5.7-2.6,10.8-6.4,16.3-9.5c18.5-10.5,37.6-12.2,57.3-3.6
		c2.1,0.9,3.7,2.6,5.4,4.1c4.9,4.3,9.5,8.8,14.4,12.9c5,4.2,10.8,6.5,17.5,5c0.5-0.1,1,0,1.5-0.1c1.2-0.2,1.7,0,1.4,1.5
		c-0.9,4.9-1.8,9.8-1.5,14.8c0.3,5.6,0.5,11.1,2.4,16.4c0.5,1.4,0,1.8-1.3,2.1c-10.8,2.9-22.1,3.7-33.3,2.2
		c-3.4-0.4-6.8-1.1-10.2-1.6c-6.7-0.9-12.1-4.1-16.7-8.9c-2.7-2.8-5.4-5.5-7.8-8.5c-0.7-0.9-1.4-2.5-3.1-1.4c-1.5,1-1.1,2.4-0.6,3.7
		c1.6,4.6,4.4,8.5,7.4,12.3c2.7,3.5,2.8,3.8-1.6,4.4c-10.9,1.5-21.9,2.3-32.2-2.8c-6.4-3.1-12.1-7-13-15
		C179.3,503.6,179.6,500.6,179.6,497.3z"/>
	<path id="Path_264" class="st2" d="M205.3,607.1c-0.7-3.4-2.1-6.7-3.9-9.6c-1.6-2.5-3.2-5-5.6-6.8c-2-1.5-4.3-2.4-6.8-2.5
		c-1.7-0.1-2.9,0.4-3.6,1.9c-0.6,1.4,0,3.1,1.5,3.7c0,0,0,0,0,0c2.8,1.5,4.5,4,6,6.7c2.6,4.4,2.6,9.9,0.2,14.3
		c-2.4,4.6-6.7,5.8-11.7,6c-7.5,0.3-14.2-7.7-14.2-15.2c0.1-1.7,0.3-3.4,0.7-5.1c0.2-1,0.7-2.1-0.5-2.9c-1.1-0.7-2.6-0.7-3.7,0.1
		c-1.4,1-2.5,2.4-3.1,4c-0.4,0.8-0.6,1.6-1.9,1.5c-1.2-0.1-1.6-0.8-2-1.8c-0.7-2.2-2.1-4.1-4-5.4c-1.3-0.8-2.6-1.2-3.9-0.2
		c-1.2,0.9-0.8,2.2-0.6,3.4c1.2,6.8-1.5,12.1-7.5,14.4c-3.1,1.2-6,0-8.7-1.3c-6-2.9-9.2-7.9-9.1-14.7c0-2.8,1.9-5.2,4.6-5.9
		c1.7-0.4,3.4-0.6,5.1-0.6c2.1-0.1,2.8-1,2.2-3c-0.6-2-1.5-3.9-3.4-4.9c-1.6-0.9-1.9-2.1-1.6-3.7c0.4-2.1,1.4-4.1,2.9-5.5
		c8.5-8.4,18.6-12.6,30.7-10.2c3.3,0.7,6.7,1.5,9.2,4.1c1.2,1.3,2.8,1.4,4.5,1.1c3.6-0.6,7.3-0.6,11,0.1c3.4,0.5,6.3,2.5,8.1,5.4
		c1.1,1.9,2,3.6,0,5.6c-1.5,1.5-0.5,3.1,0.9,4.2c1.1,0.9,2.4,1.5,3.7,1.8c6.8,2.1,11.6,12.1,6.4,19.3
		C206.8,606.3,206.1,606.9,205.3,607.1z"/>
	<path id="Path_265" class="st2" d="M211.2,539.3c-3,0.5-5.6,0.8-8.2,1.3c-8.5,1.8-13.2,7.9-16.8,15.2c-1.2,2.3-1.5,5.5-3.6,6.8
		c-1.9,1.2-4.9,0.8-7.4,1.3c-1.6,0.3-2.5,0.1-3.1-1.6c-1.4-4-5.2-5.4-8.7-6c-10-1.9-20.3-0.1-29,5.1c-0.7,0.4-1.5,1.5-2.3,1
		c-0.8-0.5-0.3-1.7-0.2-2.5c1-22.8,8-43.3,22.3-61.3c0.7-0.9,1.4-1.8,2.2-2.6c3.8-4.1,4.1-4.1,9-1.6c1,0.7,2.2,1.2,3.3,1.5
		c3.2,0.4,3.4,2.4,2.8,4.8c-1.1,5.2-1,10.6,0.2,15.8c1,4.7,4.4,7.7,8.4,10c6.4,3.6,13.6,5.3,20.9,5c3.6-0.1,6.1,0.8,7.6,4.1
		C209.4,536.8,210.3,538.1,211.2,539.3z"/>
	<path id="Path_266" class="st3" d="M391.3,433.4c1.1,0.5,1.6,1.4,2.3,2.2c2.4,2.7,6.3,3.5,9.6,2c1.4-0.6,2.9-1.2,4.3-1.8
		c1.1-0.5,1.4-0.2,1.4,1c0.6,13.8-0.5,27.4-5.7,40.4c-1.4,3.4-1.7,3.5-4.9,1.8c-1.8-1-4-1.1-5.9-0.4c-4.6,1.7-8.9,6.2-9.4,12.1
		c-0.3,2.3,0.9,4.6,3,5.6c1.9,1,3.9,1.8,5.9,2.2c1.3,0.3,1.7,0.7,1,1.9c-6.8,11.4-15.1,21.3-26.7,28.1c-0.7,0.5-1.7,0.5-2.5,0
		c-1.3-0.8-2.7-1.5-4.2-2c-1.9-0.6-2-1.5-0.7-2.8c4.8-4.8,7.6-11,10.8-16.8c2.3-4.4,4-9.1,5.1-14c1.4-6.2,4.6-11.4,8.3-16.3
		c4.7-6.2,7.5-13.7,7.9-21.5c0.1-2.9-0.3-5.7-1-8.5C389,442.1,388.9,437.7,391.3,433.4z"/>
	<path id="Path_267" class="st4" d="M433.1,583.3c-2.4,1.1-4.6,2.2-6.9,3.1c-2.3,0.8-4.4,2.3-5.9,4.2c-1.2,1.4-2.9,2.4-4.7,2.8
		c-5,1.4-10,3.1-14,6.8c-3.1,2.9-5.2,6.3-4.8,10.8c0.1,1.6-0.6,1.7-1.9,1.5c-4.8-0.5-9.1-5.1-9.9-10.8c-0.6-4.2,2.2-8.2,6.8-10.3
		c2.2-1,4.6-0.9,6.9-1.4c0.6-0.1,1.3-0.3,1.9-0.5c1-0.3,1.6-1.2,1.6-2.2c0-1.2-0.9-1.5-1.7-1.8c-3-1.1-6.1-1-9.2-0.9
		c-12,0.3-16.2,10.7-15.6,19.4c0.1,1,1,2.4,0.1,2.9c-1.4,0.6-2.9,0.6-4.3-0.1c-4.4-1.9-6.5-7-4.6-11.5c0.2-0.4,0.4-0.8,0.6-1.2
		c1.4-1.9,3.1-3.6,5.1-4.9c0.7-0.5,1.4-1.1,2-1.7c0.7-0.7,0.7-1.7,0.1-2.5c-0.5-0.7-1.4-0.9-2.2-0.6c-6.5,1.8-12,4.8-14.7,11.4
		c-0.5,1.2-1.1,1.1-2.1,0.6c-4.1-1.9-5.6-5.5-3.9-9.7c0.6-1.4,1.3-2.6,2.2-3.8c0.8-1.2,2.2-1.9,3.7-1.8c12.8-0.1,25.6-1.4,38.2-3.8
		c4.2-0.8,8.3-2,12.2-3.6c3.9-1.5,7.5-1.1,11.2,0.4C424,575.7,430.5,580.1,433.1,583.3z"/>
	<path id="Path_268" class="st2" d="M309.7,570c-19.7,1.8-38.9-0.3-57-8.3c-15-6.6-27-17-36.8-30.6c6.8-0.7,13-1.3,19.3-1.9
		c0.7-0.1,1.5,0.2,2,0.7c2.2,1.6,4.7,2.7,7.3,3.4c3,0.8,5.8,2.3,8.1,4.4c5.5,5.1,12.5,7.7,19.2,10.6c1.6,0.7,2.2,1.5,1.9,3.3
		c-0.4,2.2-0.6,4.4-0.8,6.6c-0.6,5.3,2.4,7.6,7.4,5.6c2.3-0.9,4.4-2,6.7-3c1.5-0.7,3-1.1,4.7-0.1c5.4,3.3,11.4,5.6,17,8.7
		C309,569.5,309.3,569.7,309.7,570z"/>
	<path id="Path_269" class="st5" d="M299.7,449.5c-0.1,5-0.6,10-3.8,14.1c-2.2,2.8-5.4,3-8,0.5c-1.6-1.6-2.9-3.5-3.9-5.6
		c-0.8-1.6-1.6-1.5-2.7-0.4c-1.9,1.8-3.3,4-5.7,5.3c-1.6,1-3.6,1-5.2,0.2c-3.5-1.6-6.6-3.3-7-7.6c-0.1-0.6-0.3-1.4-1.1-1.5
		c-0.9-0.1-1.6,0.5-1.8,1.4c-0.6,3.1-2.4,2.2-4.3,1.5c-2.9-1.1-4.9-2.7-5.3-6.1c-0.4-3-1.6-5.8-1.7-8.9c0-0.6-0.7-1.7,0.6-1.7
		c1-0.1,2.2-1,3,0.5c0.9,1.6,2.1,3.1,3.1,4.7c0.4,0.6,0.9,1.2,1.4,1.7c4.4,4.5,6,5,11.1,1.5c2.2-1.5,4.4-3.1,6.5-4.8
		c1-0.8,1.6-0.6,2.4,0.3c1.8,2.4,4,4.6,6.3,6.5c2.1,1.6,4.2,1.9,6.3,0.2c1.8-1.5,3.8-2.8,5-4.9c0.3-0.5,0.7-0.9,1.1-1.3
		c0.8-0.8,1.8-0.5,2.8-0.3c1.1,0.3,0.9,1.2,0.9,2C299.7,447.7,299.7,448.6,299.7,449.5z"/>
	<path id="Path_270" class="st5" d="M274.3,428c1.3,0.3,2.7,0.3,4,0c4.1-1,7.9-0.7,11.5,1.8c0.8,0.5,1.6,0.2,2.4,0.1
		c0.8-0.1,1.6-0.2,2.4-0.5c7.9-2.1,8.9,3.1,7.9,9c-0.1,0.7-0.3,1.9-1.1,2c-1.1,0.1-1.5-1-1.9-1.9c-0.4-1-0.8-2-1.3-2.9
		c-0.5-0.8-0.8-2.1-2.3-1.8c-1.3,0.3-2.2,1.3-2.3,2.6c-0.3,1.8-0.8,3.5-1.3,5.2c-0.2,0.7-0.5,1.4-0.8,2c-1.9,3.3-5,4.1-8,1.8
		c-2.3-1.7-4.4-3.6-3.5-7.1c0.4-1.7,0.2-3.5-0.6-5c-0.6-1.2-1.4-1.6-2.2-0.2c-0.1,0.1-0.2,0.3-0.3,0.4c-0.9,6.1-6.9,7.4-10.5,10.9
		c-2.8,2.7-5.5,1.6-7-2c-2.4-5.8-1.8-7.4,3.1-11.2C266,428.3,269.5,428.1,274.3,428z"/>
	<path id="Path_271" class="st6" d="M575.3,434.2c1.4-0.4,2.8-0.8,4.2-1.2c3.8-1,7.2-2.6,9.8-5.7c1.5-1.9,3.3-3.6,5.3-5
		c2.4-1.6,4.3-1.6,5.8,0.5c4.1,5.6,9.6,7.1,16.2,6.3c3.4-0.4,6.4,0.3,7.9,3.9c1,2.5,0.6,3.7-1.6,5.1c-3.4,2.2-6.9,1.6-10.4,0.4
		c-2.4-0.8-4.8-1.6-7.2-2.4c-4.2-1.5-7.4,0.3-10.4,3c-1.4,1.3-2,4-4,3.9c-1.6-0.1-3.2-1.9-4.8-2.7c-2.9-1.5-5.8-3-8.7-4.5
		C576.7,435.4,575.8,435.3,575.3,434.2z"/>
	<path id="Path_272" class="st3" d="M342.3,533c-0.1,1.2-0.1,2.1-0.2,3c-0.2,4.4-0.2,4.4-4.4,5.7c-11.3,3.6-22.9,4.4-34.6,4.1
		c-0.8,0.1-1.6-0.5-1.7-1.3c0,0,0,0,0-0.1c-0.8-3.6-2.9-6.7-5.9-8.7c-1.3-0.9-1.2-1.6,0.4-2c0.2,0,0.3-0.1,0.5-0.2
		c4.1-2.4,8-2.2,12.4-0.4c9.6,4.1,19.6,2.2,29.4,0.6C339.5,533.5,340.8,533.2,342.3,533z"/>
	<path id="Path_273" class="st7" d="M297.1,333.2c-10.1,0.8-19.4,2-28.5,4.5c-2.7,0.8-5.4,1.8-8,3c-3.3,1.6-6.7,1.1-10.1,0.8
		c-1.1-0.1-2-0.7-2.7-1.6c-0.6-0.8-0.8-1.6,0.5-2c5.5-1.6,9.8-5.2,14.3-8.3c3.6-2.5,7.7-4,12-4.3c6.9-0.6,12.7,2.3,18.5,5.4
		C294.3,331.4,295.4,332.1,297.1,333.2z"/>
	<path id="Path_274" class="st7" d="M455.6,555.4c-2.3,7.5-5.3,14.8-8.8,21.9c-0.8,1.6-1.7,3.2-2.6,4.7c-0.7,1.2-1.4,1.2-2.2,0.2
		c-4.4-5.7-9.9-10.4-16.3-13.8c-1-0.5-1.2-1,0-1.6C435.2,562.3,444.8,558.1,455.6,555.4z"/>
	<path id="Path_275" class="st8" d="M278,398.6c0.1-1.6,0.1-3.2,0-4.8c-0.6-4.4-0.8-4.5,3.3-6c5.5-2.1,11-4.5,17.1-4.5
		c1.4,0,2,0.3,1.7,1.7c0,0.1,0,0.2,0,0.2c-0.3,5.6-0.5,6-5.8,7.4c-5.1,1.3-9.9,3.1-14.6,5.5C279.2,398.6,278.6,398.7,278,398.6z"/>
	<path id="Path_276" class="st9" d="M398.4,410c-1.3,0.4-1.5-0.1-1.6-0.9c-0.8-7.7-3.6-15.1-8.1-21.5c-0.7-0.7-0.9-1.8-0.5-2.7
		c0.4-0.8,0.8-1.7,1.7-1.9c1-0.2,1.3,0.9,1.7,1.5c5.3,7.1,9.6,14.8,12.8,23c0.8,2,0.4,2.5-1.7,2.4
		C401.4,409.8,399.9,409.9,398.4,410z"/>
	<path id="Path_277" class="st8" d="M187,452.6c0.3,1.8-0.5,1.9-1.9,1.4c-1.1-0.4-2.2-0.7-3.3-0.9c-3.9-0.7-3.9-0.7-3.9-4.4
		c-0.1-5.2,1-10.3,3.3-14.9c0.3-0.5,0.2-1.4,1.1-1.5c1,0,0.7,1,1,1.5C185.7,439.7,186.2,446.2,187,452.6z"/>
	<path id="Path_278" class="st8" d="M461.3,563.6c0.3,6.1,0.2,12.1,0.7,18.1c0.2,2.4,0.4,4.9,0.6,7.3c0.2,1.3-0.3,1.8-1.4,1
		c-2.6-1.9-5.5-3.4-8.5-4.6c-0.8-0.3-0.8-0.9-0.5-1.6C455.6,577.2,458.9,570.6,461.3,563.6z"/>
	<path id="Path_279" class="st8" d="M241.7,432.3c0.8,1.2,1.3,2.6,1.4,4.1c0.7,4.4,1.1,8.8,1.2,13.2c0,2-0.8,2.6-2.7,2.2
		c-2.7-0.6-5.3-1.6-8.1-1.8C234.6,444,238.2,436.4,241.7,432.3z"/>
	<path id="Path_280" class="st8" d="M415.3,420.5c-3.5,4.5-8.1,6.6-12.9,8.5c-0.9,0.4-1.3-0.3-1.8-0.9c-2.5-3-2.5-6.4-1.3-9.9
		c0.4-1.3,1.3-1,2.2-1C406.2,417.6,410.9,418.7,415.3,420.5z"/>
	<path id="Path_281" class="st5" d="M361,542.6c0,2.9,0,2.9-2.8,2.2c-4-1-6.9-3.6-9.5-6.5c-1.1-1.2-0.2-2.8,0.7-4
		c1.6-2.2,5.8-3.1,8.3-2c0.7,0.3,1.1,0.9,1.4,1.6C360.2,536.7,360.9,539.6,361,542.6z"/>
	<path id="Path_282" class="st5" d="M280.9,553.3c0.4-3.6,1.5-7.1,3.2-10.3c0.7-1.6,4.2-2.3,6-1.5c1.9,0.9,3.2,3.4,2.7,5.2
		c-0.8,3-7.4,9-10.5,9.2C280.2,556,281.4,554.1,280.9,553.3z"/>
	<path id="Path_283" class="st8" d="M403.6,495.1c-3.7-0.1-7.4-0.8-10.9-2c-2-0.8-2.4-2.3-2-4.1c0.6-2.5,3-4.1,5.5-3.5
		c0.3,0.1,0.7,0.2,1,0.3c3.7,1.6,6.9,4,9.5,7.1c0.3,0.4,1,0.8,0.8,1.4c-0.3,0.8-1.1,0.4-1.7,0.5C405.1,494.9,404.2,495,403.6,495.1z
		"/>
	<path id="Path_284" class="st8" d="M390.7,368.2c-0.9,4-2.8,7.7-5.4,10.8c-0.8,1.1-1.5,1-2.4,0.2c-1.6-1.5-3-3.2-4-5.2
		c-0.6-1-0.1-1.4,0.6-1.9C382.8,369.7,386.5,368.6,390.7,368.2z"/>
	<path id="Path_285" class="st8" d="M214.8,448.5c-0.1,3.9-1.6,5.3-5,5c-1.9-0.1-3.9-3.3-3.7-5.6c0.1-0.8,0.6-0.9,1.1-1
		c1.6-0.3,3.2-0.5,4.8-0.8C214.4,445.7,215.4,446.4,214.8,448.5z"/>
	<path id="Path_286" class="st8" d="M203.5,452.5c0.1,2.7-0.9,4.3-2.7,4.3c-2.5,0-5.4-3-5-6.2c0.4-3,3.9-1.8,5.9-2.6
		C202.8,447.7,203.4,449.1,203.5,452.5z"/>
	<path id="Path_287" class="st9" d="M264.5,537.3c4.8,0.4,9,0.8,13.2,1.1c0,0.2,0.1,0.4,0.1,0.5c-1.6,4.4-1.6,4.4-5.9,2.7
		C269.5,540.6,266.8,539.9,264.5,537.3z"/>
	<path id="Path_288" class="st8" d="M222.4,450.6c-2.6,0-4.4-1.8-4-4.3c0.4-2.2,2.8-1.6,4.4-1.8c2.2-0.3,2.1,1.9,2.3,3.2
		C225.4,450,223.8,450.6,222.4,450.6z"/>
	<path id="Path_289" class="st9" d="M369.3,360.7c1.1-0.2,1.6,0.5,2.1,1c1.6,1.6,3.3,3.2,4.9,4.8c0.5,0.5,1.3,1,0.3,1.7
		c-0.7,0.5-1.5,1.4-2.3,0.5c-1.9-2.1-4-4.1-5.5-6.6C368.2,361.3,368.2,360.6,369.3,360.7z"/>
	<path id="Path_290" class="st8" d="M267.1,394.9c0,1.4-0.3,2.8-1,4.1C263.2,396.3,263.2,396.3,267.1,394.9z"/>
	<path id="Path_291" class="st8" d="M275.6,392.6c-0.2,0.7-0.2,1.6-1.5,1.6c-0.7,0-0.9-0.5-0.9-1.1c0-1,0.3-1.8,1.5-1.7
		C275.3,391.3,275.7,391.7,275.6,392.6z"/>
	<path id="Path_292" class="st10" d="M307.4,369c-10.1,0.2-17.9,3.7-25.5,8.1c-3.1,1.8-6.1,3.8-9.2,5.6c-0.9,0.5-2.1,1.2-2.8,0.3
		c-0.7-0.9,0.3-1.8,1-2.5c7.6-7.7,16-14.3,26.6-17.4c6.1-1.8,12.4-2.7,18.8-1.2c10.3,2.5,11.5,12.8,7,20.3c-0.3,0.5-0.7,0.9-1.2,1.2
		c-1.3,1-2.8,1.9-4.3,1.1c-1.5-0.8-1.5-2.7-1.2-4.2c0.5-3,1.6-5.9-1-8.5C313,369,309.6,369.1,307.4,369z"/>
	<path id="Path_293" class="st10" d="M336.1,377.2c-0.2,3.6-0.4,6.5-3.7,7.8c-1.3,0.5-2.8,0.8-3.8-0.5c-1.1-1.4-0.3-2.6,0.7-3.7
		c2.8-3.1,2.5-6.5,0.9-10c-0.5-1.1-1.1-2.2-1.5-3.3c-0.3-0.8-0.4-2,0.5-2.5c0.9-0.5,1.7,0.3,2.3,1c1.3,1.7,2.4,3.5,3.1,5.5
		C335.4,373.6,336.3,375.6,336.1,377.2z"/>
	<path id="Path_294" class="st10" d="M203,428.8c0.1,2.4-1.2,3.8-3,3.8c-2,0-2.4-1.3-2.4-2.9c0-1.8,0.7-3.4,2.7-3.4
		C201.7,426.1,202.9,427.3,203,428.8C203,428.8,203,428.8,203,428.8z"/>
	<path id="Path_295" class="st10" d="M223.5,429.8c0.2-1.6,1-2.7,2.7-2.8c1.6-0.1,2.7,0.8,2.8,2.4c0.1,1.5-1,2.9-2.5,3
		c-0.1,0-0.2,0-0.3,0C224.5,432.4,223.6,431.4,223.5,429.8z"/>
	<path id="Path_296" class="st10" d="M249.7,419.2c-1.7-0.1-2.8-1-3-2.6c-0.1-1.8,1.3-2.6,2.9-2.7c1.6,0,2.4,1.2,2.5,2.8
		C252.1,418.3,251.3,419.1,249.7,419.2z"/>
	<path id="Path_297" class="st10" d="M236.5,421.9c-1.4-0.1-2.5-0.7-2.5-2.2c0-1.6,1.2-2.4,2.8-2.4c1.1-0.1,2.1,0.7,2.3,1.8
		c0,0.2,0,0.3,0,0.5C239,421.1,238.1,421.8,236.5,421.9z"/>
	<path id="Path_298" class="st10" d="M223.1,420.7c0.1-1.1,0.5-2.4,2.1-2.3c1.2,0,2.3,0.9,2.3,2.2c0,0.1,0,0.1,0,0.2
		c0,1.4-0.8,2.6-2.4,2.6C223.7,423.3,223,422.3,223.1,420.7z"/>
	<path id="Path_299" class="st10" d="M254.7,425.3c-0.2,1.4-0.7,2.5-2.2,2.4c-1.1,0-2-0.8-2.1-2c0-0.2,0-0.3,0.1-0.5
		c0.2-1.4,0.9-2.3,2.4-2.2C254.2,423.1,254.7,424,254.7,425.3z"/>
	<path id="Path_300" class="st10" d="M264.4,419c-0.1,1.2-1.2,2.2-2.4,2.1c0,0-0.1,0-0.1,0c-1.1-0.1-2.1-0.5-2-1.9
		c0.1-1.3,0.8-2.2,2.2-2.1C263.2,417.1,264.3,417.5,264.4,419z"/>
</g>
</svg>
