<?xml version="1.0" encoding="utf-8"?>
<!-- Generator: Adobe Illustrator 25.2.1, SVG Export Plug-In . SVG Version: 6.00 Build 0)  -->
<svg version="1.1" id="Layer_1" xmlns="http://www.w3.org/2000/svg" xmlns:xlink="http://www.w3.org/1999/xlink" x="0px" y="0px"
	 viewBox="0 0 92 16" style="enable-background:new 0 0 92 16;" xml:space="preserve">
<style type="text/css">
	.st0{fill:#FECF31;}
</style>
<g id="Group_83" transform="translate(-246.103 -436.138)">
	<path id="Path_4" class="st0" d="M321,442.8c0.3,0.2,0.5,0.4,0.8,0.7c0.9,0.3,2.5,0.4,3,1c0,0.2-1.1,1.2-1.3,1.1
		c-2.3-0.1-3.5-1.3-6.1-1.5c-0.2-0.1-0.9,0.6-1.5,1c0,0,0.2,0.1,0.5,0.1c-0.9,0.6-2.5,0.5-3.7,1c0.2,0.1,0.3,0.1,0.5,0.2
		c-1.1-0.6-3.2,0-4.7,0.4c-0.3,0-0.5-0.1-0.8-0.2c-1.5,0.3-3,0.7-4.4,1.2c-1.4,0.5-3.6,0.4-5.5,0.8c-0.9,0.1-1.7,0.1-2.6,0l-2.6-0.1
		c-0.8,0-1.7,0-2.5,0.1c-0.8,0.1-1.6,0.3-2.4,0.6c-0.8,0.2-1.6,0.1-2.3-0.3c-2,1.4-5.5,0.7-8.1,0.2c-0.8-0.1-1.4-0.6-1.8-1.3
		c-2.7,0.3-5.3,0.1-7.9-0.4l-1.3-0.2L265,447c-0.8-0.2-1.6-0.3-2.4-0.5c-1.7-0.4-3.3-0.9-5-1.6c-0.6-0.2-1.3-0.2-2-0.1l-0.6-0.5
		c-2-0.4-4.1-0.3-5.8-1c-2.3-1-2.2-2.5-2.2-3.9c2.8-0.3,5.9-2,9.6-0.1c1,0.6,2.8,0.5,4.2,0.7c1.2,0,2.3,1,3.5,0.4
		c2,1.8,4.5,2.8,7.2,3c0.2,0.2-0.1,0.2,0.3,0.4c3.8-0.3,7.7,0.5,11.9,0.4c2.1-0.2,4.5,0.3,7.1-0.3c0.2-0.1,1.3,0.2,2,0.1
		c0.2-0.1,0.5-0.2,0.7-0.4c1.8-0.1,3.8-0.5,5.2-0.2c1.4,0,2.9,0,4.3-0.2c2,0,5.2-1.2,7.1-0.6c0.5,0,0.9-0.1,1.4-0.2l0.7,0.2
		c0.5-0.1,0.6-0.7,1.1-0.7c3-0.4,6.6-1.2,8.3,0C321.4,442,320.5,442.4,321,442.8z"/>
	<path id="Path_5" class="st0" d="M333.5,443.1c-0.1,0.2,0.4,0.2,0.7,0.1c-0.3-0.3-0.7-0.4-1-0.5l0.8-0.1c0.3-0.6-0.8,0-0.4-0.3
		c0.5,0,0.8,0,0.7,0.3c-0.1-0.1-0.3,0-0.6,0c0,0.4,0.5,0.4,0.8,0.6l-1.3,0.2L333.5,443.1z"/>
	<path id="Path_6" class="st0" d="M330.6,443.1h0.3c0.1-0.2-0.2-0.3-0.5-0.4c1.2,0.1,0.1,0.7,0.9,0.9
		C331.2,443.4,330.5,443.3,330.6,443.1z"/>
	<path id="Path_7" class="st0" d="M331.9,441.8c0.6,0.4,1-0.1,1.2,0.4l-1.4-0.3L331.9,441.8z"/>
	<path id="Path_8" class="st0" d="M323.3,443.7c-0.4,0.2-0.2,0.1-0.8,0.2L323.3,443.7L323.3,443.7z"/>
	<path id="Path_9" class="st0" d="M305,446.8c0.6,0.3,1.2,0.4,1.9,0.3C306.2,447.2,305.6,447,305,446.8z"/>
	<path id="Path_10" class="st0" d="M296.5,446.2c0-0.2-0.3-0.2,0.1-0.3c0.2,0.1,0,0.5,0.5,0.2L296.5,446.2z"/>
	<path id="Path_11" class="st0" d="M295.7,445.4l-0.4-0.3C295.3,445.1,295.5,445.3,295.7,445.4z"/>
	<path id="Path_12" class="st0" d="M318.8,445.8L318.8,445.8c-0.1-0.1-0.1,0-0.2,0C318.7,445.8,318.7,445.8,318.8,445.8z"/>
	<path id="Path_13" class="st0" d="M317.5,445.8l0.9,0.2c0.1-0.1,0.1-0.1,0.2-0.1C318,445.8,318.1,445.5,317.5,445.8z"/>
	<path id="Path_14" class="st0" d="M318.6,445.6l0.1,0.2c0.7-0.4,1.1,0.2,2.2-0.2C320.1,445.4,319.3,445.4,318.6,445.6z"/>
	<path id="Path_15" class="st0" d="M319.4,445.1l0.3-0.3c0.3,0,0.3,0.2,0.3,0.3l0.5-0.2c0.2-0.4-1.6-0.1-2-0.1L319.4,445.1z"/>
	<path id="Path_16" class="st0" d="M324.1,441L324.1,441L324.1,441L324.1,441z"/>
	<path id="Path_17" class="st0" d="M322.3,440.5l0,0.6c0.7-0.2,0.9,0.2,1.7-0.1l0,0C323.7,440.5,323,440.9,322.3,440.5z"/>
	<path id="Path_18" class="st0" d="M316.3,445.3c0.7-0.1,1.3-0.2,1.4-0.6l-1.4,0.1C317,445,316.4,445.1,316.3,445.3z"/>
	<path id="Path_19" class="st0" d="M315,444.4l0.6-0.1l-0.3-0.1C315.3,444.2,315.2,444.3,315,444.4z"/>
	<path id="Path_20" class="st0" d="M315.3,444.1c0-0.1-0.1-0.2-0.3-0.2L315.3,444.1z"/>
	<path id="Path_21" class="st0" d="M316.5,443.4c-0.5-0.3-0.4,0.1-1.1,0.2C315.4,444,316.1,443.4,316.5,443.4z"/>
	<path id="Path_22" class="st0" d="M313.5,443.7l-0.3-0.3l0,0.4L313.5,443.7z"/>
	<path id="Path_23" class="st0" d="M308.5,446.6c0.6-0.5-0.5-0.3-0.6-0.5L308.5,446.6z"/>
	<path id="Path_24" class="st0" d="M312.5,442.9l0.3,0.4l0.1-0.2c0.2,0,0.5-0.1,0.6,0C313.6,442.6,312.9,442.9,312.5,442.9z"/>
	<line id="Line_2" class="st0" x1="309.9" y1="444.5" x2="309.2" y2="444.3"/>
	<path id="Path_25" class="st0" d="M313.9,441.2c0-0.2-1.1-0.5,0.1-0.6c-0.5,0-1.1,0.2-0.8-0.2c-0.7,0.1,0,0.4-0.4,0.7
		C313.1,440.8,313.5,441.1,313.9,441.2z"/>
	<path id="Path_26" class="st0" d="M312,441.1c-0.4,0-0.8-0.1-1,0.1C311.4,441.2,311.8,441.5,312,441.1z"/>
	<path id="Path_27" class="st0" d="M311.5,440.2l0.6,0.3l-0.4-0.4L311.5,440.2z"/>
	<line id="Line_3" class="st0" x1="304.9" y1="444.5" x2="305.1" y2="445"/>
	<path id="Path_28" class="st0" d="M309.4,440.6l1.3-0.3l-1.2,0c-0.7,0.4-0.3,0.5,0.2,0.5C309.6,440.7,309.5,440.7,309.4,440.6z"/>
	<path id="Path_29" class="st0" d="M310.9,441l0.4-0.2c0-0.1-0.6,0-1.1,0C310.5,440.8,310.8,440.9,310.9,441z"/>
	<path id="Path_30" class="st0" d="M310.2,440.8l-0.4,0C309.9,440.8,310,440.8,310.2,440.8z"/>
	<path id="Path_31" class="st0" d="M301.8,445.3l1.2-0.1C302.6,445.1,302.2,445.1,301.8,445.3z"/>
	<path id="Path_32" class="st0" d="M308.4,440.2l-0.2,0l0,0.4C308.6,440.6,308.4,440.3,308.4,440.2z"/>
	<path id="Path_33" class="st0" d="M306.7,439.7c-0.4-0.2-1,0.2-1.3,0.3c0.5,0.2,1,0.2,1.5,0.1C306.3,440.1,306.7,439.9,306.7,439.7
		z"/>
	<path id="Path_34" class="st0" d="M305,439.4l1.1-0.2C305.8,438.8,305.5,439.3,305,439.4z"/>
	<path id="Path_35" class="st0" d="M303.3,439.9c-0.1,0.1,0,0.2-0.2,0.3c0.2,0.2,0.5,0,0.8,0L303.3,439.9z"/>
	<path id="Path_36" class="st0" d="M313.5,442.5c-0.3,0.1-0.6,0.2-0.9,0.2c0.5,0,0.9,0,1.4,0C313.8,442.7,313.7,442.6,313.5,442.5z"
		/>
	<path id="Path_37" class="st0" d="M252,444.6c1.5-0.4,4.1,0.1,5.6,0.3c2.3,0.6,5.4,0.5,8.2,1l-0.1,0.2c0.6,0.2,1.1,0.4,1.7,0.5
		c0.6,0.1,1.3,0.2,1.9,0.3l2,0.3c0.7,0.1,1.3,0.1,1.9,0.2l-0.1-0.3c-0.4-0.1-0.9-0.2-0.6-0.5c0.5,0.1,1,0.3,1.4,0.6l0.5-0.3
		c0.3,0.2-0.1,1,0.9,0.9c0.7-0.7,2.1,0.9,2.3-0.1c0.3,0.6,1.3,0.2,1.8,0.3l-0.3-0.5c1,0.3,1.9,1.1,2.4,1h2.1c0.8,0,1.5-0.1,2.2-0.2
		c0.3,0.6-1.4,0-0.6,0.5c0.7-0.2,1.4-0.3,2.1-0.3c0.8,0,1.6,0.1,2.4,0.1s1.7,0.1,2.5,0.1c0.8,0,1.6-0.1,2.4-0.2
		c-0.1,0-0.4-0.1-0.2-0.2c0.6,0.4,1.4-0.1,2.5,0c-0.1-0.2-0.5-0.2-0.9-0.3s-0.9,0-1.1,0c0.2-0.9,0.3,0.2,1.5-0.2
		c-0.1,0-0.3-0.1-0.3-0.2c1.2-0.3,0.5,0.5,1.5,0.2l-0.6-0.2c0.9-0.1,0.3-0.2,1.3-0.5c-0.1,0.5,0.5,0.8,0.7,0.8
		c0.1-0.2,1.1-0.2,1-0.6c1.4,0.8,1.6-0.5,2.9,0.2c0.5-0.5-0.6-0.4-0.6-0.7c1.2-0.5,0.5,0.4,1,0.5c0.8-0.4,1.8-0.6,2.7-0.5l0-0.4
		c1.1,0.2,2.9-0.1,3.3,0.3c0.3-0.6-0.5-0.4-1.2-0.3c-0.2-0.2,0.5-0.5,0.9-0.5c-0.2,0-0.3-0.2-0.5,0c-0.1-0.3,0.4-0.2,0.6-0.3
		c1.3-0.1-0.4,0.3,0.1,0.4c0.4-0.2,1.6-0.4,1.1-0.7c1-0.2,0.5,0.4,1,0.5c-0.8-0.2-1,0.6-1.6,0.3c-0.2,0.2-0.1,0.3,0.2,0.4
		c0.8-0.3,2.5-0.2,2.4-0.7l0.5,0.2l0.3-0.4l0.2,0.1c-0.5-0.4-1.3-0.5-1.7-0.9c-0.1-0.2,0.4-0.2,0.7-0.3l0.3,0.4
		c0.7,0,0.4-0.8,1.4-0.9c-0.5,0.6,1.2,0.6,2,0.8c0.6-1-0.2-0.7,0.3-1.6c0.9-0.3,1.8-0.4,2.7-0.5c-2.1,0.4,1.1,0.4-0.5,1.1
		c0.3,0,0.7-0.1,1-0.2c0.4,0.7-0.4,0.7,0.2,1.1l0.1-0.5c0.6,0.4,1.3,0.7,2,0.7c0.2-0.4,0.6-0.6,1-0.6c0.2,0.3,0.3,0.4,1.2,0.3
		c1.6-1.2-2-0.9-2.5-1.7c-2.6,0.2-3.1-1.9-6.3-1.8c-0.4,0.4-0.2,0.4-1.1,0.8c-0.5,0.9,1.5,0.4,2.2,0.8c-0.3,0.2-0.5,0.4-0.8,0.3
		l0.4,0.5c-1.4,0.5-1-0.6-2.2-0.2l0.3-0.2l-0.7,0.3l0.2,0.1c-0.5,0.1-0.5,0.5-1.3,0.5l0.5-0.4c-0.3,0.3-0.6-0.3-1.1,0
		c0.3-0.3,0.3-0.5,0.5-0.6c-0.8-0.1-1.6,0-2.4,0.1c-2.4,0.7-4.9,1-7.4,0.9c0.1,0.1,0.2,0.1,0.3,0.1c-0.3,0.1-0.7,0.1-1-0.2
		c-0.5,0-0.9,0-1.4-0.1c-1,0.2-1.9,0.4-2.9,0.5c-0.1-0.3,0-0.4,0.1-0.4c-0.4,0.1-0.7,0.2-0.2,0.4c-0.5,0-1.1,0-1.6-0.1l1.2-0.6
		c-0.5-0.1-0.5,0.4-1.2,0.3c-1.1,0.2,0.5,0.4,0.4,0.8c-0.2,0-0.3,0-0.5,0l0.5,0.5c-0.7-0.1-1.4-0.3-2-0.8l0.7,0.1
		c0.2-0.6-1.2,0-1.5-0.3l0.1,0c-1.1,0,0.3,0.3-0.5,0.4l-1.3-0.5l0.2,0.4c-0.8,0.3-2.3-0.3-3.5-0.4c-0.9,0-1.7,0.1-2.6,0.2
		c0.2,0.1,0.5,0.2,0.4,0.3c-0.6,0-1.8-0.1-1.3-0.5l-0.8,0.3c-0.2,0-0.5-0.1-0.7-0.2l0.2,0.2l-0.9,0.1c0-0.1-0.3-0.3,0.1-0.3
		c-1-0.5-2.4,0.3-4-0.1l0.5-0.2c-1,0.2-1-0.5-2.1-0.3l0.2,0.3c-0.8,0.1-2.1-0.5-1.9-0.7c-0.2,0.8-0.4-0.3-0.9,0.3l-0.3-0.8
		c-0.5,0.1-1,0.2-0.7,0.6c-0.7-0.5-1.3-0.6-1.8-0.2c0,0,0,0,0,0l0,0v0c-0.2,0-0.9-0.2-0.6,0.1c-1.7-0.4-0.8-0.8-2.4-1.2l-0.2,0.5
		c-1.2-0.3-2.4-0.3-3.6-0.2l0-0.5c-0.7,0,0,0.5-1,0.3c-0.1-0.1-0.2-0.3-0.2-0.4c-1-0.2-2.2-0.8-3.7-1.2c0-0.1,0.2-0.1,0.3-0.1
		c-0.8-0.1-1.6-0.2-2.5-0.2c-1.8-1.3-3.9-2.2-6.1-2.6c-2,0.6-3.4,1.6-3.9,2.8C248.3,442.2,249.9,443.4,252,444.6z"/>
</g>
</svg>
