<?xml version="1.0" encoding="utf-8"?>
<!-- Generator: Adobe Illustrator 25.2.1, SVG Export Plug-In . SVG Version: 6.00 Build 0)  -->
<svg version="1.1" id="Layer_1" xmlns="http://www.w3.org/2000/svg" xmlns:xlink="http://www.w3.org/1999/xlink" x="0px" y="0px"
	 viewBox="0 0 1200 465" style="enable-background:new 0 0 1200 465;" xml:space="preserve">
<style type="text/css">
	.st0{opacity:0.849;}
	.st1{fill:#E4E4E4;}
</style>
<g id="Group_94" transform="translate(-16.576 -161.567)" class="st0">
	<path id="Path_244" class="st1" d="M35.6,178.7c19.9-5,393.5-5.2,413.3-0.7c-1.6,25.7-24,49.1-47.8,49.1
		c-106,0.1-212.1-0.1-318.1,0.3c-13.7,0.1-23.2-3.9-29.8-16.2C47.8,200.9,36.9,193.4,35.6,178.7z"/>
	<path id="Path_245" class="st1" d="M384.7,471.6c0,45.1,0.1,90.2-0.1,135.3c-0.1,20.8-1.2,21.6-21.9,22.3c-32.3,1.1-33,0.6-33-30.9
		c-0.1-86.6-0.1-173.2,0-259.8c0-30.4,1.3-31.6,31.1-31.5c21.4,0.1,23.7,1.9,23.8,22.9C384.9,377.1,384.7,424.4,384.7,471.6z"/>
	<path id="Path_246" class="st1" d="M277.7,468.6c0,45.2,0.1,90.4,0,135.6c-0.1,24.1-1.1,25-25.8,25.1c-1.4,0-2.9,0-4.3,0
		c-21.8-0.4-23.5-1.7-23.5-23.2c-0.2-68.9-0.1-137.7-0.1-206.6c0-23.7-0.3-47.3,0.2-71c0.4-18.4,3.3-20.9,21.5-21.5
		c3.6-0.1,7.2,0,10.8,0.2c18.8,1,20.9,2.6,21.1,21.6c0.3,46.6,0.1,93.3,0.1,139.9H277.7z"/>
	<path id="Path_247" class="st1" d="M168.9,469.6c0,45.1,0.1,90.2-0.1,135.3c-0.1,22.9-1.7,24.1-24.6,24.3c-2.1,0-4.3,0-6.4,0
		c-20.3-0.6-21.7-1.7-21.7-22.5c-0.1-91.6-0.1-183.2,0-274.8c0-22.5,2.2-24.4,24.5-24.8c1.4,0,2.9,0,4.3,0c21.6,0.3,23.6,2.1,24,23
		c0.2,10,0,20,0,30.1C168.9,396.6,168.9,433.1,168.9,469.6z"/>
	<path id="Path_248" class="st1" d="M75.3,243c14.4-4.8,303.4-5,329.4-0.3c6,27.5-5.6,42.9-32.5,42.9c-84.6,0.1-169.2,0.1-253.7,0.1
		C89.9,285.7,78.1,274,75.3,243z"/>
</g>
</svg>
