<?xml version="1.0" encoding="utf-8"?>
<!-- Generator: Adobe Illustrator 21.0.2, SVG Export Plug-In . SVG Version: 6.00 Build 0)  -->
<!DOCTYPE svg PUBLIC "-//W3C//DTD SVG 1.1//EN" "http://www.w3.org/Graphics/SVG/1.1/DTD/svg11.dtd">
<svg version="1.1" id="Layer_1" xmlns="http://www.w3.org/2000/svg" xmlns:xlink="http://www.w3.org/1999/xlink" x="0px" y="0px"
	 viewBox="0 0 232 65" style="enable-background:new 0 0 232 65;" xml:space="preserve">
<style type="text/css">
	.st0{fill:#65666A;}
	.st1{fill:#FAE200;}
	.st2{fill:#58C3B6;}
</style>
<g>
	<g>
		<path class="st0" d="M66.2,40.7c-2.2,2.2-5,3.2-8.1,3.2c-7.9,0-11.2-5.4-11.2-10.9s3.6-11.2,11.2-11.2c2.9,0,5.6,1.1,7.8,3.2
			l-2.7,2.6c-1.4-1.4-3.3-2-5.1-2c-5.1,0-7.3,3.8-7.3,7.4c0,3.5,2.1,7.2,7.3,7.2c1.8,0,3.9-0.8,5.3-2.2L66.2,40.7z"/>
		<path class="st0" d="M69.3,43.4V22.2h4v21.2H69.3z"/>
		<path class="st0" d="M83,25.8h-6.7v-3.6c6.1,0,11.3,0,17.5,0v3.6H87v17.6h-4V25.8z"/>
		<path class="st0" d="M104.8,30.9l5.6-8.8h4.8v0.2l-8.5,12.3v8.8h-4v-8.8l-8.2-12.3v-0.2h4.8L104.8,30.9z"/>
		<path class="st0" d="M135.2,28.3c0,1.6-0.8,3.2-2.8,4.1c2.5,0.8,3.4,3.4,3.4,4.7c0,4.7-3.5,6.2-7.9,6.2c-3.4,0-6.7,0-10.1,0V22.2
			c3.3,0,6.7,0,10.1,0C132.1,22.2,135.2,24,135.2,28.3z M121.8,30.7h6.1c2.5,0,3.3-1.1,3.3-2.3c0-1-0.8-2.6-3.3-2.6h-6.1
			C121.8,25.8,121.8,30.7,121.8,30.7z M121.8,39.6h6.1c1.6,0,4-0.5,4-2.5c0-1.9-2.3-2.9-4-2.9h-6.1
			C121.8,34.2,121.8,39.6,121.8,39.6z"/>
		<path class="st0" d="M158.5,43.4H154l-6.2-7.1h-4.1v7.1h-4V22.1c3.4,0,6.7,0,10.1,0c5,0,7.6,3.4,7.6,7c0,2.9-1.3,5.9-5.4,6.7
			l6.4,7.2L158.5,43.4L158.5,43.4z M143.8,25.9v6.8h6.1c2.5,0,3.6-1.7,3.6-3.4c0-1.7-1.1-3.4-3.6-3.4
			C149.9,25.9,143.8,25.9,143.8,25.9z"/>
		<path class="st0" d="M161.8,43.4V22.2h4v21.2H161.8z"/>
		<path class="st0" d="M189.8,32.6c0.1,5.4-3.2,10.8-10.6,10.8c-2.6,0-5.7,0-8.3,0V22.2c2.6,0,5.7,0,8.3,0
			C186.4,22.2,189.7,27.3,189.8,32.6z M174.8,39.5h4.4c4.8,0,6.7-3.5,6.6-7c-0.1-3.3-2-6.6-6.6-6.6h-4.4V39.5z"/>
		<path class="st0" d="M209,27.3c-1.4-1.4-3.5-2.1-5.4-2.1c-4.5,0-7.3,3.5-7.3,7.8c0,3.5,2,7.1,7.3,7.1c1.7,0,3.1-0.4,4.8-1.7v-3.8
			H203V31h9.1v9c-2.1,2.4-4.7,3.8-8.5,3.8c-8,0-11.2-5.2-11.2-10.8c0-6,3.7-11.5,11.2-11.5c2.8,0,5.7,1.1,7.9,3.2L209,27.3z"/>
		<path class="st0" d="M232,43.4h-15.9c0-7.1,0-14.2,0-21.2H232V26h-11.9v4.9h11.5v3.7h-11.5v4.8H232V43.4z"/>
	</g>
	<g>
		<g>
			<polygon class="st1" points="30.4,29.9 11.2,10.8 13.8,8.2 30.4,24.7 47,8.2 49.6,10.8 			"/>
		</g>
		<g>
			<rect x="28.5" y="2" class="st1" width="3.7" height="25.3"/>
		</g>
	</g>
	<g>
		<g>
			<polygon class="st2" points="8.7,51.7 6.1,49.2 22.7,32.6 6.1,16 8.7,13.4 27.9,32.6 			"/>
		</g>
		<g>
			<rect y="30.7" class="st2" width="25.3" height="3.7"/>
		</g>
	</g>
	<g>
		<g>
			<polygon class="st1" points="13.8,56.8 11.2,54.2 30.4,35.1 49.6,54.2 47,56.8 30.4,40.3 			"/>
		</g>
		<g>
			<rect x="28.5" y="37.7" class="st1" width="3.7" height="25.3"/>
		</g>
	</g>
</g>
</svg>
