<svg id="Layer_1" data-name="Layer 1" xmlns="http://www.w3.org/2000/svg" viewBox="0 0 294 70"><defs><style>.cls-1{fill:#060608;}.cls-2{fill:#2e3a3d;}.cls-3{fill:#303c40;}.cls-4{fill:#111719;}.cls-5{fill:#93272c;}.cls-6{fill:#6e3934;}.cls-7{fill:#da7727;}.cls-8{fill:#00734c;}.cls-9{fill:#d98b82;}.cls-10{fill:#333263;}.cls-11{fill:#6b86ab;}.cls-12{fill:#7798b7;}.cls-13{fill:#6b86aa;}.cls-14{fill:#c1bd30;}.cls-15{fill:#00603a;}.cls-16{fill:#c0be31;}.cls-17{fill:#016139;}.cls-18{fill:#006039;}.cls-19{fill:#576386;}.cls-20{fill:#bfbc31;}.cls-21{fill:#c1bf30;}.cls-22{fill:#596486;}.cls-23{fill:#552b26;}.cls-24{fill:#c8c32d;}.cls-25{fill:#c7c22e;}.cls-26{fill:#1a2531;}.cls-27{fill:#006a3f;}.cls-28{fill:#c1c030;}.cls-29{fill:#b9b732;}.cls-30{fill:#101215;}.cls-31{fill:#7f98c0;}.cls-32{fill:#00643b;}.cls-33{fill:#cfc82a;}.cls-34{fill:#333264;}.cls-35{fill:#343366;}.cls-36{fill:#39366d;}.cls-37{fill:#cc6528;}.cls-38{fill:#c96528;}.cls-39{fill:#353367;}.cls-40{fill:#38366c;}.cls-41{fill:#7992b8;}.cls-42{fill:#d1c929;}.cls-43{fill:#e0d61e;}.cls-44{fill:#c4c02f;}.cls-45{fill:#758eb4;}.cls-46{fill:#58668b;}.cls-47{fill:#3a3970;}.cls-48{fill:#3a376f;}.cls-49{fill:#3a466b;}.cls-50{fill:#7993b9;}.cls-51{fill:#602f2a;}.cls-52{fill:#7790b7;}.cls-53{fill:#00693e;}.cls-54{fill:#5d668a;}.cls-55{fill:#47527d;}.cls-56{fill:#b4b334;}.cls-57{fill:#e1d81d;}.cls-58{fill:#d26927;}.cls-59{fill:#819bc4;}.cls-60{fill:#5e2e29;}.cls-61{fill:#485480;}.cls-62{fill:#00683e;}.cls-63{fill:#e4d91b;}.cls-64{fill:#d46827;}.cls-65{fill:#7b93bc;}.cls-66{fill:#3c3972;}.cls-67{fill:#006c3e;}.cls-68{fill:#4a5682;}.cls-69{fill:#4c5986;}.cls-70{fill:#cd6b28;}.cls-71{fill:#cd6728;}.cls-72{fill:#db8b82;}.cls-73{fill:#cc6b28;}.cls-74{fill:#dd9087;}.cls-75{fill:#da8c8a;}.cls-76{fill:#282222;}.cls-77{fill:#cd8085;}.cls-78{fill:#d66b27;}.cls-79{fill:#db8e8d;}.cls-80{fill:#c76428;}.cls-81{fill:#c86328;}.cls-82{fill:#c76328;}.cls-83{fill:#d06127;}.cls-84{fill:#d26127;}.cls-85{fill:#d36327;}.cls-86{fill:#d16227;}</style></defs><title>FPCS-logo-header</title><path class="cls-1" d="M89.52,70H.29a2.08,2.08,0,0,1-.11-1.12q0-33.73,0-67.46A3.06,3.06,0,0,1,.25.28,2.66,2.66,0,0,1,1.5.18H88.28a3.63,3.63,0,0,1,1.25.07,2.61,2.61,0,0,1,.1,1.24q0,33.64,0,67.27A2.42,2.42,0,0,1,89.52,70Z"/><path class="cls-2" d="M89.52.28H1.91L.3.31Q.16.52.06.29C.27-.19.68.07,1,.07q21,0,42.09,0H89.52q.11.08.08.15T89.52.28Z"/><path class="cls-3" d="M89.52.28q0-.11,0-.23c.48.25.22.7.22,1q0,31.36,0,62.72c0,1.91,0,3.82,0,5.73,0,.14.24.49-.22.46Q89.52,35.14,89.52.28Z"/><path class="cls-4" d="M.06.29.3.31Q.29,35.15.29,70c-.48-.25-.22-.69-.22-1Q0,38.86.06,8.76Z"/><path class="cls-5" d="M72.87,19.6c-.1.15-.3.31-.3.46.13,3.57-.26,7.15.11,10.72.28,2.71-.34,5.39-.44,8.1-.13,3.84.88,7.57.85,11.39,0,2.17.06,4.34.1,6.5,0,.62-.37.89-.9,1a5,5,0,0,1-2.06,0,26.41,26.41,0,0,0-7.54-.23,61.76,61.76,0,0,1-7.22-.25c-2.75-.11-5.49-.49-8.25-.38a10.94,10.94,0,0,1-2.84-.28,11,11,0,0,0-4.09-.31c-1.3.2-1.69-.07-1.58-1.36.21-2.4.08-4.8.2-7.2a35.59,35.59,0,0,0-.78-7.26,3.79,3.79,0,0,1,0-1.69,4.67,4.67,0,0,0,0-2.27,6.12,6.12,0,0,1,0-3.38,1.81,1.81,0,0,0-.1-1.35,4.56,4.56,0,0,1-.33-2.58,24.8,24.8,0,0,0-.21-6.9c-.15-1.08.26-1.5,1.48-1.68.17.16.36.35.32.58A10.46,10.46,0,0,0,40,25.39a8,8,0,0,1,0,3.06c-.29,2,.28,2.48,2.17,1.94.81-.23,1.64-.36,2.46-.53A3,3,0,0,0,47,27.75a24.94,24.94,0,0,0,.95-5.61,1.39,1.39,0,0,0-.53-1.21c-.25-.23-.58-.4-.57-.81.18-.66.73-.8,1.3-.85A6.74,6.74,0,0,0,50,18.9a12.09,12.09,0,0,1,2.45.29A16.13,16.13,0,0,0,56,19c.7.09,1.37.57,2.09.11a3.22,3.22,0,0,1,1.6-.23,4,4,0,0,1,1.14.42c.83.75.35,1.87.78,2.73a4.73,4.73,0,0,1,0,.94c-.27.87-.53,1.75-.74,2.64a1.19,1.19,0,0,0,.88,1.6,12.44,12.44,0,0,0,3.13.7,15.35,15.35,0,0,1,3.52.43c1.12.28,1.47,0,1.5-1.19,0-1.34,0-2.67,0-4a1.88,1.88,0,0,0-1.61-2.06c-.73-.23-1.51-.25-2.24-.49s-1.29-.37-1.34-1.21c.35-1.1,1.33-1,2.16-1a16.28,16.28,0,0,0,1.93,0,4.57,4.57,0,0,1,1.22,0C71,18.62,72.21,18.47,72.87,19.6Z"/><path class="cls-6" d="M6.58,55.36c.24-.57-.08-1.13,0-1.67.07-1.42.27-2.83.43-4.24.14-1.26.31-2.51.46-3.77a4.28,4.28,0,0,0,0-1.8A13.93,13.93,0,0,0,8,39.76a2.33,2.33,0,0,1,.13-.88c.45-.44.93-.17,1.38,0a3,3,0,0,0,3.46-.7,5.37,5.37,0,0,1,3.4-1.43,4.93,4.93,0,0,0,3.15-1.44c.48-.48,1-1.06,1.86-.58A2,2,0,0,0,21,36.28c.2,1.31-.44,2.61-.12,4,.12.5-.76.73-.83,1.47a11,11,0,0,0,.77,5.65,1.62,1.62,0,0,1-.19,2c-.53.9-.91,1.7,0,2.74.61.72.47,1.88.92,2.76a8.56,8.56,0,0,0,.42,4c.39,1.08.17,2.29.39,3.45.17.88-.7,1.43-1.67,1.3-.26,0-.53,0-.8,0-.5.77-1.19.38-1.74.19A2.59,2.59,0,0,0,15.5,64a10.74,10.74,0,0,0-3.59.27c-.16.06-.45.1-.54,0-.8-.76-1.46-.22-2.14.19-.7.88-1.37.48-2,0l-.7-.49a.84.84,0,0,1-.66-1A54.45,54.45,0,0,1,6.7,56C6.94,55.71,6.56,55.57,6.58,55.36Z"/><path class="cls-7" d="M72.87,19.6A8.21,8.21,0,0,0,70,19.07a1.49,1.49,0,0,0-1.12,0c-1.08.09-2.15-.33-3.23,0-.29.09-.6.08-.75.4-.9.69-1.86.13-2.79.15A4.4,4.4,0,0,1,61,19.55l-.31,0H59.62a6.38,6.38,0,0,0-1.76-.08c-.1,0,.1-.07.23.13a2.76,2.76,0,0,1-1.91,0A4.12,4.12,0,0,0,54,19.45a20.08,20.08,0,0,0-4,.1c-.93.46-2.06,0-3,.61-.16.56-.66.55-1.1.61a21,21,0,0,0-2.77.57,5.21,5.21,0,0,1-1.65-.08c-.27,0-.53-.11-.79-.16-.54-.07-1.12,0-1.41-.64A3.08,3.08,0,0,0,41,18a.4.4,0,0,1,.1.28A.48.48,0,0,0,41,18a28,28,0,0,0,3.24-3.35,1.84,1.84,0,0,1,.8-.61,1.59,1.59,0,0,0,1.39-1.29c.2-1.26,1.56-2.21,1-3.7-.14-.35.27-.6.45-.88s.57-.52.49-1c.36-.42.09-1,.41-1.45.55-2,2.17-2.57,3.77-1.35.51.43,1.21.24,1.76.53l.87.31a2.82,2.82,0,0,1,3.16.7c.2.2.51.32.53.67.79.31,1.14,1.14,1.83,1.57a1.29,1.29,0,0,1,1.06.24,3.74,3.74,0,0,0,.93.5,1.42,1.42,0,0,1,.4.3c.51.55.45,1.28.64,1.93l.09.37c0,.28.16.4.4.46.3.32.52.74,1.07.71a.64.64,0,0,1,.51.21c.65,1.13,1.9,1.51,2.81,2.31a1,1,0,0,0,.66.68A12.39,12.39,0,0,1,71.17,17c.05.25.16.42.46.39.32.37.61.76,1,1.09A.92.92,0,0,1,72.87,19.6Z"/><path class="cls-8" d="M21.38,34.71a3.37,3.37,0,0,0-1.19.64c-1.34.92-2.59,1.95-4.38,2a4.2,4.2,0,0,0-2.65,1.24,3.24,3.24,0,0,1-3.48.69c-.51-.16-1-.25-1.56-.37-.8-1.94-1.68-3.84-2.36-5.82a4.88,4.88,0,0,1,.3-3.89,4,4,0,0,0,.5-2.26,2.33,2.33,0,0,1,1.21-2.36,7.54,7.54,0,0,1,1.7-.66c.3.29.13.6.06.93a1,1,0,0,0,.71,1.4,1.09,1.09,0,0,0,.39-.09,11.16,11.16,0,0,0,1.84-1.72,11.77,11.77,0,0,1,2.39-1.77c.47-.29,1.05-.52,1.15-1.19a1,1,0,0,0-.12-.39c-.79-.79-1.83-.48-2.76-.61A3.45,3.45,0,0,1,12,20.3a.8.8,0,0,1,.78-1,6.68,6.68,0,0,1,3.18,0c-.24.31-.66,0-.92.26-.14,0,.13.09,0,0a9.14,9.14,0,0,1,2-.09,6.35,6.35,0,0,0,1.68.11h.17l.41,0a14.05,14.05,0,0,1,3,.21,1.42,1.42,0,0,1,.5.84,4.07,4.07,0,0,1-.3,1.76,3.22,3.22,0,0,0,.12,2.93c.2.85,1,1.32,1.33,2.09a.46.46,0,0,0,.59.23A.52.52,0,0,0,24.9,27a4.35,4.35,0,0,0-.24-1.23A14.1,14.1,0,0,1,24,21.88a1.22,1.22,0,0,0-.55-1.06,5.79,5.79,0,0,1-1.07-1q-.12-.07-.08-.15t.07-.08a6.4,6.4,0,0,1,5.25,1.75,9.79,9.79,0,0,1,2.33,3,3,3,0,0,1-.47,2.92,15,15,0,0,0-1.13,2c-.56,1.26-2,1.09-2.93,1.8a8.91,8.91,0,0,1-1.47.63c-1,.52-2.05,1-2.15,2.41C21.79,34.28,21.53,34.49,21.38,34.71Z"/><path class="cls-9" d="M39.29,20.47c.51.08,1-.1,1.53.19.23.28.54.07.81.14.48-.06,1,.12,1.44-.11A21.3,21.3,0,0,1,47,20.17c1.54.49,1.75.92,1.49,2.52a35.5,35.5,0,0,1-.79,4.73c-.5,1.62-1.28,2.79-3.14,3-1.28.17-2.53.57-3.8.83-.82.17-1.35-.1-1.34-1a7.79,7.79,0,0,1,0-1,13.42,13.42,0,0,0-.61-6.2A3.66,3.66,0,0,1,39,20.67Z"/><path class="cls-10" d="M13.62,7.85c.45,1.34.23,2.79.69,4.13a.61.61,0,0,1-.82.35.64.64,0,0,0-.65.07,1.41,1.41,0,0,1-1.95-.06A1.73,1.73,0,0,0,9,12.4c-.49-.06-1.26.38-1.16-.68a11,11,0,0,1,.61-4.49c.25-.95-.23-1.92.24-2.91a1.26,1.26,0,0,1,1.38-.89c.87.07,1.74.2,2.62.3.77.36.23,1.08.44,1.59l.2,1.18A2.49,2.49,0,0,0,13.62,7.85Z"/><path class="cls-11" d="M18.47,5.56c.44-1.46.52-1.4,1.82-.94A4.21,4.21,0,0,0,23.23,5a6.14,6.14,0,0,1,1.71-.12c.21,0,.37,0,.42.28s0,.45-.32.47c-.92.08-.8.49-.48,1.16A1.41,1.41,0,0,1,24,8.68a1.28,1.28,0,0,0-.72,1.2.81.81,0,0,1-1,.93c-1.14-.22-2.14.36-3.23.4-.41,0-.77.22-1.12-.24s-.08-.79,0-1.17c.21-.61.41-1.23.67-1.82.19-.42,0-.73-.18-1.07S18.5,6,18.47,5.56Z"/><path class="cls-12" d="M82.39,5.33a1.51,1.51,0,0,1-.21.95c-.26.36-.12.73-.05,1.1l-.61,1.2a.65.65,0,0,0,0,.64,3.59,3.59,0,0,0-.08.78c.25,2.2-.2,2.55-2.28,1.81a.52.52,0,0,0-.61-.32,3.13,3.13,0,0,0-.77-.16c-1.05,0-1.29-.54-1-1.37s-.24-1.48-.1-2.22a6.13,6.13,0,0,1,0-2.24c0-.53.15-1,.8-.66a4.44,4.44,0,0,0,3.86-.28c.38-.17.78-.34,1.14.06C82.44,4.86,82.24,5.09,82.39,5.33Z"/><path class="cls-13" d="M62.6,7.18c-.41-2.11,1.07-3,3.22-2.77a1.77,1.77,0,0,1,.55.13c.58.26,1.42-.33,1.79.34A2.58,2.58,0,0,1,68.1,7.2c-.66,1.35-.08,2.59.13,3.84s-.25,1.12-1,.72c-.16-.22-.42-.22-.64-.33a2.49,2.49,0,0,0-1.17.1c-1-.07-1-1-1.36-1.63a1.66,1.66,0,0,1-.25-.21A4.2,4.2,0,0,0,62.6,7.18Z"/><path class="cls-10" d="M35.07,10c-.59.77-1,1.73-2.35,1.13a3.41,3.41,0,0,1-2-2.81,2.91,2.91,0,0,0-.54-1.77c-.63-.92-.2-1.84.89-1.79,1.34.07,2.59-.61,3.91-.38s1.34.54.71,1.7c-.29.22,0,.45,0,.67-.44.8-.15,1.67-.26,2.5-.68-.12-.12-.65-.33-.85C35,8.84,35.38,9.42,35.07,10Z"/><path class="cls-7" d="M16.82,21.6a3.38,3.38,0,0,1-1.65,1.5,12.31,12.31,0,0,0-4.28,3.81,1.57,1.57,0,0,1-.7.17c-1.56-1-1.75-1.81-.71-3.19,1.15-.8,2.29-1.59,2.63-3.08A.54.54,0,0,0,12,20.3c1.62-.83,3.14-.38,4.64.36A3,3,0,0,1,16.82,21.6Z"/><path class="cls-12" d="M72,11.32a1,1,0,0,0-.85,0,1.42,1.42,0,0,1-1.91-1.55,5.75,5.75,0,0,1,2-4.27c.85-.72,1.74-.06,2.59-.29.2-.05.4.49.3.77-.55,1.59-.51,3.3-1.06,4.89a1.83,1.83,0,0,1-.34.45A3.41,3.41,0,0,0,72,11.32Z"/><path class="cls-11" d="M41,9.23c-1-.66-.39-1.7-.39-2.47A7.91,7.91,0,0,1,41,4.09c.32.31,0,.71.16,1,0-.33-.11-.75.1-1.14.09-.64.4-.75.94-.41s1.3.64,1.94-.09c.28-.32.62-.18.89.13s.43.58.13.91a1.16,1.16,0,0,0-.44.88,5.09,5.09,0,0,0-.05,2,2.62,2.62,0,0,0,0,1.4c-.56.77-1.33.33-2,.34S41.52,8.84,41,9.23Z"/><path class="cls-14" d="M65.38,65.85a6.91,6.91,0,0,0-1.81-.45c-.57,0-.43-.35-.28-.68.42-.5.21-1.09.24-1.65a6.17,6.17,0,0,1,.21-2.14c1-.48,2.28-.42,3.2-1.25.2-.18.4.12.42.37.13,1.12.47,2.27-.31,3.31-.4.71,0,1.5-.21,2.23C66.4,66,65.83,65.58,65.38,65.85Z"/><path class="cls-15" d="M74.81,65.14c0,.82-.24,1.26-1,1a9.93,9.93,0,0,0-3-.35c-.64,0-1-.24-.66-.9a21.3,21.3,0,0,0,1.43-4c.24-.95.72-1,1.34-.23A3.48,3.48,0,0,1,74,63.3C73.95,64.08,75.06,64.4,74.81,65.14Z"/><path class="cls-16" d="M76.69,66.13c-1.67.34-1.71.31-1.63-1.32a2.57,2.57,0,0,0-.34-1.74,1.62,1.62,0,0,1-.17-1.22c.09-.56.13-1.36.79-1.34a1.5,1.5,0,0,1,1.47,1.23,2.55,2.55,0,0,0,1.93,2.57,1.14,1.14,0,0,1,.67,1.52c-.22.61-.69.59-1.19.3A1.89,1.89,0,0,0,76.69,66.13Z"/><path class="cls-15" d="M38.74,65.89a3.62,3.62,0,0,1-1.8.2c-1.58,0-1.84-.21-1.91-1.74,0-1.12-.79-2-1.05-3,1-.54,1.66-.12,2.32.57a32,32,0,0,0,3.55,3.69c-.33.34-.65.2-.94.23a.57.57,0,0,0-.4-.1H38.3c-.08,0,0,0,.06,0s0,0,.11,0S38.68,65.79,38.74,65.89Z"/><path class="cls-15" d="M45.84,65.16A2.46,2.46,0,0,1,44.65,65c0-.25-.12,0-.18-.05-.72-.22-1.46-.41-2.17-.65-1.15-.4-1.25-.82-.38-1.66.3-.29.64-.54,1-.81a2,2,0,0,0,1.09,0c.49.33.95,0,1.42-.07s1.2-.46,1.39-.07a2,2,0,0,1,0,2c-.18.29-.33.6-.49.9S46.15,65.05,45.84,65.16Z"/><path class="cls-15" d="M24.68,65.39a4.1,4.1,0,0,0-2.78.26c-.47.28-.63-.06-.53-.48A1.6,1.6,0,0,1,22.63,64,30.8,30.8,0,0,0,26.8,62.8a.77.77,0,0,1,1.18.64c.1.69.74,1,1,1.74a5.38,5.38,0,0,1-2,.25C26.22,65.4,25.45,65.41,24.68,65.39Z"/><path class="cls-16" d="M15.5,64c.44-1.38.63-1.43,2-.93a18.72,18.72,0,0,0,2.32.56l.48.43c0,.47-.54.84-.25,1.37-.13.79-.48,1.13-1.3.73a11.17,11.17,0,0,0-1.25-.45c-.11-.25-.23-.22-.34,0-.33.16-.61.27-.81-.22A13.87,13.87,0,0,0,15.5,64Z"/><path class="cls-16" d="M82.79,66.52c-1.09.12-1.79,0-2-1a2,2,0,0,1,.6-2.28c1-.81,1.67-.59,2.05.63a1.94,1.94,0,0,0,.23.64c.35.43.85.74.49,1.46S83.07,66.45,82.79,66.52Z"/><path class="cls-17" d="M5.84,62.87a.86.86,0,0,1,.66,1A7,7,0,0,1,5,65.14c-.42,0-.83.28-1.26.06-.69-.6-.46-1.37-.38-2.1,0-.47.42-.6.84-.53S5.28,62.77,5.84,62.87Z"/><path class="cls-18" d="M48.84,64.9c1.1-.39,2.2-.79,3.31-1.15.73-.24.74.38.77.8,0,.58.21,1.3-.77,1.33-1.18,0-2.18-.63-3.33-.7Z"/><path class="cls-19" d="M61.44,8.81c-.41,0-.49-.43-.72-.67l.06-.29c0-.32.1-.63.11-1,.71-.5,1.24-.4,1.54.46.72.35,1.56.61,1.31,1.7-.16.59-.55.6-1,.4l-.27,0C62.17,9.12,61.76,9,61.44,8.81Z"/><path class="cls-20" d="M41.54,64.64a1,1,0,0,1-.94.54,2.21,2.21,0,0,1-1.8-1.5c-.14-.28,0-.43.22-.57a1.11,1.11,0,0,1,1.19-.17C40.95,63.27,40.86,64.22,41.54,64.64Z"/><path class="cls-17" d="M59.86,65.63a15.11,15.11,0,0,0-3-.51c-.35,0-.42-.25-.31-.56a1.13,1.13,0,0,1,2-.39C58.91,64.64,59.54,64.86,59.86,65.63Z"/><path class="cls-21" d="M7.19,64.4c.69-.28,1.36.11,2,0l1.4.75c-.38.65-.94.24-1.43.23L8,65.64c-.4.08-.8.63-1.19,0S6.8,64.73,7.19,64.4Z"/><path class="cls-22" d="M58.25,6.26c-.83-.89-2.12-.45-3-1.05A1.73,1.73,0,0,1,58,4.82a7.66,7.66,0,0,1,.78.95A.5.5,0,0,1,58.25,6.26Z"/><path class="cls-23" d="M21.46,54.87a2.6,2.6,0,0,1-.7-1.63,1.82,1.82,0,0,0-.36-1,2,2,0,0,1,.19-2.83,2.75,2.75,0,0,0,.15,2.73A4.8,4.8,0,0,1,21.46,54.87Z"/><path class="cls-24" d="M30.4,65.08c1.74-.92,2.24-.84,2.71.36Z"/><path class="cls-25" d="M63.74,60.94c0,.91,0,1.82,0,2.72,0,.42,0,.85-.47,1.06,0-.9,0-1.81,0-2.71A1.14,1.14,0,0,1,63.74,60.94Z"/><path class="cls-26" d="M63.58,8.8c0-.74-.93-.83-1.14-1.44l.17-.18c1.46.29,1.56,1.32,1.36,2.51C63.28,9.63,63.82,9,63.58,8.8Z"/><path class="cls-27" d="M22.37,19.56l.07.28h0c-1-.21-2.1.21-3.08-.32A5.86,5.86,0,0,1,22.37,19.56Z"/><path class="cls-28" d="M3.72,65.2c.41-.23.8-.81,1.26-.06-.13.31.17.9-.33.92S3.94,65.6,3.72,65.2Z"/><path class="cls-29" d="M13.87,65.39c.47.7,0,.78-.52.7a3.25,3.25,0,0,1-.89-.43c-.32-.61.18-.56.52-.64S13.56,65.31,13.87,65.39Z"/><path class="cls-27" d="M24.68,65.39a2.72,2.72,0,0,1,2.3,0A2.88,2.88,0,0,1,24.68,65.39Z"/><path class="cls-30" d="M63.58,8.8l.38.89a.39.39,0,0,1,.06.22,2.11,2.11,0,0,0-.27,1.21,4.19,4.19,0,0,0-1-1.66C63.27,9.59,63.43,9.2,63.58,8.8Z"/><path class="cls-31" d="M42.38,9a6.41,6.41,0,0,0,2.28-.25c.11.29.3.61-.26.62a5.72,5.72,0,0,1-2-.19q-.08-.06-.05-.12S42.36,9,42.38,9Z"/><path class="cls-32" d="M17.31,19.55H15.25v-.19l.75-.07a9.21,9.21,0,0,1,2.95.25l-.07,0A2.49,2.49,0,0,1,17.31,19.55Z"/><path class="cls-33" d="M13.87,65.39c-.45.15-1.08-.58-1.4.28-.25,0-.52.06-.74-.14C12.75,64.52,13.14,64.5,13.87,65.39Z"/><path class="cls-34" d="M35.07,10a10,10,0,0,1,0-2.56c.27.58,0,1.27.36,1.82A.59.59,0,0,1,35.07,10Z"/><path class="cls-35" d="M11.1,12.21a1.05,1.05,0,0,0,1.45.11.69.69,0,0,1,.85-.12c0,.14-.16.15-.23.23a1.71,1.71,0,0,1-2.07.23A.3.3,0,0,1,11.1,12.21Z"/><path class="cls-36" d="M7.87,11.72c.29.66.89.44,1.39.49q.11.08.08.16t-.07.08a1.58,1.58,0,0,1-1.21.12C7.58,12.42,7.29,12.14,7.87,11.72Z"/><path class="cls-37" d="M54.33,4.9c-.64,0-1.37.29-1.76-.53C53.2,4.39,53.89,4.23,54.33,4.9Z"/><path class="cls-38" d="M48.79,5.72a5.93,5.93,0,0,1,0,1.56c-.13.46-.25-.07-.39-.11A1.38,1.38,0,0,1,48.79,5.72Z"/><path class="cls-39" d="M9.26,12.45v-.24a2,2,0,0,1,1.84,0v.45A1.85,1.85,0,0,0,9.26,12.45Z"/><path class="cls-40" d="M13.15,5.32l-.44-1.59C13.87,4,13.21,4.73,13.15,5.32Z"/><path class="cls-41" d="M42.38,9q0,.09,0,.18L41,9.23A.89.89,0,0,1,42.38,9Z"/><path class="cls-42" d="M76.69,66.13c-.07-.08-.33-.18-.24-.18.59,0,1.23-.34,1.77.18Z"/><path class="cls-43" d="M66.74,65.64c.12-.75-.23-1.57.3-2.27L67,65.64C66.9,65.74,66.82,65.74,66.74,65.64Z"/><path class="cls-44" d="M20,65.41c-.22-.51-.3-1,.25-1.37C20.75,64.59,19.86,64.91,20,65.41Z"/><path class="cls-45" d="M18.47,5.56a1.27,1.27,0,0,1,0,1.36C18.12,6.48,18.29,6,18.47,5.56Z"/><path class="cls-46" d="M58.25,6.26l.49-.48c.28.22.77.4.16.8A.91.91,0,0,1,58.25,6.26Z"/><path class="cls-47" d="M13.62,7.85a.94.94,0,0,1-.27-1.35A2.76,2.76,0,0,1,13.62,7.85Z"/><path class="cls-48" d="M13.17,12.43l.23-.23.92-.23C14.26,12.94,13.62,12.45,13.17,12.43Z"/><path class="cls-49" d="M76.62,5.49q0,1.12,0,2.24A3.3,3.3,0,0,1,76.62,5.49Z"/><path class="cls-50" d="M44.62,7.38a2.49,2.49,0,0,1,.05-2A5.49,5.49,0,0,1,44.62,7.38Z"/><path class="cls-51" d="M7.46,43.89a2,2,0,0,1,0,1.8A4.63,4.63,0,0,1,7.46,43.89Z"/><path class="cls-52" d="M41.21,3.92V5.5l-.14,0L41,4.09Z"/><path class="cls-53" d="M38.74,65.89l-1.21-.07a1.42,1.42,0,0,1,1.38,0A.46.46,0,0,1,38.74,65.89Z"/><path class="cls-54" d="M60.89,6.89c.62.39,0,.64-.11,1C60.63,7.51,60.48,7.17,60.89,6.89Z"/><path class="cls-55" d="M82.13,7.38A1.38,1.38,0,0,1,82,6.16c.19-.43.12.08.2.11Z"/><path class="cls-56" d="M9.2,65.43c.48-.08,1,.08,1.43-.23.31.22.19.38-.09.41A2.56,2.56,0,0,1,9.2,65.43Z"/><path class="cls-57" d="M66.74,65.64H67c-.48.5-1,.33-1.6.21A2.5,2.5,0,0,1,66.74,65.64Z"/><path class="cls-58" d="M69.3,15.85c-.51.05-.74-.16-.66-.68A1.21,1.21,0,0,1,69.3,15.85Z"/><path class="cls-59" d="M65.37,11.54a2,2,0,0,1,1.37-.24c0,.24,0,.39-.3.26A1.53,1.53,0,0,1,65.37,11.54Z"/><path class="cls-60" d="M6.58,55.36a.87.87,0,0,1,.35.8s-.08.08-.12.12L6.7,56Z"/><path class="cls-61" d="M72,11.32a.48.48,0,0,1,.72,0A.47.47,0,0,1,72,11.32Z"/><path class="cls-62" d="M45.84,65.16l.43-.65C46.55,65,46.47,65.26,45.84,65.16Z"/><path class="cls-63" d="M17.13,65.68,17,65.45h.52l-.09.23Z"/><path class="cls-64" d="M64.24,11.94c-.43.1-.57,0-.4-.46A.64.64,0,0,1,64.24,11.94Z"/><path class="cls-61" d="M78.5,11.49c.32-.11.65-.25.61.32A.84.84,0,0,1,78.5,11.49Z"/><path class="cls-65" d="M66.44,11.56l.3-.26c.19.12.5.12.44.47Z"/><path class="cls-58" d="M71.63,17.39c-.45.21-.59.07-.46-.39Z"/><path class="cls-66" d="M35.72,6.72c-.12-.23-.43-.46,0-.67Z"/><path class="cls-27" d="M44.47,64.91a.72.72,0,0,1,.71-.11c-.13.25-.36.1-.53.16A.38.38,0,0,1,44.47,64.91Z"/><path class="cls-67" d="M44,61.79a1,1,0,0,1-1.09,0A1.84,1.84,0,0,1,44,61.79Z"/><path class="cls-68" d="M81.47,9.23c-.1-.22-.42-.46,0-.64A.6.6,0,0,1,81.47,9.23Z"/><path class="cls-69" d="M82.39,5.33a.48.48,0,0,1,0-.7A.7.7,0,0,1,82.39,5.33Z"/><path class="cls-7" d="M50.76,43.88c0-.4-.05-.51-.06-.63-.18-2.39,0-2.72,2.32-2.94a15.88,15.88,0,0,1,3.87-.3,8.3,8.3,0,0,1,2.94,1.18,1.91,1.91,0,0,1,.77,1.91c0,1.26-.5,2.5-.27,3.76a11.91,11.91,0,0,1,.09,4.6c-.16.79.62,1.35.95,2,.87,1.83.42,2.65-1.6,2.47-2.56-.23-5.07.42-7.63.27-.9-.05-1.36-.17-1.54-1.18a11,11,0,0,1-.22-3.95C50.82,48.63,50.21,46.08,50.76,43.88Z"/><path class="cls-9" d="M62.13,18.91l2.72.55a8.11,8.11,0,0,0,3,1c2.05.42,2.44.82,2.55,2.86.08,1.44.09,2.89.05,4.33S70,29.42,68.57,29a13.34,13.34,0,0,0-3.94-.54,13,13,0,0,1-3.86-1c-.57-.17-.62-.71-.59-1.23A17.19,17.19,0,0,1,61,23a.68.68,0,0,0,0-.87c-.49-.81-.1-1.73-.3-2.58h.11C61,18.89,61.64,19,62.13,18.91Z"/><path class="cls-9" d="M71.14,46.15a2,2,0,0,1-1.48.42,20.31,20.31,0,0,0-4.78,0,2.39,2.39,0,0,1-2.43-2c-.33-1.55-.51-3.1.93-4.29a1.43,1.43,0,0,0,.37-1.38c-.05-.53-.15-1.06-.21-1.59-.21-1.77,0-2.05,1.84-2a7.61,7.61,0,0,1,3.38,1c1.56.88,1.76,2.5,2.12,4a13.93,13.93,0,0,1,.25,3.75A4.53,4.53,0,0,0,71.14,46.15Z"/><path class="cls-9" d="M45.89,46.36a20.46,20.46,0,0,0-5.39-.09c-.2,0-.62.25-.63-.19,0-.85-.58-1.59-.47-2.46a36.93,36.93,0,0,0,.54-4.07,1.69,1.69,0,0,1,1.49-1.63c1.67-.37,3.37-.65,5.06-1,1.1-.2,1.61.42,1.88,1.38a8.15,8.15,0,0,1-.31,4.38A2.44,2.44,0,0,0,47.94,44C48.41,46,48,46.41,45.89,46.36Z"/><path class="cls-70" d="M50,19.56a15,15,0,0,1,6.21.06Z"/><path class="cls-71" d="M58.09,19.58l-1-.09a4.08,4.08,0,0,1,2.52,0Z"/><path class="cls-72" d="M71.14,46.15a2.21,2.21,0,0,1,0-2.07C71.06,44.78,71.5,45.46,71.14,46.15Z"/><path class="cls-73" d="M68.84,19.07a1,1,0,0,1,1.12,0Z"/><path class="cls-74" d="M61,22.1c.52.3.16.58,0,.87Z"/><path class="cls-51" d="M20.5,38.73l-.09.17c0-.06-.08-.11-.09-.17s0-.22.13-.19S20.49,38.66,20.5,38.73Z"/><path class="cls-75" d="M62.13,18.91l-1.34.62C60.9,18.58,61.58,18.88,62.13,18.91Z"/><path class="cls-76" d="M61.44,8.81a.92.92,0,0,1,1,.63C62.09,9.25,61.55,9.37,61.44,8.81Z"/><path class="cls-77" d="M43.07,20.7a3,3,0,0,1-1.6.22q-.25-.09,0-.22Z"/><path class="cls-78" d="M41,18A1,1,0,0,1,41.07,19L41,18Z"/><path class="cls-79" d="M41.45,20.7l0,.22c-.2-.12-.59.23-.65-.25Z"/><path class="cls-80" d="M10.9,31.42c.66,2.17,2.46,2.84,4.86,2.72A2.08,2.08,0,0,0,18,32.4a15.74,15.74,0,0,1,.54-1.5c.27-.84.74-1.4,1.72-1.3.53.09.6.44.6.9A8.72,8.72,0,0,0,21,32.61c-.27,1.12-.21,2.44-1.63,2.89a14.28,14.28,0,0,1-2.1.54c-1.9.3-3.71.72-5.09,2.27-.6.68-2.37.6-3.14.08a.64.64,0,0,1-.3-.67,4,4,0,0,1,.42-1.41c.63-1.3.63-1.3-.74-1.84-.93-.36-2.26-3.24-1.91-4.16A.72.72,0,0,1,6.65,30c1-.87,3.68-.22,4.17,1C10.79,31.17,10.63,31.33,10.9,31.42Z"/><path class="cls-7" d="M16.58,23.43a10,10,0,0,1,2.35-.87c.47-.13.77,0,.62.59A4.61,4.61,0,0,1,17.84,26a3.46,3.46,0,0,0-1.59,2.66c-.13,1.48-1.39,2-2.25,2.89-.25.25-.48,0-.69-.16-1.08-.91-1.6-4.22-.86-5.44.53-.86,1.57-.9,2.31-1.42A5.21,5.21,0,0,0,16.58,23.43Z"/><path class="cls-7" d="M22.17,20.47l.26-.63,0,0,.05,0c1.54.16,2.11.83,2.11,2.25a19.53,19.53,0,0,0,1,4.77,1.1,1.1,0,0,1-.77,1.51c-.47.17-1,0-1.1-.32-.26-1-1.27-1.39-1.52-2.32C22,24,22.36,22.23,22.17,20.47Z"/><path class="cls-81" d="M22.17,20.47a13.89,13.89,0,0,1,0,5.26,1.49,1.49,0,0,1-.32-1.29C21.93,23.12,22.05,21.8,22.17,20.47Z"/><path class="cls-82" d="M16.58,23.43c.13,0,.37.15.33.16-.75.26-1.22,1.12-2.15,1A4.15,4.15,0,0,1,16.58,23.43Z"/><path class="cls-83" d="M21,32.61a3.58,3.58,0,0,1-.19-1.78,1.67,1.67,0,0,0-.48-1.23c.62-.34.72.07.73.53C21,31,21,31.78,21,32.61Z"/><path class="cls-27" d="M17.31,19.55l1.56,0A1.46,1.46,0,0,1,17.31,19.55Z"/><path class="cls-84" d="M16.82,21.6a.81.81,0,0,1-.14-.94A.6.6,0,0,1,16.82,21.6Z"/><path class="cls-85" d="M10.19,27.08c.2-.18.41-.34.7-.17C10.78,27.48,10.49,27.31,10.19,27.08Z"/><path class="cls-86" d="M10.9,31.42c-.06.11-.07.4-.16.31s0-.47.09-.7Z"/><path class="cls-1" d="M114.44,2V4h-9.37V9.62h8.22v2h-8.22V19.8h-2.38V2Z"/><path class="cls-1" d="M118.65,6.88V9.6h.05a5.76,5.76,0,0,1,1.9-2.32,4.8,4.8,0,0,1,2.86-.7V8.83a6,6,0,0,0-2.18.35,3.43,3.43,0,0,0-1.45,1,4.23,4.23,0,0,0-.8,1.64,8.81,8.81,0,0,0-.25,2.21V19.8h-2.13V6.88Z"/><path class="cls-1" d="M125.19,4.55V2h2.13v2.6Zm2.13,2.32V19.8h-2.13V6.88Z"/><path class="cls-1" d="M139.8,19a5.89,5.89,0,0,1-3.66,1.1,6.67,6.67,0,0,1-2.69-.5,5.31,5.31,0,0,1-1.92-1.4A5.93,5.93,0,0,1,130.37,16a10.31,10.31,0,0,1-.44-2.72,7.76,7.76,0,0,1,.45-2.7,6.45,6.45,0,0,1,1.27-2.12,5.74,5.74,0,0,1,1.93-1.4,5.91,5.91,0,0,1,2.44-.5,5.33,5.33,0,0,1,2.87.71,5.67,5.67,0,0,1,1.83,1.81,7.16,7.16,0,0,1,1,2.4,10.27,10.27,0,0,1,.21,2.47h-9.7a5.11,5.11,0,0,0,.2,1.61,3.64,3.64,0,0,0,.73,1.35,3.58,3.58,0,0,0,1.28.94,4.42,4.42,0,0,0,1.83.35,3.7,3.7,0,0,0,2.22-.62,3,3,0,0,0,1.14-1.9h2.11A5.16,5.16,0,0,1,139.8,19Zm-.51-8.3a3.65,3.65,0,0,0-.78-1.16,3.84,3.84,0,0,0-4.11-.77,3.44,3.44,0,0,0-1.14.79,3.77,3.77,0,0,0-.75,1.16,4.41,4.41,0,0,0-.33,1.41h7.44A4.36,4.36,0,0,0,139.29,10.67Z"/><path class="cls-1" d="M146.09,6.88v2h.05a4.49,4.49,0,0,1,4.21-2.35,5.64,5.64,0,0,1,2.13.35,3.51,3.51,0,0,1,1.38,1,3.62,3.62,0,0,1,.74,1.49,8,8,0,0,1,.21,1.91v8.5h-2.13V11a2.56,2.56,0,0,0-.7-1.9,2.61,2.61,0,0,0-1.93-.7,4.36,4.36,0,0,0-1.69.3,3.17,3.17,0,0,0-1.19.85,3.66,3.66,0,0,0-.71,1.29,5.21,5.21,0,0,0-.24,1.61v7.3h-2.13V6.88Z"/><path class="cls-1" d="M167.47,19.8V18h-.05a3.13,3.13,0,0,1-1.65,1.55,6.34,6.34,0,0,1-2.48.47,5.86,5.86,0,0,1-2.62-.55A5.37,5.37,0,0,1,158.81,18a6.41,6.41,0,0,1-1.12-2.15,8.8,8.8,0,0,1-.38-2.6,9.08,9.08,0,0,1,.36-2.6,6.11,6.11,0,0,1,1.1-2.14,5.33,5.33,0,0,1,1.85-1.45,5.91,5.91,0,0,1,2.59-.54,6.37,6.37,0,0,1,1.08.1,5.5,5.5,0,0,1,1.15.34,4.93,4.93,0,0,1,1.09.62,3.44,3.44,0,0,1,.86,1h.05V2h2.13V19.8Zm-7.66-4.59a4.75,4.75,0,0,0,.73,1.54,3.55,3.55,0,0,0,1.25,1.07,3.81,3.81,0,0,0,1.79.4,3.52,3.52,0,0,0,3.06-1.54,4.65,4.65,0,0,0,.69-1.56,7.54,7.54,0,0,0,0-3.61,4.54,4.54,0,0,0-.71-1.56,3.65,3.65,0,0,0-1.27-1.09,4,4,0,0,0-1.88-.41,3.67,3.67,0,0,0-1.83.42,3.4,3.4,0,0,0-1.2,1.13,4.88,4.88,0,0,0-.65,1.6,8.47,8.47,0,0,0-.2,1.85A6.58,6.58,0,0,0,159.82,15.21Z"/><path class="cls-1" d="M174.52,16.91a2.26,2.26,0,0,0,.79.77,3.56,3.56,0,0,0,1.1.41,6.32,6.32,0,0,0,1.27.12,7.82,7.82,0,0,0,1.05-.07,3.87,3.87,0,0,0,1-.28,1.9,1.9,0,0,0,.76-.59,1.56,1.56,0,0,0,.3-1,1.41,1.41,0,0,0-.63-1.25,5.34,5.34,0,0,0-1.57-.69q-.94-.26-2-.47a10.6,10.6,0,0,1-2-.6A4.23,4.23,0,0,1,173,12.2a2.82,2.82,0,0,1-.63-1.95,3.09,3.09,0,0,1,.44-1.67,3.58,3.58,0,0,1,1.13-1.14,5.19,5.19,0,0,1,1.55-.65,7.18,7.18,0,0,1,1.72-.21,10.27,10.27,0,0,1,2,.19,4.71,4.71,0,0,1,1.64.65A3.38,3.38,0,0,1,182,8.66a4.74,4.74,0,0,1,.5,2h-2.13a2,2,0,0,0-1-1.7,3.2,3.2,0,0,0-.94-.36,4.86,4.86,0,0,0-1-.11,6.41,6.41,0,0,0-1,.07,3.26,3.26,0,0,0-.89.26,1.79,1.79,0,0,0-.65.5,1.26,1.26,0,0,0-.25.81A1.19,1.19,0,0,0,175,11a3.1,3.1,0,0,0,1,.6,8.63,8.63,0,0,0,1.35.4l1.5.34a16.18,16.18,0,0,1,1.57.42,5.14,5.14,0,0,1,1.35.66,3.25,3.25,0,0,1,1,1,3,3,0,0,1,.36,1.55,3.59,3.59,0,0,1-.49,1.95,3.81,3.81,0,0,1-1.28,1.25,5.34,5.34,0,0,1-1.78.66,10.53,10.53,0,0,1-2,.19,9.16,9.16,0,0,1-2.06-.23,5,5,0,0,1-1.73-.74,3.75,3.75,0,0,1-1.2-1.35,4.66,4.66,0,0,1-.5-2h2.13A2.38,2.38,0,0,0,174.52,16.91Z"/><path class="cls-1" d="M187.55,2V8.78h.05a2.83,2.83,0,0,1,.7-1,4,4,0,0,1,1-.67,5.3,5.3,0,0,1,1.18-.39,6,6,0,0,1,1.19-.12,5.64,5.64,0,0,1,2.13.35,3.51,3.51,0,0,1,1.38,1,3.62,3.62,0,0,1,.74,1.49,8,8,0,0,1,.21,1.91v8.5H194V11a2.56,2.56,0,0,0-.7-1.9,2.61,2.61,0,0,0-1.93-.7,4.36,4.36,0,0,0-1.69.3,3.17,3.17,0,0,0-1.19.85,3.66,3.66,0,0,0-.71,1.29,5.21,5.21,0,0,0-.24,1.61v7.3h-2.13V2Z"/><path class="cls-1" d="M199.48,4.55V2h2.13v2.6Zm2.13,2.32V19.8h-2.13V6.88Z"/><path class="cls-1" d="M207.13,6.88V8.63h.05a3.19,3.19,0,0,1,1.65-1.56,6.19,6.19,0,0,1,2.48-.49,5.86,5.86,0,0,1,2.62.55,5.33,5.33,0,0,1,1.85,1.49,6.57,6.57,0,0,1,1.12,2.16,8.81,8.81,0,0,1,.38,2.6,9.09,9.09,0,0,1-.36,2.6,6.11,6.11,0,0,1-1.1,2.14A5.2,5.2,0,0,1,214,19.55a6,6,0,0,1-2.59.52,6.46,6.46,0,0,1-1.07-.1,5.92,5.92,0,0,1-1.17-.33A4.53,4.53,0,0,1,208,19a3.41,3.41,0,0,1-.86-1h-.05v6.65H205V6.88Zm7.66,4.59a4.76,4.76,0,0,0-.73-1.54,3.56,3.56,0,0,0-1.25-1.07,3.82,3.82,0,0,0-1.79-.4A3.52,3.52,0,0,0,208,10a4.64,4.64,0,0,0-.69,1.56,7.54,7.54,0,0,0,0,3.61,4.53,4.53,0,0,0,.71,1.56,3.65,3.65,0,0,0,1.27,1.09,4,4,0,0,0,1.88.41A3.65,3.65,0,0,0,213,17.8a3.42,3.42,0,0,0,1.19-1.12,4.89,4.89,0,0,0,.65-1.6,8.48,8.48,0,0,0,.2-1.85A6.59,6.59,0,0,0,214.78,11.46Z"/><path class="cls-1" d="M234.95,2A5.57,5.57,0,0,1,239,3.34a5.25,5.25,0,0,1,1.39,3.89,5.29,5.29,0,0,1-1.39,3.9,5.46,5.46,0,0,1-4.1,1.37h-5.46v7.3H227.1V2Zm-.8,8.55a4.26,4.26,0,0,0,3-.82,3.13,3.13,0,0,0,.94-2.45,3.09,3.09,0,0,0-.94-2.44,4.39,4.39,0,0,0-3-.84h-4.66V10.5Z"/><path class="cls-1" d="M251.72,19.8v-2h-.05a4.34,4.34,0,0,1-1.73,1.76,5.2,5.2,0,0,1-2.48.56,5.82,5.82,0,0,1-2.13-.34,3.39,3.39,0,0,1-1.38-1,3.61,3.61,0,0,1-.74-1.49,8,8,0,0,1-.21-1.91V6.88h2.13v8.75a2.56,2.56,0,0,0,.7,1.9,2.61,2.61,0,0,0,1.93.7,4.36,4.36,0,0,0,1.69-.3,3.17,3.17,0,0,0,1.19-.85,3.66,3.66,0,0,0,.71-1.29,5.21,5.21,0,0,0,.24-1.61V6.88h2.13V19.8Z"/><path class="cls-1" d="M259.14,2V8.63h.05a3.19,3.19,0,0,1,1.65-1.56,6.2,6.2,0,0,1,2.48-.49,5.86,5.86,0,0,1,2.62.55,5.32,5.32,0,0,1,1.85,1.49,6.56,6.56,0,0,1,1.12,2.16,8.8,8.8,0,0,1,.38,2.6,9.1,9.1,0,0,1-.36,2.6,6.12,6.12,0,0,1-1.1,2.14A5.2,5.2,0,0,1,266,19.55a6,6,0,0,1-2.59.52,6.46,6.46,0,0,1-1.07-.1,5.92,5.92,0,0,1-1.17-.33,4.54,4.54,0,0,1-1.09-.61,3.41,3.41,0,0,1-.86-1h-.05V19.8H257V2Zm7.66,9.51a4.75,4.75,0,0,0-.73-1.54,3.57,3.57,0,0,0-1.25-1.07,3.82,3.82,0,0,0-1.79-.4A3.52,3.52,0,0,0,260,10a4.64,4.64,0,0,0-.69,1.56,7.54,7.54,0,0,0,0,3.61,4.53,4.53,0,0,0,.71,1.56,3.64,3.64,0,0,0,1.27,1.09,4,4,0,0,0,1.88.41A3.65,3.65,0,0,0,265,17.8a3.42,3.42,0,0,0,1.19-1.12,4.89,4.89,0,0,0,.65-1.6,8.49,8.49,0,0,0,.2-1.85A6.58,6.58,0,0,0,266.79,11.46Z"/><path class="cls-1" d="M274,2V19.8h-2.13V2Z"/><path class="cls-1" d="M277.48,4.55V2h2.13v2.6Zm2.13,2.32V19.8h-2.13V6.88Z"/><path class="cls-1" d="M290.67,9.13a3.24,3.24,0,0,0-2.16-.68,4,4,0,0,0-1.93.42A3.44,3.44,0,0,0,285.34,10a4.72,4.72,0,0,0-.66,1.61,8.75,8.75,0,0,0-.2,1.89,7.16,7.16,0,0,0,.21,1.75,4.68,4.68,0,0,0,.66,1.51,3.35,3.35,0,0,0,1.18,1.06,3.53,3.53,0,0,0,1.73.4,3.49,3.49,0,0,0,2.47-.82,3.72,3.72,0,0,0,1.09-2.32H294a5.94,5.94,0,0,1-1.79,3.7,5.64,5.64,0,0,1-3.92,1.3,6.78,6.78,0,0,1-2.62-.47,5.07,5.07,0,0,1-1.9-1.35,5.82,5.82,0,0,1-1.15-2.09,8.68,8.68,0,0,1-.39-2.66,9.46,9.46,0,0,1,.38-2.71,6.26,6.26,0,0,1,1.14-2.2,5.35,5.35,0,0,1,1.92-1.47,6.29,6.29,0,0,1,2.68-.54,7.86,7.86,0,0,1,2.07.26,5.06,5.06,0,0,1,1.7.81A4.46,4.46,0,0,1,293.32,9a5.12,5.12,0,0,1,.6,2h-2.21A3.24,3.24,0,0,0,290.67,9.13Z"/><path class="cls-1" d="M113.5,30.94a5.54,5.54,0,0,0-3.25-.95,5.83,5.83,0,0,0-2.74.6,5.41,5.41,0,0,0-1.88,1.61,6.94,6.94,0,0,0-1.09,2.31,10.3,10.3,0,0,0-.35,2.7,11.52,11.52,0,0,0,.35,2.89,6.88,6.88,0,0,0,1.09,2.37,5.38,5.38,0,0,0,1.89,1.61,5.9,5.9,0,0,0,2.76.6,5.32,5.32,0,0,0,2.09-.39,4.73,4.73,0,0,0,1.58-1.07,4.94,4.94,0,0,0,1-1.64,6.79,6.79,0,0,0,.45-2h2.38a8.1,8.1,0,0,1-2.33,5.25,7.56,7.56,0,0,1-5.41,1.87,8.65,8.65,0,0,1-3.63-.71,7.13,7.13,0,0,1-2.58-2A8.41,8.41,0,0,1,102.32,41a12.55,12.55,0,0,1-.51-3.65,11.86,11.86,0,0,1,.55-3.66,8.8,8.8,0,0,1,1.62-3,7.53,7.53,0,0,1,2.66-2,8.59,8.59,0,0,1,3.65-.74,9.23,9.23,0,0,1,2.66.37,7.17,7.17,0,0,1,2.23,1.1,6.19,6.19,0,0,1,1.63,1.81,6.63,6.63,0,0,1,.85,2.51h-2.38A4.42,4.42,0,0,0,113.5,30.94Z"/><path class="cls-1" d="M122.56,28.41v6.82h.05a2.83,2.83,0,0,1,.7-1,4,4,0,0,1,1-.67,5.3,5.3,0,0,1,1.18-.39,6,6,0,0,1,1.19-.12,5.64,5.64,0,0,1,2.13.35,3.51,3.51,0,0,1,1.38,1,3.62,3.62,0,0,1,.74,1.49,8,8,0,0,1,.21,1.91v8.5H129V37.51a2.56,2.56,0,0,0-.7-1.9,2.61,2.61,0,0,0-1.93-.7,4.36,4.36,0,0,0-1.69.3,3.17,3.17,0,0,0-1.19.85,3.66,3.66,0,0,0-.71,1.29,5.21,5.21,0,0,0-.24,1.61v7.3h-2.13V28.41Z"/><path class="cls-1" d="M145.84,46.21a3,3,0,0,1-1.53.33,1.84,1.84,0,0,1-1.32-.46,2,2,0,0,1-.49-1.51,5.1,5.1,0,0,1-2,1.51,7.07,7.07,0,0,1-4.19.26,3.88,3.88,0,0,1-1.37-.62A3,3,0,0,1,134,44.6a3.74,3.74,0,0,1-.34-1.66,3.79,3.79,0,0,1,.38-1.8A3.27,3.27,0,0,1,135,40a4.54,4.54,0,0,1,1.4-.66q.79-.23,1.62-.38t1.67-.26a9.3,9.3,0,0,0,1.39-.25,2.32,2.32,0,0,0,1-.48,1.16,1.16,0,0,0,.35-.91,2.12,2.12,0,0,0-.26-1.12,1.8,1.8,0,0,0-.68-.65,2.76,2.76,0,0,0-.93-.3,7.08,7.08,0,0,0-1-.07,4.52,4.52,0,0,0-2.26.51,2.17,2.17,0,0,0-1,1.94h-2.13a4.58,4.58,0,0,1,.5-2,3.79,3.79,0,0,1,1.2-1.34,5.06,5.06,0,0,1,1.72-.74,9.08,9.08,0,0,1,2.07-.23,12.22,12.22,0,0,1,1.74.12,4.57,4.57,0,0,1,1.57.51,3,3,0,0,1,1.13,1.08,3.46,3.46,0,0,1,.43,1.82v6.63a4.93,4.93,0,0,0,.09,1.1q.09.35.59.35a2.59,2.59,0,0,0,.65-.1Zm-3.46-6.62a2.66,2.66,0,0,1-1.05.44q-.65.14-1.37.22l-1.44.2a5.31,5.31,0,0,0-1.3.36,2.36,2.36,0,0,0-.94.71,2,2,0,0,0-.36,1.26,1.71,1.71,0,0,0,.21.88,1.76,1.76,0,0,0,.55.58,2.33,2.33,0,0,0,.79.32,4.42,4.42,0,0,0,1,.1,5.08,5.08,0,0,0,1.8-.29,3.8,3.8,0,0,0,1.23-.72,2.86,2.86,0,0,0,.7-.94,2.38,2.38,0,0,0,.23-1Z"/><path class="cls-1" d="M149.75,33.34v2.72h.05a5.76,5.76,0,0,1,1.9-2.32,4.8,4.8,0,0,1,2.86-.7v2.25a6,6,0,0,0-2.18.35,3.43,3.43,0,0,0-1.45,1,4.23,4.23,0,0,0-.8,1.64,8.81,8.81,0,0,0-.25,2.21v5.75h-2.13V33.34Z"/><path class="cls-1" d="M162.34,33.34v1.87h-2.58v8a2.3,2.3,0,0,0,.06.6.62.62,0,0,0,.24.35,1,1,0,0,0,.49.16,7.06,7.06,0,0,0,.81,0h1v1.87h-1.63a7.68,7.68,0,0,1-1.42-.11,2.08,2.08,0,0,1-1-.41,1.76,1.76,0,0,1-.54-.85,4.89,4.89,0,0,1-.18-1.45V35.21h-2.21V33.34h2.21V29.46h2.13v3.87Z"/><path class="cls-1" d="M173.87,45.43a5.89,5.89,0,0,1-3.66,1.1,6.67,6.67,0,0,1-2.69-.5,5.31,5.31,0,0,1-1.92-1.4,5.93,5.93,0,0,1-1.17-2.15,10.31,10.31,0,0,1-.44-2.72,7.76,7.76,0,0,1,.45-2.7,6.45,6.45,0,0,1,1.27-2.12,5.74,5.74,0,0,1,1.93-1.4,5.91,5.91,0,0,1,2.44-.5,5.33,5.33,0,0,1,2.87.71,5.67,5.67,0,0,1,1.83,1.81,7.16,7.16,0,0,1,1,2.4,10.27,10.27,0,0,1,.21,2.47h-9.7a5.11,5.11,0,0,0,.2,1.61,3.64,3.64,0,0,0,.73,1.35,3.58,3.58,0,0,0,1.28.94,4.42,4.42,0,0,0,1.83.35,3.7,3.7,0,0,0,2.22-.62,3,3,0,0,0,1.14-1.9h2.11A5.16,5.16,0,0,1,173.87,45.43Zm-.51-8.3a3.65,3.65,0,0,0-.78-1.16,3.84,3.84,0,0,0-4.11-.77,3.44,3.44,0,0,0-1.14.79,3.77,3.77,0,0,0-.75,1.16,4.41,4.41,0,0,0-.33,1.41h7.44A4.36,4.36,0,0,0,173.35,37.14Z"/><path class="cls-1" d="M180.08,33.34v2.72h.05a5.76,5.76,0,0,1,1.9-2.32,4.8,4.8,0,0,1,2.86-.7v2.25a6,6,0,0,0-2.18.35,3.43,3.43,0,0,0-1.45,1,4.23,4.23,0,0,0-.8,1.64,8.81,8.81,0,0,0-.25,2.21v5.75h-2.13V33.34Z"/><path class="cls-1" d="M202.78,30.85a5.06,5.06,0,0,0-3-.86,7.29,7.29,0,0,0-1.48.15,3.93,3.93,0,0,0-1.29.5,2.63,2.63,0,0,0-.9.94,2.89,2.89,0,0,0-.34,1.46,1.86,1.86,0,0,0,.49,1.34,3.62,3.62,0,0,0,1.3.84,10.89,10.89,0,0,0,1.84.54l2.09.46q1.06.25,2.09.59a6.92,6.92,0,0,1,1.84.91,4.35,4.35,0,0,1,1.3,1.45,5.07,5.07,0,0,1-.15,4.64,5.26,5.26,0,0,1-1.64,1.65,7.15,7.15,0,0,1-2.24.92,10.94,10.94,0,0,1-2.47.29,10.51,10.51,0,0,1-2.84-.38A7,7,0,0,1,195,45.15a5.39,5.39,0,0,1-1.6-1.95,6.25,6.25,0,0,1-.59-2.81H195a4,4,0,0,0,.44,1.94,4,4,0,0,0,1.15,1.34,4.86,4.86,0,0,0,1.67.77,7.66,7.66,0,0,0,2,.25,9,9,0,0,0,1.62-.15,4.78,4.78,0,0,0,1.47-.51,2.74,2.74,0,0,0,1.45-2.59,2.24,2.24,0,0,0-.49-1.5A3.6,3.6,0,0,0,203,39a9.58,9.58,0,0,0-1.84-.59l-2.09-.46Q198,37.71,197,37.4a7.59,7.59,0,0,1-1.84-.82,4,4,0,0,1-1.3-1.32,3.89,3.89,0,0,1-.49-2,4.72,4.72,0,0,1,.55-2.34,4.81,4.81,0,0,1,1.47-1.62,6.61,6.61,0,0,1,2.08-.95,9.22,9.22,0,0,1,2.39-.31,9.62,9.62,0,0,1,2.56.32,5.81,5.81,0,0,1,2.07,1,5,5,0,0,1,1.4,1.76,6.29,6.29,0,0,1,.56,2.54h-2.26A3.72,3.72,0,0,0,202.78,30.85Z"/><path class="cls-1" d="M217.45,35.59a3.24,3.24,0,0,0-2.16-.68,4,4,0,0,0-1.93.42,3.44,3.44,0,0,0-1.24,1.13,4.72,4.72,0,0,0-.66,1.61,8.75,8.75,0,0,0-.2,1.89,7.15,7.15,0,0,0,.21,1.75,4.67,4.67,0,0,0,.66,1.51,3.35,3.35,0,0,0,1.18,1.06,3.53,3.53,0,0,0,1.73.4,3.49,3.49,0,0,0,2.47-.82,3.72,3.72,0,0,0,1.09-2.32h2.18a5.94,5.94,0,0,1-1.79,3.7,5.64,5.64,0,0,1-3.92,1.3,6.78,6.78,0,0,1-2.62-.47,5.08,5.08,0,0,1-1.9-1.35,5.82,5.82,0,0,1-1.15-2.09A8.67,8.67,0,0,1,209,40a9.45,9.45,0,0,1,.38-2.71,6.26,6.26,0,0,1,1.14-2.2,5.35,5.35,0,0,1,1.92-1.47,6.29,6.29,0,0,1,2.68-.54,7.86,7.86,0,0,1,2.07.26,5.05,5.05,0,0,1,1.7.81,4.46,4.46,0,0,1,1.22,1.39,5.11,5.11,0,0,1,.6,2h-2.21A3.24,3.24,0,0,0,217.45,35.59Z"/><path class="cls-1" d="M225.3,28.41v6.82h.05a2.83,2.83,0,0,1,.7-1,4,4,0,0,1,1-.67,5.3,5.3,0,0,1,1.18-.39,6,6,0,0,1,1.19-.12,5.64,5.64,0,0,1,2.13.35,3.51,3.51,0,0,1,1.38,1,3.62,3.62,0,0,1,.74,1.49,8,8,0,0,1,.21,1.91v8.5h-2.13V37.51a2.56,2.56,0,0,0-.7-1.9,2.61,2.61,0,0,0-1.93-.7,4.36,4.36,0,0,0-1.69.3,3.17,3.17,0,0,0-1.19.85,3.66,3.66,0,0,0-.71,1.29A5.21,5.21,0,0,0,225.3,39v7.3h-2.13V28.41Z"/><path class="cls-1" d="M236.8,37.15A6,6,0,0,1,238,35a5.66,5.66,0,0,1,2-1.44,7.28,7.28,0,0,1,5.43,0,5.7,5.7,0,0,1,2,1.44,6,6,0,0,1,1.2,2.15,8.59,8.59,0,0,1,.4,2.66,8.47,8.47,0,0,1-.4,2.65,6,6,0,0,1-1.2,2.14,5.56,5.56,0,0,1-2,1.42A7.44,7.44,0,0,1,240,46a5.53,5.53,0,0,1-2-1.42,6,6,0,0,1-1.2-2.14,8.46,8.46,0,0,1-.4-2.65A8.58,8.58,0,0,1,236.8,37.15ZM239,41.9a4.35,4.35,0,0,0,.86,1.52,3.75,3.75,0,0,0,1.29.94,3.94,3.94,0,0,0,3.13,0,3.75,3.75,0,0,0,1.29-.94,4.37,4.37,0,0,0,.86-1.52,7.1,7.1,0,0,0,0-4.17,4.51,4.51,0,0,0-.86-1.54,3.69,3.69,0,0,0-1.29-.95,3.94,3.94,0,0,0-3.13,0,3.68,3.68,0,0,0-1.29.95,4.5,4.5,0,0,0-.86,1.54,7.11,7.11,0,0,0,0,4.17Z"/><path class="cls-1" d="M251.19,37.15a6,6,0,0,1,1.2-2.15,5.66,5.66,0,0,1,2-1.44,7.28,7.28,0,0,1,5.43,0,5.7,5.7,0,0,1,2,1.44,6,6,0,0,1,1.2,2.15,8.59,8.59,0,0,1,.4,2.66,8.47,8.47,0,0,1-.4,2.65,6,6,0,0,1-1.2,2.14,5.56,5.56,0,0,1-2,1.42,7.44,7.44,0,0,1-5.43,0,5.53,5.53,0,0,1-2-1.42,6,6,0,0,1-1.2-2.14,8.46,8.46,0,0,1-.4-2.65A8.58,8.58,0,0,1,251.19,37.15Zm2.17,4.75a4.35,4.35,0,0,0,.86,1.52,3.75,3.75,0,0,0,1.29.94,3.94,3.94,0,0,0,3.13,0,3.75,3.75,0,0,0,1.29-.94,4.37,4.37,0,0,0,.86-1.52,7.11,7.11,0,0,0,0-4.17,4.52,4.52,0,0,0-.86-1.54,3.69,3.69,0,0,0-1.29-.95,3.94,3.94,0,0,0-3.13,0,3.68,3.68,0,0,0-1.29.95,4.5,4.5,0,0,0-.86,1.54,7.11,7.11,0,0,0,0,4.17Z"/><path class="cls-1" d="M268.13,28.41V46.26H266V28.41Z"/><path class="cls-5" d="M109.48,61.25a1.93,1.93,0,0,0-1.14-1.41,2.82,2.82,0,0,0-1.13-.22,2.46,2.46,0,0,0-2,.9,4.06,4.06,0,0,0-.77,2.69,3.34,3.34,0,0,0,.83,2.56,2.73,2.73,0,0,0,1.89.75,2.45,2.45,0,0,0,1.7-.59,2.56,2.56,0,0,0,.82-1.56h-2.28V62.74h4.11V68h-1.37L110,66.79a4.72,4.72,0,0,1-1.07,1,3.79,3.79,0,0,1-2,.5,4.18,4.18,0,0,1-3.21-1.35,5.15,5.15,0,0,1-1.31-3.72,5.45,5.45,0,0,1,1.32-3.83,4.5,4.5,0,0,1,3.49-1.44,4.57,4.57,0,0,1,3,1,3.53,3.53,0,0,1,1.31,2.37Z"/><path class="cls-5" d="M120,58.43a2.44,2.44,0,0,1,.92.69,3.05,3.05,0,0,1,.5.83,2.75,2.75,0,0,1,.18,1,2.94,2.94,0,0,1-.35,1.38,2,2,0,0,1-1.17,1,1.84,1.84,0,0,1,1,.78,3.23,3.23,0,0,1,.28,1.54v.66a5,5,0,0,0,.05.91.82.82,0,0,0,.38.56V68h-2.28q-.09-.33-.13-.53a4.82,4.82,0,0,1-.09-.85v-.91a1.85,1.85,0,0,0-.33-1.25,1.66,1.66,0,0,0-1.17-.31h-2V68h-2V58.18h4.72A4.31,4.31,0,0,1,120,58.43Zm-4.26,1.45v2.64h2.22a2.37,2.37,0,0,0,1-.16,1.11,1.11,0,0,0,.58-1.11,1.24,1.24,0,0,0-.57-1.2,2,2,0,0,0-1-.17Z"/><path class="cls-5" d="M126.51,58.18h2.33L132.33,68h-2.24l-.65-2h-3.63l-.67,2H123Zm-.14,6.12h2.53l-1.25-3.87Z"/><path class="cls-5" d="M139.5,58.39a3.26,3.26,0,0,1,1.68,1.25,4.37,4.37,0,0,1,.7,1.59,7.61,7.61,0,0,1,.19,1.63,6.52,6.52,0,0,1-.79,3.32A3.57,3.57,0,0,1,138,68h-4.25V58.18H138A5.21,5.21,0,0,1,139.5,58.39Zm-3.78,1.49v6.42h1.9a2.06,2.06,0,0,0,2-1.43A5,5,0,0,0,140,63a4.6,4.6,0,0,0-.47-2.31,2,2,0,0,0-1.88-.8Z"/><path class="cls-5" d="M151.05,59.92h-5.22V62h4.79v1.71h-4.79v2.53h5.46V68h-7.48V58.18h7.24Z"/><path class="cls-5" d="M154.52,65a2,2,0,0,0,.38,1,2.19,2.19,0,0,0,1.76.61,3.79,3.79,0,0,0,1.21-.16,1.15,1.15,0,0,0,.88-1.14.84.84,0,0,0-.43-.75,4.7,4.7,0,0,0-1.37-.46l-1.07-.23a6.67,6.67,0,0,1-2.16-.75,2.4,2.4,0,0,1-1-2.13,2.82,2.82,0,0,1,1-2.2,4.17,4.17,0,0,1,2.87-.87,4.4,4.4,0,0,1,2.69.82,2.93,2.93,0,0,1,1.17,2.39h-2a1.41,1.41,0,0,0-.8-1.26,2.73,2.73,0,0,0-1.23-.25,2.34,2.34,0,0,0-1.3.32,1,1,0,0,0-.49.89.84.84,0,0,0,.48.79,6,6,0,0,0,1.31.41l1.73.41a4.41,4.41,0,0,1,1.71.71,2.4,2.4,0,0,1,.88,2,2.82,2.82,0,0,1-1,2.24,4.42,4.42,0,0,1-3,.89,4.84,4.84,0,0,1-3.06-.88A2.9,2.9,0,0,1,152.56,65Z"/><path class="cls-5" d="M172.89,63.76a3.77,3.77,0,0,1-2.47.72h-2.05V68h-2V58.18h4.24a3.42,3.42,0,0,1,2.34.76,3,3,0,0,1,.87,2.36A3,3,0,0,1,172.89,63.76Zm-1.57-3.54a1.66,1.66,0,0,0-1.1-.33h-1.86v2.9h1.86a1.58,1.58,0,0,0,1.1-.35,1.44,1.44,0,0,0,.39-1.12A1.35,1.35,0,0,0,171.31,60.22Z"/><path class="cls-5" d="M181.87,58.43a2.44,2.44,0,0,1,.92.69,3.06,3.06,0,0,1,.5.83,2.76,2.76,0,0,1,.18,1,2.94,2.94,0,0,1-.35,1.38,2,2,0,0,1-1.17,1,1.84,1.84,0,0,1,1,.78,3.23,3.23,0,0,1,.28,1.54v.66a5,5,0,0,0,.05.91.82.82,0,0,0,.38.56V68h-2.28q-.09-.33-.13-.53a4.82,4.82,0,0,1-.09-.85v-.91a1.86,1.86,0,0,0-.33-1.25,1.67,1.67,0,0,0-1.17-.31h-2V68h-2V58.18h4.72A4.31,4.31,0,0,1,181.87,58.43Zm-4.26,1.45v2.64h2.22a2.37,2.37,0,0,0,1-.16,1.11,1.11,0,0,0,.58-1.11,1.24,1.24,0,0,0-.57-1.2,2,2,0,0,0-1-.17Z"/><path class="cls-5" d="M192.88,59.92h-5.22V62h4.79v1.71h-4.79v2.53h5.46V68h-7.48V58.18h7.24Z"/><path class="cls-5" d="M194.13,63.31h3.73v1.8h-3.73Z"/><path class="cls-5" d="M199.6,58.18h2v4.05l3.81-4.05h2.66l-4,4L208.31,68h-2.65l-3-4.29-1,1V68h-2Z"/><path class="cls-5" d="M210.79,65a2.17,2.17,0,0,0,.19,1,1.28,1.28,0,0,0,1.26.7,1.4,1.4,0,0,0,1-.38,1.43,1.43,0,0,0,.42-1.1,1.24,1.24,0,0,0-.77-1.27,3.93,3.93,0,0,0-1.39-.18V62.4a3.61,3.61,0,0,0,1.29-.18,1.11,1.11,0,0,0,.63-1.13,1.27,1.27,0,0,0-.32-.9,1.19,1.19,0,0,0-.91-.35,1.15,1.15,0,0,0-1,.43,1.81,1.81,0,0,0-.3,1.14h-1.78a4.77,4.77,0,0,1,.25-1.37,3.08,3.08,0,0,1,.74-1,2.56,2.56,0,0,1,.89-.52,3.86,3.86,0,0,1,1.26-.18,3.37,3.37,0,0,1,2.24.72,2.39,2.39,0,0,1,.85,1.93,2.12,2.12,0,0,1-.51,1.44,1.74,1.74,0,0,1-.67.5,1.38,1.38,0,0,1,.75.45,2.39,2.39,0,0,1,.73,1.84,3.1,3.1,0,0,1-.85,2.16,3.25,3.25,0,0,1-2.52.93,3.06,3.06,0,0,1-2.86-1.34,4,4,0,0,1-.47-1.87Z"/><path class="cls-5" d="M228.47,58.18v1.74h-3V68h-2.07v-8.1h-3V58.18Z"/><path class="cls-5" d="M237.17,67.14a5.13,5.13,0,0,1-6.47,0,5.3,5.3,0,0,1-1.5-4.06,5.19,5.19,0,0,1,1.5-4.06,5.13,5.13,0,0,1,6.47,0,5.21,5.21,0,0,1,1.49,4.06A5.31,5.31,0,0,1,237.17,67.14Zm-1.29-1.49a4.92,4.92,0,0,0,0-5.12,2.35,2.35,0,0,0-1.94-.9,2.39,2.39,0,0,0-2,.9,4.87,4.87,0,0,0,0,5.13,2.39,2.39,0,0,0,2,.9A2.36,2.36,0,0,0,235.88,65.65Z"/><path class="cls-5" d="M244.23,61.34V60a8.43,8.43,0,0,0,1.26-.12,1.78,1.78,0,0,0,.93-.51,1.67,1.67,0,0,0,.37-.69,1.58,1.58,0,0,0,.07-.39h1.59V68h-2V61.34Z"/><path class="cls-5" d="M251.91,66.11a5.38,5.38,0,0,1,1.93-2,14.12,14.12,0,0,0,1.71-1.35,2,2,0,0,0,.6-1.39,1.53,1.53,0,0,0-.34-1,1.39,1.39,0,0,0-2.16.24,3.21,3.21,0,0,0-.21,1.19h-1.85a4.65,4.65,0,0,1,.45-2,2.8,2.8,0,0,1,2.71-1.45,3.45,3.45,0,0,1,2.45.85,2.94,2.94,0,0,1,.91,2.25,3,3,0,0,1-.64,1.91,6.39,6.39,0,0,1-1.39,1.23l-.76.54q-.72.51-1,.73a2.15,2.15,0,0,0-.45.53h4.24V68h-6.65A4.53,4.53,0,0,1,251.91,66.11Z"/></svg>